M48
;Layer_Color=9474304
;FILE_FORMAT=4:4
METRIC,LZ
;TYPE=PLATED
T1F00S00C0.3000
T2F00S00C0.3300
T3F00S00C0.6000
T4F00S00C0.6500
T5F00S00C1.1000
%
T01
X00017182Y00021469
Y00085069
X000192Y001153
X00120582Y00122769
X001145Y001346
X001177Y001489
X001264Y00158
X00126475Y00177475
X001145Y002147
X00117922Y00090185
X001224Y000511
X00173022Y00054385
X00171722Y00094185
X001822Y00116
X00197Y001136
X001505Y00125
X001358Y001233
X001347Y001345
X001372Y001586
X001577Y001523
X00155408Y00201008
X001472Y002026
X0013185Y001985
X001613Y002124
X002741Y001942
X002448Y001464
X00235Y001469
X002588Y001016
X00281282Y00119169
X002397Y000641
X00231382Y00021669
X00151382Y00019769
X00130522Y00099485
X001475Y002235
X00157565Y00247735
X001673Y002477
X001652Y002769
X00145Y002868
X001415Y00307
X001584Y00308
X001686
X002054Y003033
X00235882Y00303669
X00245Y002858
X002649Y003136
X002653Y00351
X00204Y00384
X00155Y004277
X00144282Y00418169
X00144134Y00484466
X001576Y004852
X00151511Y00501762
X0013Y005226
X001395Y005628
X001568Y005493
X001567Y005789
X001871Y005627
X001942Y005255
X001974Y005166
X002254Y004845
X002458Y004835
X001742Y004596
X002893Y004301
X00288182Y00536768
X002878Y005988
X00232382Y00609669
X002062Y00602
X001907Y002839
X001347Y002678
X00232Y002451
X002576Y002218
X00289282Y00251169
X001128Y002245
X000662Y002377
X00026582Y00273468
X000127Y00308
X0004385Y0031195
X00081282Y00309268
X001025Y002803
X001268Y002995
X00116082Y00415769
X001135Y004504
X000951Y004502
X000755Y005094
X001191Y005983
X00038182Y00611069
X00014082Y00379969
X000826Y00619
X00087182Y00678969
X00040182Y00682969
X001331Y006774
X00201382Y00693869
X00225001Y0063205
X002452Y006353
X002548Y006406
X00281282Y00684169
X001757Y006323
X0017761Y00619581
T02
X001813Y001683
X001933
X002053
Y001803
Y001923
X001933
Y001803
X001813
Y001923
T03
X00231274Y00363943
X002253Y005128
X001257Y00492
X00128Y004389
T04
X001761Y006592
X002339
T05
X0008Y0005
Y001008
Y001262
Y001516
M30
