G04*
G04 #@! TF.GenerationSoftware,Altium Limited,Altium Designer,21.3.2 (30)*
G04*
G04 Layer_Color=32896*
%FSLAX44Y44*%
%MOMM*%
G71*
G04*
G04 #@! TF.SameCoordinates,93AE1877-D90B-42EB-A32C-D5F199EAFC0F*
G04*
G04*
G04 #@! TF.FilePolarity,Positive*
G04*
G01*
G75*
%ADD12C,0.2540*%
%ADD13C,0.1700*%
%ADD14C,0.2000*%
%ADD16C,0.1000*%
G36*
X215208Y613824D02*
X215420D01*
Y613718D01*
X215527D01*
Y613612D01*
X215633D01*
Y613505D01*
X215739D01*
Y613186D01*
X215846D01*
Y609996D01*
X218185D01*
Y609890D01*
X218398D01*
Y609784D01*
X218504D01*
Y609677D01*
X218610D01*
Y609465D01*
X218717D01*
Y609146D01*
X218823D01*
Y607551D01*
X218717D01*
Y607232D01*
X218610D01*
Y607019D01*
X218504D01*
Y606913D01*
X218398D01*
Y606806D01*
X218185D01*
Y606700D01*
X215846D01*
Y603616D01*
X215739D01*
Y603297D01*
X215633D01*
Y603191D01*
X215527D01*
Y603085D01*
X215420D01*
Y602978D01*
X215314D01*
Y602872D01*
X213932D01*
Y602978D01*
X213825D01*
Y603085D01*
X213719D01*
Y603191D01*
X213613D01*
Y603297D01*
X213506D01*
Y603510D01*
X213400D01*
Y606062D01*
Y606168D01*
Y606700D01*
X211061D01*
Y606806D01*
X210848D01*
Y606913D01*
X210742D01*
Y607125D01*
X210635D01*
Y607232D01*
X210529D01*
Y607551D01*
X210423D01*
Y609146D01*
X210529D01*
Y609465D01*
X210635D01*
Y609571D01*
X210742D01*
Y609784D01*
X210848D01*
Y609890D01*
X211061D01*
Y609996D01*
X213400D01*
Y613186D01*
X213506D01*
Y613505D01*
X213613D01*
Y613612D01*
X213719D01*
Y613718D01*
X213825D01*
Y613824D01*
X213932D01*
Y613931D01*
X215208D01*
Y613824D01*
D02*
G37*
G36*
X266590Y611240D02*
X266802D01*
Y611133D01*
X266909D01*
Y611027D01*
X267015D01*
Y610708D01*
X267121D01*
Y610389D01*
X267228D01*
Y609964D01*
X267334D01*
Y609645D01*
X267440D01*
Y609219D01*
X267547D01*
Y608900D01*
X267653D01*
Y608475D01*
X267759D01*
Y608156D01*
X267866D01*
Y607731D01*
X267972D01*
Y607412D01*
X268078D01*
Y606986D01*
X268185D01*
Y606667D01*
X268291D01*
Y606242D01*
X268397D01*
Y605923D01*
X268504D01*
Y605498D01*
X268610D01*
Y605179D01*
X268716D01*
Y604753D01*
X268823D01*
Y604434D01*
X268929D01*
Y604009D01*
X269035D01*
Y603690D01*
X269142D01*
Y603265D01*
X269248D01*
Y602839D01*
X269354D01*
Y602520D01*
X269461D01*
Y602095D01*
X269567D01*
Y601776D01*
X269673D01*
Y601351D01*
X269780D01*
Y600819D01*
X269673D01*
Y600500D01*
X269567D01*
Y600287D01*
X269461D01*
Y600181D01*
X269354D01*
Y600075D01*
X269248D01*
Y599968D01*
X267759D01*
Y600075D01*
X267547D01*
Y600181D01*
X267440D01*
Y600287D01*
X267334D01*
Y600500D01*
X267228D01*
Y600925D01*
X267121D01*
Y601351D01*
X267015D01*
Y601882D01*
X266909D01*
Y602308D01*
X266802D01*
Y602733D01*
X266696D01*
Y603265D01*
X266590D01*
Y603690D01*
X266483D01*
Y604115D01*
X266377D01*
Y604647D01*
X266271D01*
Y605072D01*
X266164D01*
Y605498D01*
X266058D01*
Y606029D01*
X265952D01*
Y606455D01*
X265845D01*
Y606880D01*
X265739D01*
Y607412D01*
X265633D01*
Y607837D01*
X265526D01*
Y608262D01*
X265420D01*
Y607943D01*
X265314D01*
Y607518D01*
X265207D01*
Y606986D01*
X265101D01*
Y606561D01*
X264995D01*
Y606136D01*
X264888D01*
Y605604D01*
X264782D01*
Y605179D01*
X264676D01*
Y604753D01*
X264569D01*
Y604328D01*
X265633D01*
Y604222D01*
X265845D01*
Y604115D01*
X265952D01*
Y603903D01*
X266058D01*
Y603371D01*
X266164D01*
Y602946D01*
X266271D01*
Y602308D01*
X266164D01*
Y602095D01*
X266058D01*
Y601989D01*
X265845D01*
Y601882D01*
X263931D01*
Y601457D01*
X263825D01*
Y600925D01*
X263719D01*
Y600606D01*
X263612D01*
Y600394D01*
X263506D01*
Y600181D01*
X263400D01*
Y600075D01*
X263187D01*
Y599968D01*
X261698D01*
Y600075D01*
X261486D01*
Y600181D01*
X261379D01*
Y600287D01*
X261273D01*
Y600500D01*
X261167D01*
Y600925D01*
X261060D01*
Y601244D01*
X261167D01*
Y601670D01*
X261273D01*
Y602095D01*
X261379D01*
Y602414D01*
X261486D01*
Y602839D01*
X261592D01*
Y603158D01*
X261698D01*
Y603584D01*
X261805D01*
Y603903D01*
X261911D01*
Y604328D01*
X262017D01*
Y604647D01*
X262124D01*
Y605072D01*
X262230D01*
Y605391D01*
X262336D01*
Y605817D01*
X262443D01*
Y606136D01*
X262549D01*
Y606561D01*
X262655D01*
Y606880D01*
X262762D01*
Y607305D01*
X262868D01*
Y607624D01*
X262974D01*
Y608050D01*
X263081D01*
Y608369D01*
X263187D01*
Y608794D01*
X263293D01*
Y609219D01*
X263400D01*
Y609538D01*
X263506D01*
Y609964D01*
X263612D01*
Y610283D01*
X263719D01*
Y610708D01*
X263825D01*
Y610921D01*
X263931D01*
Y611027D01*
X264038D01*
Y611133D01*
X264144D01*
Y611240D01*
X264250D01*
Y611346D01*
X266590D01*
Y611240D01*
D02*
G37*
G36*
X260210Y611346D02*
X260316D01*
Y611240D01*
X260422D01*
Y611133D01*
X260529D01*
Y610921D01*
X260635D01*
Y610602D01*
X260741D01*
Y609432D01*
X260635D01*
Y609113D01*
X260529D01*
Y608900D01*
X260422D01*
Y608794D01*
X260316D01*
Y608688D01*
X260210D01*
Y608581D01*
X257977D01*
Y600606D01*
X257870D01*
Y600394D01*
X257764D01*
Y600287D01*
X257658D01*
Y600075D01*
X257445D01*
Y599968D01*
X255850D01*
Y600075D01*
X255744D01*
Y600181D01*
X255637D01*
Y600287D01*
X255531D01*
Y600394D01*
X255425D01*
Y600713D01*
X255318D01*
Y608581D01*
X253192D01*
Y608688D01*
X252979D01*
Y608794D01*
X252873D01*
Y609007D01*
X252766D01*
Y609113D01*
X252660D01*
Y609538D01*
X252554D01*
Y610389D01*
X252660D01*
Y610814D01*
X252766D01*
Y611027D01*
X252873D01*
Y611240D01*
X252979D01*
Y611346D01*
X253192D01*
Y611452D01*
X260210D01*
Y611346D01*
D02*
G37*
G36*
X278074Y611240D02*
X278286D01*
Y611133D01*
X278393D01*
Y611027D01*
X278499D01*
Y610814D01*
X278605D01*
Y610389D01*
X278712D01*
Y600819D01*
X278605D01*
Y600394D01*
X278499D01*
Y600181D01*
X278393D01*
Y600075D01*
X278286D01*
Y599968D01*
X278074D01*
Y599862D01*
X275947D01*
Y609007D01*
X274458D01*
Y608900D01*
X274139D01*
Y608794D01*
X274033D01*
Y608688D01*
X273927D01*
Y608581D01*
X273820D01*
Y608262D01*
X273714D01*
Y607624D01*
X273820D01*
Y607305D01*
X273927D01*
Y607093D01*
X274033D01*
Y606986D01*
X274246D01*
Y606880D01*
X274990D01*
Y606774D01*
X275203D01*
Y606667D01*
X275309D01*
Y606561D01*
X275415D01*
Y606348D01*
X275522D01*
Y605072D01*
X275415D01*
Y604860D01*
X275309D01*
Y604753D01*
X275096D01*
Y604647D01*
X274352D01*
Y604541D01*
X273927D01*
Y604434D01*
X273714D01*
Y604328D01*
X273608D01*
Y604115D01*
X273501D01*
Y603903D01*
X273395D01*
Y603265D01*
Y603158D01*
Y603052D01*
X273501D01*
Y602839D01*
X273608D01*
Y602627D01*
X273714D01*
Y602520D01*
X273927D01*
Y602414D01*
X274246D01*
Y602308D01*
X275096D01*
Y602201D01*
X275203D01*
Y602095D01*
X275309D01*
Y601989D01*
X275415D01*
Y601776D01*
X275522D01*
Y600394D01*
X275415D01*
Y600181D01*
X275309D01*
Y600075D01*
X275203D01*
Y599968D01*
X275096D01*
Y599862D01*
X273395D01*
Y599968D01*
X272757D01*
Y600075D01*
X272332D01*
Y600181D01*
X272119D01*
Y600287D01*
X271906D01*
Y600394D01*
X271800D01*
Y600500D01*
X271694D01*
Y600606D01*
X271587D01*
Y600713D01*
X271481D01*
Y600819D01*
X271375D01*
Y600925D01*
X271268D01*
Y601138D01*
X271162D01*
Y601244D01*
X271056D01*
Y601563D01*
X270949D01*
Y601776D01*
X270843D01*
Y602201D01*
X270737D01*
Y604115D01*
X270843D01*
Y604434D01*
X270949D01*
Y604753D01*
X271056D01*
Y604966D01*
X271162D01*
Y605072D01*
X271268D01*
Y605179D01*
X271375D01*
Y605391D01*
X271481D01*
Y605498D01*
X271694D01*
Y605604D01*
X271800D01*
Y605710D01*
X272013D01*
Y605817D01*
X272225D01*
Y605923D01*
X272438D01*
Y606029D01*
X272225D01*
Y606136D01*
X272119D01*
Y606242D01*
X271906D01*
Y606348D01*
X271800D01*
Y606455D01*
X271694D01*
Y606667D01*
X271587D01*
Y606774D01*
X271481D01*
Y606986D01*
X271375D01*
Y607199D01*
X271268D01*
Y607518D01*
X271162D01*
Y608156D01*
X271056D01*
Y608900D01*
X271162D01*
Y609432D01*
X271268D01*
Y609751D01*
X271375D01*
Y609964D01*
X271481D01*
Y610176D01*
X271587D01*
Y610389D01*
X271694D01*
Y610495D01*
X271800D01*
Y610602D01*
X271906D01*
Y610708D01*
X272013D01*
Y610814D01*
X272119D01*
Y610921D01*
X272225D01*
Y611027D01*
X272438D01*
Y611133D01*
X272651D01*
Y611240D01*
X272970D01*
Y611346D01*
X278074D01*
Y611240D01*
D02*
G37*
G36*
X260630Y509303D02*
X261161D01*
Y509196D01*
X261481D01*
Y509090D01*
X261693D01*
Y508984D01*
X261800D01*
Y508877D01*
X261906D01*
Y508771D01*
X262118D01*
Y508558D01*
X262225D01*
Y508452D01*
X262331D01*
Y508133D01*
X262437D01*
Y507495D01*
X262331D01*
Y507176D01*
X262225D01*
Y506963D01*
X262118D01*
Y506857D01*
X262012D01*
Y506751D01*
X261800D01*
Y506644D01*
X261268D01*
Y506538D01*
X260949D01*
Y506644D01*
X260736D01*
Y506751D01*
X260630D01*
Y506857D01*
X260523D01*
Y506963D01*
X260417D01*
Y507070D01*
X260311D01*
Y507176D01*
X260205D01*
Y507282D01*
X260098D01*
Y507389D01*
X259779D01*
Y507495D01*
X259141D01*
Y507389D01*
X258929D01*
Y507282D01*
X258822D01*
Y507176D01*
X258716D01*
Y506963D01*
X258610D01*
Y503667D01*
X258716D01*
Y503348D01*
X258822D01*
Y503135D01*
X258929D01*
Y503029D01*
X259035D01*
Y502923D01*
X259141D01*
Y502816D01*
X259247D01*
Y502710D01*
X259460D01*
Y502604D01*
X259673D01*
Y502497D01*
X260205D01*
Y502604D01*
X260417D01*
Y502710D01*
X260523D01*
Y502816D01*
X260630D01*
Y503135D01*
X260736D01*
Y503454D01*
X260630D01*
Y503773D01*
X260523D01*
Y503986D01*
X260311D01*
Y504092D01*
X260205D01*
Y504199D01*
X259992D01*
Y504305D01*
X259673D01*
Y504411D01*
X259460D01*
Y504518D01*
X259354D01*
Y504624D01*
X259247D01*
Y504730D01*
X259141D01*
Y505475D01*
X259247D01*
Y505581D01*
X259354D01*
Y505687D01*
X259460D01*
Y505794D01*
X259566D01*
Y505900D01*
X260098D01*
Y505794D01*
X260523D01*
Y505687D01*
X260842D01*
Y505581D01*
X261268D01*
Y505475D01*
X261587D01*
Y505368D01*
X261906D01*
Y505262D01*
X262012D01*
Y505156D01*
X262225D01*
Y505049D01*
X262331D01*
Y504943D01*
X262437D01*
Y504837D01*
X262544D01*
Y504730D01*
X262650D01*
Y504624D01*
X262757D01*
Y504518D01*
X262863D01*
Y504199D01*
X262969D01*
Y503880D01*
X263076D01*
Y502391D01*
X262969D01*
Y502072D01*
X262863D01*
Y501859D01*
X262757D01*
Y501647D01*
X262650D01*
Y501540D01*
X262544D01*
Y501434D01*
X262437D01*
Y501328D01*
X262331D01*
Y501221D01*
X262225D01*
Y501115D01*
X262012D01*
Y501009D01*
X261800D01*
Y500902D01*
X261481D01*
Y500796D01*
X260098D01*
Y500902D01*
X259779D01*
Y501009D01*
X259460D01*
Y501115D01*
X259247D01*
Y501221D01*
X259141D01*
Y501328D01*
X258929D01*
Y501434D01*
X258822D01*
Y501540D01*
X258716D01*
Y501647D01*
X258610D01*
Y501753D01*
X258397D01*
Y501434D01*
X258291D01*
Y501328D01*
X258184D01*
Y501115D01*
X257971D01*
Y501009D01*
X257759D01*
Y500902D01*
X256908D01*
Y501009D01*
X256695D01*
Y501115D01*
X256589D01*
Y501221D01*
X256483D01*
Y501328D01*
X256376D01*
Y501540D01*
X256270D01*
Y507070D01*
X256376D01*
Y507601D01*
X256483D01*
Y507920D01*
X256589D01*
Y508133D01*
X256695D01*
Y508346D01*
X256802D01*
Y508558D01*
X256908D01*
Y508665D01*
X257015D01*
Y508771D01*
X257121D01*
Y508877D01*
X257227D01*
Y508984D01*
X257440D01*
Y509090D01*
X257652D01*
Y509196D01*
X257971D01*
Y509303D01*
X258397D01*
Y509409D01*
X260630D01*
Y509303D01*
D02*
G37*
G36*
X254144Y512067D02*
X254250D01*
Y511961D01*
X254356D01*
Y511855D01*
X254463D01*
Y511748D01*
X254569D01*
Y511536D01*
X254675D01*
Y501434D01*
X254569D01*
Y501221D01*
X254463D01*
Y501115D01*
X254356D01*
Y501009D01*
X254250D01*
Y500902D01*
X254144D01*
Y500796D01*
X252761D01*
Y500902D01*
X252655D01*
Y501009D01*
X252549D01*
Y501115D01*
X252442D01*
Y501221D01*
X252336D01*
Y501434D01*
X252229D01*
Y502923D01*
X252123D01*
Y503135D01*
X252017D01*
Y503242D01*
X251910D01*
Y503348D01*
X251804D01*
Y503561D01*
X251698D01*
Y503667D01*
X251591D01*
Y503773D01*
X251485D01*
Y503986D01*
X251273D01*
Y503773D01*
X251166D01*
Y503454D01*
X251060D01*
Y503135D01*
X250954D01*
Y502923D01*
X250847D01*
Y502604D01*
X250741D01*
Y502391D01*
X250634D01*
Y502072D01*
X250528D01*
Y501753D01*
X250422D01*
Y501540D01*
X250315D01*
Y501221D01*
X250209D01*
Y501115D01*
X250103D01*
Y501009D01*
X249996D01*
Y500902D01*
X249890D01*
Y500796D01*
X248508D01*
Y500902D01*
X248402D01*
Y501009D01*
X248295D01*
Y501115D01*
X248189D01*
Y501328D01*
X248083D01*
Y501647D01*
X247976D01*
Y502178D01*
X248083D01*
Y502497D01*
X248189D01*
Y502816D01*
X248295D01*
Y503029D01*
X248402D01*
Y503242D01*
X248508D01*
Y503454D01*
X248614D01*
Y503773D01*
X248720D01*
Y503986D01*
X248827D01*
Y504199D01*
X248933D01*
Y504518D01*
X249039D01*
Y504730D01*
X249146D01*
Y504943D01*
X249252D01*
Y505156D01*
X249359D01*
Y505475D01*
X249465D01*
Y505687D01*
X249571D01*
Y505900D01*
X249678D01*
Y506325D01*
X249571D01*
Y506432D01*
X249465D01*
Y506538D01*
X249359D01*
Y506644D01*
X249252D01*
Y506857D01*
X249146D01*
Y506963D01*
X249039D01*
Y507070D01*
X248933D01*
Y507282D01*
X248827D01*
Y507495D01*
X248720D01*
Y508239D01*
X248827D01*
Y508558D01*
X248933D01*
Y508771D01*
X249039D01*
Y508877D01*
X249146D01*
Y508984D01*
X249359D01*
Y509090D01*
X250315D01*
Y508984D01*
X250528D01*
Y508877D01*
X250634D01*
Y508771D01*
X250741D01*
Y508558D01*
X250847D01*
Y508346D01*
X250954D01*
Y508239D01*
X251060D01*
Y508027D01*
X251166D01*
Y507920D01*
X251273D01*
Y507708D01*
X251379D01*
Y507601D01*
X251485D01*
Y507389D01*
X251591D01*
Y507282D01*
X251698D01*
Y507070D01*
X251804D01*
Y506963D01*
X251910D01*
Y506751D01*
X252017D01*
Y506644D01*
X252123D01*
Y506432D01*
X252229D01*
Y511536D01*
X252336D01*
Y511748D01*
X252442D01*
Y511855D01*
X252549D01*
Y511961D01*
X252655D01*
Y512067D01*
X252761D01*
Y512174D01*
X254144D01*
Y512067D01*
D02*
G37*
G36*
X268498Y509303D02*
X268924D01*
Y509196D01*
X269137D01*
Y509090D01*
X269349D01*
Y508984D01*
X269562D01*
Y508877D01*
X269668D01*
Y508771D01*
X269881D01*
Y508665D01*
X269987D01*
Y508558D01*
X270093D01*
Y508452D01*
X270200D01*
Y508346D01*
X270306D01*
Y508133D01*
X270413D01*
Y508027D01*
X270519D01*
Y507814D01*
X270625D01*
Y507601D01*
X270732D01*
Y507389D01*
X270838D01*
Y507176D01*
X270944D01*
Y506857D01*
X271050D01*
Y506432D01*
X271157D01*
Y505687D01*
X271263D01*
Y504624D01*
X271157D01*
Y503880D01*
X271050D01*
Y503454D01*
X270944D01*
Y503135D01*
X270838D01*
Y502816D01*
X270732D01*
Y502604D01*
X270625D01*
Y502391D01*
X270519D01*
Y502285D01*
X270413D01*
Y502072D01*
X270306D01*
Y501966D01*
X270200D01*
Y501859D01*
X270093D01*
Y501753D01*
X269987D01*
Y501647D01*
X269881D01*
Y501540D01*
X269774D01*
Y501434D01*
X269668D01*
Y501328D01*
X269456D01*
Y501221D01*
X269243D01*
Y501115D01*
X268924D01*
Y501009D01*
X268605D01*
Y500902D01*
X266691D01*
Y501009D01*
X266266D01*
Y501115D01*
X265947D01*
Y501221D01*
X265734D01*
Y501328D01*
X265521D01*
Y501434D01*
X265415D01*
Y501647D01*
X265308D01*
Y501966D01*
X265202D01*
Y502604D01*
X265308D01*
Y502923D01*
X265415D01*
Y503135D01*
X265521D01*
Y503242D01*
X265627D01*
Y503348D01*
X265947D01*
Y503454D01*
X266372D01*
Y503348D01*
X266584D01*
Y503242D01*
X266691D01*
Y503135D01*
X266797D01*
Y503029D01*
X266903D01*
Y502923D01*
X267116D01*
Y502816D01*
X267329D01*
Y502710D01*
X267861D01*
Y502816D01*
X268073D01*
Y502923D01*
X268286D01*
Y503135D01*
X268392D01*
Y503242D01*
X268498D01*
Y503454D01*
X268605D01*
Y503667D01*
X268711D01*
Y504305D01*
X268818D01*
Y506006D01*
X268711D01*
Y506113D01*
Y506219D01*
Y506644D01*
X268605D01*
Y506857D01*
X268498D01*
Y507070D01*
X268392D01*
Y507282D01*
X268286D01*
Y507389D01*
X268073D01*
Y507495D01*
X267861D01*
Y507601D01*
X267329D01*
Y507495D01*
X267116D01*
Y507389D01*
X267010D01*
Y507282D01*
X266903D01*
Y507176D01*
X266797D01*
Y506963D01*
X266691D01*
Y506751D01*
X266584D01*
Y506219D01*
X266478D01*
Y505900D01*
X267861D01*
Y505794D01*
X267967D01*
Y505687D01*
X268073D01*
Y505581D01*
X268179D01*
Y505368D01*
X268286D01*
Y504943D01*
X268179D01*
Y504730D01*
X268073D01*
Y504624D01*
X267967D01*
Y504518D01*
X267861D01*
Y504411D01*
X264671D01*
Y504518D01*
X264458D01*
Y504624D01*
X264352D01*
Y504730D01*
X264245D01*
Y504943D01*
X264139D01*
Y505368D01*
X264032D01*
Y505687D01*
X264139D01*
Y506432D01*
X264245D01*
Y506857D01*
X264352D01*
Y507282D01*
X264458D01*
Y507495D01*
X264564D01*
Y507708D01*
X264671D01*
Y507920D01*
X264777D01*
Y508133D01*
X264883D01*
Y508239D01*
X264989D01*
Y508346D01*
X265096D01*
Y508452D01*
X265202D01*
Y508558D01*
X265308D01*
Y508665D01*
X265415D01*
Y508771D01*
X265521D01*
Y508877D01*
X265627D01*
Y508984D01*
X265840D01*
Y509090D01*
X266053D01*
Y509196D01*
X266372D01*
Y509303D01*
X266797D01*
Y509409D01*
X268498D01*
Y509303D01*
D02*
G37*
G36*
X243829D02*
X244254D01*
Y509196D01*
X244467D01*
Y509090D01*
X244680D01*
Y508984D01*
X244893D01*
Y508877D01*
X244999D01*
Y508771D01*
X245212D01*
Y508665D01*
X245318D01*
Y508558D01*
X245424D01*
Y508452D01*
X245530D01*
Y508346D01*
X245637D01*
Y508133D01*
X245743D01*
Y508027D01*
X245849D01*
Y507814D01*
X245956D01*
Y507601D01*
X246062D01*
Y507389D01*
X246168D01*
Y507176D01*
X246275D01*
Y506857D01*
X246381D01*
Y506432D01*
X246488D01*
Y505687D01*
X246594D01*
Y504624D01*
X246488D01*
Y503880D01*
X246381D01*
Y503454D01*
X246275D01*
Y503135D01*
X246168D01*
Y502816D01*
X246062D01*
Y502604D01*
X245956D01*
Y502391D01*
X245849D01*
Y502285D01*
X245743D01*
Y502072D01*
X245637D01*
Y501966D01*
X245530D01*
Y501859D01*
X245424D01*
Y501753D01*
X245318D01*
Y501647D01*
X245212D01*
Y501540D01*
X245105D01*
Y501434D01*
X244999D01*
Y501328D01*
X244786D01*
Y501221D01*
X244573D01*
Y501115D01*
X244254D01*
Y501009D01*
X243936D01*
Y500902D01*
X242022D01*
Y501009D01*
X241596D01*
Y501115D01*
X241277D01*
Y501221D01*
X241064D01*
Y501328D01*
X240852D01*
Y501434D01*
X240746D01*
Y501647D01*
X240639D01*
Y501966D01*
X240533D01*
Y502604D01*
X240639D01*
Y502923D01*
X240746D01*
Y503135D01*
X240852D01*
Y503242D01*
X240958D01*
Y503348D01*
X241277D01*
Y503454D01*
X241702D01*
Y503348D01*
X241915D01*
Y503242D01*
X242022D01*
Y503135D01*
X242128D01*
Y503029D01*
X242234D01*
Y502923D01*
X242447D01*
Y502816D01*
X242659D01*
Y502710D01*
X243191D01*
Y502816D01*
X243404D01*
Y502923D01*
X243617D01*
Y503135D01*
X243723D01*
Y503242D01*
X243829D01*
Y503454D01*
X243936D01*
Y503667D01*
X244042D01*
Y504305D01*
X244148D01*
Y506006D01*
X244042D01*
Y506644D01*
X243936D01*
Y506857D01*
X243829D01*
Y507070D01*
X243723D01*
Y507282D01*
X243617D01*
Y507389D01*
X243404D01*
Y507495D01*
X243191D01*
Y507601D01*
X242659D01*
Y507495D01*
X242447D01*
Y507389D01*
X242341D01*
Y507282D01*
X242234D01*
Y507176D01*
X242128D01*
Y506963D01*
X242022D01*
Y506751D01*
X241915D01*
Y506219D01*
X241809D01*
Y505900D01*
X243191D01*
Y505794D01*
X243298D01*
Y505687D01*
X243404D01*
Y505581D01*
X243510D01*
Y505368D01*
X243617D01*
Y504943D01*
X243510D01*
Y504730D01*
X243404D01*
Y504624D01*
X243298D01*
Y504518D01*
X243191D01*
Y504411D01*
X240001D01*
Y504518D01*
X239788D01*
Y504624D01*
X239682D01*
Y504730D01*
X239576D01*
Y504943D01*
X239470D01*
Y505368D01*
X239363D01*
Y505687D01*
X239470D01*
Y506432D01*
X239576D01*
Y506857D01*
X239682D01*
Y507282D01*
X239788D01*
Y507495D01*
X239895D01*
Y507708D01*
X240001D01*
Y507920D01*
X240107D01*
Y508133D01*
X240214D01*
Y508239D01*
X240320D01*
Y508346D01*
X240427D01*
Y508452D01*
X240533D01*
Y508558D01*
X240639D01*
Y508665D01*
X240746D01*
Y508771D01*
X240852D01*
Y508877D01*
X240958D01*
Y508984D01*
X241171D01*
Y509090D01*
X241383D01*
Y509196D01*
X241702D01*
Y509303D01*
X242128D01*
Y509409D01*
X243829D01*
Y509303D01*
D02*
G37*
G36*
X234578Y509196D02*
X234791D01*
Y509090D01*
X234897D01*
Y508984D01*
X235004D01*
Y508877D01*
X235110D01*
Y508771D01*
X235216D01*
Y508665D01*
X235322D01*
Y508452D01*
X235429D01*
Y508239D01*
X235535D01*
Y508027D01*
X235641D01*
Y508452D01*
X235748D01*
Y508665D01*
X235854D01*
Y508877D01*
X235961D01*
Y508984D01*
X236173D01*
Y509090D01*
X236386D01*
Y509196D01*
X237236D01*
Y509090D01*
X237449D01*
Y508984D01*
X237556D01*
Y508877D01*
X237662D01*
Y508771D01*
X237768D01*
Y508558D01*
X237875D01*
Y508239D01*
X237981D01*
Y501753D01*
X237875D01*
Y501328D01*
X237768D01*
Y501115D01*
X237662D01*
Y501009D01*
X237556D01*
Y500902D01*
X237343D01*
Y500796D01*
X236067D01*
Y500902D01*
X235854D01*
Y501009D01*
X235748D01*
Y501115D01*
X235641D01*
Y501328D01*
X235535D01*
Y501753D01*
X235429D01*
Y502923D01*
Y503029D01*
Y505262D01*
X235322D01*
Y505900D01*
X235216D01*
Y506219D01*
X235110D01*
Y506432D01*
X235004D01*
Y506538D01*
X234897D01*
Y506644D01*
X234791D01*
Y506751D01*
X234578D01*
Y506857D01*
X234153D01*
Y506751D01*
X233940D01*
Y506644D01*
X233621D01*
Y506963D01*
X233515D01*
Y507282D01*
X233409D01*
Y507601D01*
X233302D01*
Y507920D01*
X233196D01*
Y508239D01*
X233090D01*
Y508558D01*
X232983D01*
Y508984D01*
X233196D01*
Y509090D01*
X233409D01*
Y509196D01*
X233727D01*
Y509303D01*
X234578D01*
Y509196D01*
D02*
G37*
G36*
X284767D02*
X285193D01*
Y509090D01*
X285406D01*
Y508984D01*
X285618D01*
Y508877D01*
X285831D01*
Y508771D01*
X285937D01*
Y508665D01*
X286043D01*
Y508558D01*
X286150D01*
Y508452D01*
X286256D01*
Y508346D01*
X286362D01*
Y508133D01*
X286469D01*
Y508027D01*
X286575D01*
Y507708D01*
X286681D01*
Y507389D01*
X286788D01*
Y506113D01*
X286681D01*
Y505687D01*
X286575D01*
Y505475D01*
X286469D01*
Y505262D01*
X286362D01*
Y505156D01*
X286256D01*
Y505049D01*
X286150D01*
Y504837D01*
X286043D01*
Y504730D01*
X285831D01*
Y504624D01*
X285725D01*
Y504518D01*
X285512D01*
Y504411D01*
X285193D01*
Y504305D01*
X284874D01*
Y504199D01*
X284449D01*
Y504092D01*
X284130D01*
Y503986D01*
X283598D01*
Y503880D01*
X283279D01*
Y503773D01*
X282960D01*
Y503667D01*
X282854D01*
Y503561D01*
X282747D01*
Y503348D01*
X282641D01*
Y503029D01*
X282747D01*
Y502816D01*
X282854D01*
Y502604D01*
X283066D01*
Y502497D01*
X283279D01*
Y502391D01*
X283917D01*
Y502497D01*
X284130D01*
Y502604D01*
X284236D01*
Y502710D01*
X284342D01*
Y502816D01*
X284449D01*
Y502923D01*
X284555D01*
Y503135D01*
X284661D01*
Y503242D01*
X284767D01*
Y503348D01*
X285831D01*
Y503242D01*
X286043D01*
Y503135D01*
X286150D01*
Y503029D01*
X286256D01*
Y502816D01*
X286362D01*
Y502497D01*
X286469D01*
Y502391D01*
Y502285D01*
Y501859D01*
X286362D01*
Y501540D01*
X286256D01*
Y501434D01*
X286150D01*
Y501328D01*
X286043D01*
Y501221D01*
X285937D01*
Y501115D01*
X285725D01*
Y501009D01*
X285512D01*
Y500902D01*
X285193D01*
Y500796D01*
X284767D01*
Y500690D01*
X282747D01*
Y500796D01*
X282322D01*
Y500902D01*
X282003D01*
Y501009D01*
X281790D01*
Y501115D01*
X281684D01*
Y501221D01*
X281471D01*
Y501328D01*
X281365D01*
Y501434D01*
X281259D01*
Y501540D01*
X281152D01*
Y501647D01*
X281046D01*
Y501753D01*
X280940D01*
Y501966D01*
X280833D01*
Y502178D01*
X280727D01*
Y502391D01*
X280620D01*
Y502710D01*
X280514D01*
Y504305D01*
X280620D01*
Y504624D01*
X280727D01*
Y504837D01*
X280833D01*
Y505049D01*
X280940D01*
Y505156D01*
X281046D01*
Y505262D01*
X281152D01*
Y505368D01*
X281259D01*
Y505475D01*
X281365D01*
Y505581D01*
X281471D01*
Y505687D01*
X281684D01*
Y505794D01*
X281896D01*
Y505900D01*
X282215D01*
Y506006D01*
X282535D01*
Y506113D01*
X283066D01*
Y506219D01*
X283598D01*
Y506325D01*
X284130D01*
Y506432D01*
X284342D01*
Y506538D01*
X284555D01*
Y506751D01*
X284661D01*
Y507176D01*
X284555D01*
Y507389D01*
X284449D01*
Y507495D01*
X284236D01*
Y507601D01*
X283598D01*
Y507495D01*
X283385D01*
Y507389D01*
X283279D01*
Y507282D01*
X283172D01*
Y507176D01*
X283066D01*
Y507070D01*
X282960D01*
Y506963D01*
X282854D01*
Y506857D01*
X282109D01*
Y506963D01*
X281896D01*
Y507070D01*
X281790D01*
Y507282D01*
X281684D01*
Y507495D01*
X281577D01*
Y508452D01*
X281684D01*
Y508665D01*
X281790D01*
Y508877D01*
X281896D01*
Y508984D01*
X282003D01*
Y509090D01*
X282322D01*
Y509196D01*
X282747D01*
Y509303D01*
X284767D01*
Y509196D01*
D02*
G37*
G36*
X275623D02*
X275942D01*
Y509090D01*
X276154D01*
Y508984D01*
X276261D01*
Y508877D01*
X276367D01*
Y508771D01*
X276474D01*
Y508665D01*
X276580D01*
Y508558D01*
X276686D01*
Y508452D01*
X276793D01*
Y508239D01*
X276899D01*
Y508133D01*
X277111D01*
Y508558D01*
X277218D01*
Y508771D01*
X277324D01*
Y508877D01*
X277430D01*
Y508984D01*
X277537D01*
Y509090D01*
X278813D01*
Y508984D01*
X278919D01*
Y508877D01*
X279025D01*
Y508771D01*
X279132D01*
Y508558D01*
X279238D01*
Y508239D01*
X279345D01*
Y499626D01*
Y499520D01*
Y498669D01*
X279238D01*
Y498350D01*
X279132D01*
Y498138D01*
X279025D01*
Y498031D01*
X278919D01*
Y497925D01*
X278706D01*
Y497819D01*
X277430D01*
Y497925D01*
X277218D01*
Y498031D01*
X277111D01*
Y498244D01*
X277005D01*
Y498457D01*
X276899D01*
Y505581D01*
X276793D01*
Y506219D01*
X276686D01*
Y506432D01*
X276580D01*
Y506538D01*
X276474D01*
Y506751D01*
X276261D01*
Y506857D01*
X276048D01*
Y506963D01*
X275623D01*
Y506857D01*
X275410D01*
Y506751D01*
X275304D01*
Y506644D01*
X275198D01*
Y506432D01*
X275091D01*
Y506219D01*
X274985D01*
Y505794D01*
X274879D01*
Y504199D01*
X274985D01*
Y503773D01*
X275091D01*
Y503561D01*
X275198D01*
Y503348D01*
X275304D01*
Y503242D01*
X275410D01*
Y503135D01*
X275623D01*
Y503029D01*
X276048D01*
Y503135D01*
X276367D01*
Y501009D01*
X276154D01*
Y500902D01*
X275942D01*
Y500796D01*
X275623D01*
Y500690D01*
X274559D01*
Y500796D01*
X274240D01*
Y500902D01*
X274028D01*
Y501009D01*
X273815D01*
Y501115D01*
X273709D01*
Y501221D01*
X273603D01*
Y501328D01*
X273496D01*
Y501434D01*
X273390D01*
Y501540D01*
X273284D01*
Y501753D01*
X273177D01*
Y501859D01*
X273071D01*
Y502072D01*
X272964D01*
Y502285D01*
X272858D01*
Y502604D01*
X272752D01*
Y502923D01*
X272645D01*
Y503454D01*
X272539D01*
Y504305D01*
X272433D01*
Y505475D01*
X272539D01*
Y506325D01*
X272645D01*
Y506857D01*
X272752D01*
Y507176D01*
X272858D01*
Y507495D01*
X272964D01*
Y507814D01*
X273071D01*
Y508027D01*
X273177D01*
Y508239D01*
X273284D01*
Y508346D01*
X273390D01*
Y508452D01*
X273496D01*
Y508665D01*
X273603D01*
Y508771D01*
X273709D01*
Y508877D01*
X273922D01*
Y508984D01*
X274028D01*
Y509090D01*
X274240D01*
Y509196D01*
X274559D01*
Y509303D01*
X275623D01*
Y509196D01*
D02*
G37*
G36*
X280442Y402054D02*
X280867D01*
Y401947D01*
X281080D01*
Y401841D01*
X281292D01*
Y401735D01*
X281399D01*
Y401628D01*
X281505D01*
Y401522D01*
X281718D01*
Y401416D01*
X281824D01*
Y401203D01*
X281930D01*
Y401097D01*
X282037D01*
Y400884D01*
X282143D01*
Y400565D01*
X282249D01*
Y400246D01*
X282356D01*
Y399821D01*
X282462D01*
Y399502D01*
X282568D01*
Y398970D01*
X282675D01*
Y398651D01*
X282781D01*
Y398332D01*
X282887D01*
Y398226D01*
X282994D01*
Y398119D01*
X283206D01*
Y398013D01*
X283525D01*
Y398119D01*
X283738D01*
Y398226D01*
X283951D01*
Y398438D01*
X284057D01*
Y398651D01*
X284163D01*
Y399289D01*
X284057D01*
Y399502D01*
X283951D01*
Y399608D01*
X283844D01*
Y399714D01*
X283738D01*
Y399821D01*
X283632D01*
Y399927D01*
X283419D01*
Y400033D01*
X283313D01*
Y400140D01*
X283206D01*
Y401203D01*
X283313D01*
Y401416D01*
X283419D01*
Y401522D01*
X283525D01*
Y401628D01*
X283738D01*
Y401735D01*
X284057D01*
Y401841D01*
X284695D01*
Y401735D01*
X285014D01*
Y401628D01*
X285120D01*
Y401522D01*
X285227D01*
Y401416D01*
X285333D01*
Y401309D01*
X285439D01*
Y401097D01*
X285546D01*
Y400884D01*
X285652D01*
Y400565D01*
X285758D01*
Y400140D01*
X285865D01*
Y398119D01*
X285758D01*
Y397694D01*
X285652D01*
Y397375D01*
X285546D01*
Y397162D01*
X285439D01*
Y397056D01*
X285333D01*
Y396843D01*
X285227D01*
Y396737D01*
X285120D01*
Y396631D01*
X285014D01*
Y396524D01*
X284908D01*
Y396418D01*
X284801D01*
Y396312D01*
X284589D01*
Y396205D01*
X284376D01*
Y396099D01*
X284163D01*
Y395993D01*
X283844D01*
Y395886D01*
X282249D01*
Y395993D01*
X281930D01*
Y396099D01*
X281718D01*
Y396205D01*
X281505D01*
Y396312D01*
X281399D01*
Y396418D01*
X281292D01*
Y396524D01*
X281186D01*
Y396631D01*
X281080D01*
Y396737D01*
X280973D01*
Y396843D01*
X280867D01*
Y397056D01*
X280761D01*
Y397269D01*
X280654D01*
Y397588D01*
X280548D01*
Y397907D01*
X280442D01*
Y398438D01*
X280335D01*
Y398970D01*
X280229D01*
Y399502D01*
X280123D01*
Y399714D01*
X280016D01*
Y399927D01*
X279804D01*
Y400033D01*
X279378D01*
Y399927D01*
X279166D01*
Y399821D01*
X279059D01*
Y399608D01*
X278953D01*
Y398970D01*
X279059D01*
Y398757D01*
X279166D01*
Y398651D01*
X279272D01*
Y398545D01*
X279378D01*
Y398438D01*
X279485D01*
Y398332D01*
X279591D01*
Y398226D01*
X279697D01*
Y397481D01*
X279591D01*
Y397269D01*
X279485D01*
Y397162D01*
X279272D01*
Y397056D01*
X279059D01*
Y396950D01*
X278102D01*
Y397056D01*
X277890D01*
Y397162D01*
X277677D01*
Y397269D01*
X277571D01*
Y397375D01*
X277464D01*
Y397694D01*
X277358D01*
Y398119D01*
X277252D01*
Y400140D01*
X277358D01*
Y400565D01*
X277464D01*
Y400778D01*
X277571D01*
Y400990D01*
X277677D01*
Y401203D01*
X277783D01*
Y401309D01*
X277890D01*
Y401416D01*
X277996D01*
Y401522D01*
X278102D01*
Y401628D01*
X278209D01*
Y401735D01*
X278421D01*
Y401841D01*
X278528D01*
Y401947D01*
X278847D01*
Y402054D01*
X279166D01*
Y402160D01*
X280442D01*
Y402054D01*
D02*
G37*
G36*
X281930Y394610D02*
X282675D01*
Y394504D01*
X283100D01*
Y394398D01*
X283419D01*
Y394291D01*
X283738D01*
Y394185D01*
X283951D01*
Y394079D01*
X284163D01*
Y393972D01*
X284270D01*
Y393866D01*
X284482D01*
Y393760D01*
X284589D01*
Y393653D01*
X284695D01*
Y393547D01*
X284801D01*
Y393441D01*
X284908D01*
Y393334D01*
X285014D01*
Y393228D01*
X285120D01*
Y393122D01*
X285227D01*
Y392909D01*
X285333D01*
Y392696D01*
X285439D01*
Y392377D01*
X285546D01*
Y392058D01*
X285652D01*
Y390144D01*
X285546D01*
Y389719D01*
X285439D01*
Y389400D01*
X285333D01*
Y389187D01*
X285227D01*
Y388975D01*
X285120D01*
Y388868D01*
X284908D01*
Y388762D01*
X284589D01*
Y388656D01*
X283951D01*
Y388762D01*
X283632D01*
Y388868D01*
X283419D01*
Y388975D01*
X283313D01*
Y389081D01*
X283206D01*
Y389400D01*
X283100D01*
Y389825D01*
X283206D01*
Y390038D01*
X283313D01*
Y390144D01*
X283419D01*
Y390251D01*
X283525D01*
Y390357D01*
X283632D01*
Y390570D01*
X283738D01*
Y390782D01*
X283844D01*
Y391314D01*
X283738D01*
Y391527D01*
X283632D01*
Y391739D01*
X283419D01*
Y391846D01*
X283313D01*
Y391952D01*
X283100D01*
Y392058D01*
X282887D01*
Y392165D01*
X282249D01*
Y392271D01*
X280548D01*
Y392165D01*
X279910D01*
Y392058D01*
X279697D01*
Y391952D01*
X279485D01*
Y391846D01*
X279272D01*
Y391739D01*
X279166D01*
Y391527D01*
X279059D01*
Y391314D01*
X278953D01*
Y390782D01*
X279059D01*
Y390570D01*
X279166D01*
Y390463D01*
X279272D01*
Y390357D01*
X279378D01*
Y390251D01*
X279591D01*
Y390144D01*
X279804D01*
Y390038D01*
X280335D01*
Y389932D01*
X280654D01*
Y391314D01*
X280761D01*
Y391420D01*
X280867D01*
Y391527D01*
X280973D01*
Y391633D01*
X281186D01*
Y391739D01*
X281611D01*
Y391633D01*
X281824D01*
Y391527D01*
X281930D01*
Y391420D01*
X282037D01*
Y391314D01*
X282143D01*
Y388124D01*
X282037D01*
Y387911D01*
X281930D01*
Y387805D01*
X281824D01*
Y387699D01*
X281611D01*
Y387592D01*
X281186D01*
Y387486D01*
X280867D01*
Y387592D01*
X280123D01*
Y387699D01*
X279697D01*
Y387805D01*
X279272D01*
Y387911D01*
X279059D01*
Y388018D01*
X278847D01*
Y388124D01*
X278634D01*
Y388230D01*
X278421D01*
Y388337D01*
X278315D01*
Y388443D01*
X278209D01*
Y388549D01*
X278102D01*
Y388656D01*
X277996D01*
Y388762D01*
X277890D01*
Y388868D01*
X277783D01*
Y388975D01*
X277677D01*
Y389081D01*
X277571D01*
Y389294D01*
X277464D01*
Y389506D01*
X277358D01*
Y389825D01*
X277252D01*
Y390251D01*
X277145D01*
Y390570D01*
Y390676D01*
Y391952D01*
X277252D01*
Y392377D01*
X277358D01*
Y392590D01*
X277464D01*
Y392803D01*
X277571D01*
Y393015D01*
X277677D01*
Y393122D01*
X277783D01*
Y393334D01*
X277890D01*
Y393441D01*
X277996D01*
Y393547D01*
X278102D01*
Y393653D01*
X278209D01*
Y393760D01*
X278421D01*
Y393866D01*
X278528D01*
Y393972D01*
X278740D01*
Y394079D01*
X278953D01*
Y394185D01*
X279166D01*
Y394291D01*
X279378D01*
Y394398D01*
X279697D01*
Y394504D01*
X280123D01*
Y394610D01*
X280867D01*
Y394717D01*
X281930D01*
Y394610D01*
D02*
G37*
G36*
X259009Y396528D02*
X259859D01*
Y396422D01*
X260285D01*
Y396315D01*
X260604D01*
Y396209D01*
X260816D01*
Y396103D01*
X261135D01*
Y395996D01*
X261348D01*
Y395890D01*
X261454D01*
Y395784D01*
X261667D01*
Y395677D01*
X261880D01*
Y395571D01*
X261986D01*
Y395465D01*
X262092D01*
Y395358D01*
X262199D01*
Y395252D01*
X262411D01*
Y395146D01*
X262518D01*
Y395039D01*
X262624D01*
Y394933D01*
X262730D01*
Y394827D01*
X262837D01*
Y394614D01*
X262943D01*
Y394508D01*
X263049D01*
Y394401D01*
X263156D01*
Y394295D01*
X263262D01*
Y394082D01*
X263368D01*
Y393976D01*
X263475D01*
Y393763D01*
X263581D01*
Y393551D01*
X263687D01*
Y393338D01*
X263794D01*
Y393019D01*
X263900D01*
Y392700D01*
X264006D01*
Y392381D01*
X264113D01*
Y391849D01*
X264219D01*
Y390361D01*
X264113D01*
Y389829D01*
X264006D01*
Y389404D01*
X263900D01*
Y389085D01*
X263794D01*
Y388872D01*
X263687D01*
Y388659D01*
X263581D01*
Y388447D01*
X263475D01*
Y388234D01*
X263368D01*
Y388128D01*
X263262D01*
Y387915D01*
X263156D01*
Y387809D01*
X263049D01*
Y387596D01*
X262943D01*
Y387490D01*
X262837D01*
Y387383D01*
X262730D01*
Y387277D01*
X262624D01*
Y387171D01*
X262518D01*
Y387064D01*
X262411D01*
Y386958D01*
X262305D01*
Y386852D01*
X262199D01*
Y386745D01*
X261986D01*
Y386639D01*
X261880D01*
Y386533D01*
X261667D01*
Y386426D01*
X261561D01*
Y386320D01*
X261348D01*
Y386214D01*
X261135D01*
Y386107D01*
X260923D01*
Y386001D01*
X260604D01*
Y385895D01*
X260285D01*
Y385788D01*
X259966D01*
Y385682D01*
X259328D01*
Y385576D01*
X258052D01*
Y385682D01*
X257520D01*
Y385788D01*
X257095D01*
Y385895D01*
X256776D01*
Y386001D01*
X256563D01*
Y386107D01*
X256244D01*
Y386214D01*
X256031D01*
Y386320D01*
X255925D01*
Y386426D01*
X255712D01*
Y386533D01*
X255606D01*
Y386639D01*
X255393D01*
Y386745D01*
X255287D01*
Y386852D01*
X255181D01*
Y386958D01*
X255074D01*
Y387064D01*
X254968D01*
Y387171D01*
X254862D01*
Y387277D01*
X254755D01*
Y387383D01*
X254649D01*
Y387490D01*
X254543D01*
Y387596D01*
X254436D01*
Y387702D01*
X254330D01*
Y387809D01*
X254224D01*
Y388021D01*
X254117D01*
Y388128D01*
X254011D01*
Y388340D01*
X253905D01*
Y388553D01*
X253798D01*
Y388766D01*
X253692D01*
Y388978D01*
X253586D01*
Y389297D01*
X253479D01*
Y389616D01*
X253373D01*
Y390042D01*
X253267D01*
Y392168D01*
X253373D01*
Y392594D01*
X253479D01*
Y392913D01*
X253586D01*
Y393232D01*
X253692D01*
Y393444D01*
X253798D01*
Y393657D01*
X253905D01*
Y393870D01*
X254011D01*
Y393976D01*
X254117D01*
Y394189D01*
X254224D01*
Y394295D01*
X254330D01*
Y394508D01*
X254436D01*
Y394614D01*
X254543D01*
Y394720D01*
X254649D01*
Y394827D01*
X254755D01*
Y394933D01*
X254862D01*
Y395039D01*
X254968D01*
Y395146D01*
X255074D01*
Y395252D01*
X255181D01*
Y395358D01*
X255287D01*
Y395465D01*
X255500D01*
Y395571D01*
X255606D01*
Y395677D01*
X255712D01*
Y395784D01*
X255925D01*
Y395890D01*
X256138D01*
Y395996D01*
X256350D01*
Y396103D01*
X256563D01*
Y396209D01*
X256882D01*
Y396315D01*
X257201D01*
Y396422D01*
X257626D01*
Y396528D01*
X258371D01*
Y396634D01*
X259009D01*
Y396528D01*
D02*
G37*
G36*
X284801Y386104D02*
X285227D01*
Y385997D01*
X285439D01*
Y385891D01*
X285546D01*
Y385785D01*
X285652D01*
Y385572D01*
X285758D01*
Y384296D01*
X285652D01*
Y384083D01*
X285546D01*
Y383977D01*
X285439D01*
Y383871D01*
X285227D01*
Y383764D01*
X284801D01*
Y383658D01*
X281292D01*
Y383552D01*
X280654D01*
Y383445D01*
X280335D01*
Y383339D01*
X280123D01*
Y383233D01*
X280016D01*
Y383126D01*
X279910D01*
Y383020D01*
X279804D01*
Y382807D01*
X279697D01*
Y382382D01*
X279804D01*
Y382169D01*
X279910D01*
Y381850D01*
X279591D01*
Y381744D01*
X279272D01*
Y381638D01*
X278953D01*
Y381531D01*
X278634D01*
Y381425D01*
X278315D01*
Y381319D01*
X277996D01*
Y381212D01*
X277571D01*
Y381425D01*
X277464D01*
Y381638D01*
X277358D01*
Y381957D01*
X277252D01*
Y382807D01*
X277358D01*
Y383020D01*
X277464D01*
Y383126D01*
X277571D01*
Y383233D01*
X277677D01*
Y383339D01*
X277783D01*
Y383445D01*
X277890D01*
Y383552D01*
X278102D01*
Y383658D01*
X278315D01*
Y383764D01*
X278528D01*
Y383871D01*
X278102D01*
Y383977D01*
X277890D01*
Y384083D01*
X277677D01*
Y384190D01*
X277571D01*
Y384402D01*
X277464D01*
Y384615D01*
X277358D01*
Y385466D01*
X277464D01*
Y385678D01*
X277571D01*
Y385785D01*
X277677D01*
Y385891D01*
X277783D01*
Y385997D01*
X277996D01*
Y386104D01*
X278315D01*
Y386210D01*
X284801D01*
Y386104D01*
D02*
G37*
G36*
X278634Y380255D02*
X278953D01*
Y380149D01*
X279272D01*
Y380043D01*
X279697D01*
Y379936D01*
X280016D01*
Y379830D01*
X280335D01*
Y379724D01*
X280654D01*
Y379617D01*
X280973D01*
Y379511D01*
X281399D01*
Y379405D01*
X281718D01*
Y379298D01*
X282037D01*
Y379192D01*
X282356D01*
Y379086D01*
X282781D01*
Y378979D01*
X283100D01*
Y378873D01*
X283419D01*
Y378767D01*
X283738D01*
Y378660D01*
X284057D01*
Y378554D01*
X284482D01*
Y378448D01*
X284801D01*
Y378341D01*
X285120D01*
Y378235D01*
X285439D01*
Y378129D01*
X285652D01*
Y378022D01*
X285758D01*
Y377916D01*
X285865D01*
Y376002D01*
X285758D01*
Y375896D01*
X285652D01*
Y375789D01*
X285546D01*
Y375683D01*
X285227D01*
Y375577D01*
X284908D01*
Y375470D01*
X284589D01*
Y375364D01*
X284270D01*
Y375258D01*
X283844D01*
Y375151D01*
X283525D01*
Y375045D01*
X283206D01*
Y374939D01*
X282887D01*
Y374832D01*
X282568D01*
Y374726D01*
X282249D01*
Y374620D01*
X281930D01*
Y374513D01*
X281505D01*
Y374407D01*
X281186D01*
Y374301D01*
X280867D01*
Y374194D01*
X280548D01*
Y374088D01*
X280229D01*
Y373982D01*
X279910D01*
Y373875D01*
X279591D01*
Y373769D01*
X279166D01*
Y373663D01*
X278847D01*
Y373556D01*
X278528D01*
Y373450D01*
X277890D01*
Y373556D01*
X277677D01*
Y373663D01*
X277464D01*
Y373769D01*
X277358D01*
Y373875D01*
X277252D01*
Y375364D01*
X277358D01*
Y375470D01*
X277464D01*
Y375577D01*
X277571D01*
Y375683D01*
X277783D01*
Y375789D01*
X278209D01*
Y375896D01*
X278634D01*
Y376002D01*
X279059D01*
Y376108D01*
X279485D01*
Y376215D01*
X280016D01*
Y376321D01*
X280442D01*
Y376427D01*
X280867D01*
Y376534D01*
X281292D01*
Y376640D01*
X281718D01*
Y376746D01*
X282249D01*
Y376853D01*
X282568D01*
Y376959D01*
X282143D01*
Y377065D01*
X281611D01*
Y377172D01*
X281186D01*
Y377278D01*
X280761D01*
Y377384D01*
X280229D01*
Y377491D01*
X279804D01*
Y377597D01*
X279272D01*
Y377703D01*
X278847D01*
Y377810D01*
X278421D01*
Y377916D01*
X277890D01*
Y378022D01*
X277677D01*
Y378129D01*
X277464D01*
Y378235D01*
X277358D01*
Y378341D01*
X277252D01*
Y379936D01*
X277358D01*
Y380043D01*
X277464D01*
Y380149D01*
X277571D01*
Y380255D01*
X277783D01*
Y380362D01*
X278634D01*
Y380255D01*
D02*
G37*
G36*
X281930Y372493D02*
X282675D01*
Y372387D01*
X283100D01*
Y372280D01*
X283419D01*
Y372174D01*
X283738D01*
Y372068D01*
X283951D01*
Y371961D01*
X284163D01*
Y371855D01*
X284270D01*
Y371749D01*
X284482D01*
Y371642D01*
X284589D01*
Y371536D01*
X284695D01*
Y371430D01*
X284801D01*
Y371323D01*
X284908D01*
Y371217D01*
X285014D01*
Y371111D01*
X285120D01*
Y371004D01*
X285227D01*
Y370792D01*
X285333D01*
Y370685D01*
X285439D01*
Y370473D01*
X285546D01*
Y370154D01*
X285652D01*
Y369835D01*
X285758D01*
Y369303D01*
X283525D01*
Y369409D01*
X283419D01*
Y369622D01*
X283313D01*
Y369728D01*
X283100D01*
Y369835D01*
X282887D01*
Y369941D01*
X282675D01*
Y370047D01*
X282143D01*
Y370154D01*
X280654D01*
Y370047D01*
X280229D01*
Y369941D01*
X280016D01*
Y369835D01*
X279804D01*
Y369728D01*
X279591D01*
Y369622D01*
X279485D01*
Y369409D01*
X279378D01*
Y369197D01*
X279272D01*
Y368771D01*
X279378D01*
Y368559D01*
X279485D01*
Y368346D01*
X279697D01*
Y368240D01*
X279804D01*
Y368133D01*
X280016D01*
Y368027D01*
X280335D01*
Y367921D01*
X280973D01*
Y367814D01*
X281824D01*
Y367921D01*
X282568D01*
Y368027D01*
X282887D01*
Y368133D01*
X283100D01*
Y368240D01*
X283206D01*
Y368346D01*
X283313D01*
Y368452D01*
X283419D01*
Y368559D01*
X283525D01*
Y368665D01*
X283632D01*
Y368771D01*
X285758D01*
Y368133D01*
X285652D01*
Y367814D01*
X285546D01*
Y367495D01*
X285439D01*
Y367283D01*
X285333D01*
Y367176D01*
X285227D01*
Y366964D01*
X285120D01*
Y366857D01*
X285014D01*
Y366751D01*
X284908D01*
Y366645D01*
X284801D01*
Y366538D01*
X284695D01*
Y366432D01*
X284589D01*
Y366326D01*
X284482D01*
Y366219D01*
X284270D01*
Y366113D01*
X284057D01*
Y366007D01*
X283951D01*
Y365900D01*
X283632D01*
Y365794D01*
X283419D01*
Y365688D01*
X283100D01*
Y365581D01*
X282568D01*
Y365475D01*
X280229D01*
Y365581D01*
X279804D01*
Y365688D01*
X279485D01*
Y365794D01*
X279166D01*
Y365900D01*
X278953D01*
Y366007D01*
X278740D01*
Y366113D01*
X278634D01*
Y366219D01*
X278421D01*
Y366326D01*
X278315D01*
Y366432D01*
X278209D01*
Y366538D01*
X278102D01*
Y366645D01*
X277996D01*
Y366751D01*
X277890D01*
Y366857D01*
X277783D01*
Y366964D01*
X277677D01*
Y367176D01*
X277571D01*
Y367283D01*
X277464D01*
Y367495D01*
X277358D01*
Y367814D01*
X277252D01*
Y368240D01*
X277145D01*
Y369728D01*
X277252D01*
Y370154D01*
X277358D01*
Y370473D01*
X277464D01*
Y370685D01*
X277571D01*
Y370792D01*
X277677D01*
Y371004D01*
X277783D01*
Y371111D01*
X277890D01*
Y371217D01*
X277996D01*
Y371323D01*
X278102D01*
Y371430D01*
X278209D01*
Y371536D01*
X278315D01*
Y371642D01*
X278528D01*
Y371749D01*
X278634D01*
Y371855D01*
X278847D01*
Y371961D01*
X278953D01*
Y372068D01*
X279272D01*
Y372174D01*
X279485D01*
Y372280D01*
X279804D01*
Y372387D01*
X280229D01*
Y372493D01*
X280973D01*
Y372599D01*
X281930D01*
Y372493D01*
D02*
G37*
G36*
X39112Y82514D02*
X39431D01*
Y82408D01*
X39537D01*
Y82302D01*
X39643D01*
Y82195D01*
X39750D01*
Y82089D01*
X39856D01*
Y80919D01*
X39750D01*
Y80707D01*
X39643D01*
Y80600D01*
X39431D01*
Y80494D01*
X39218D01*
Y80388D01*
X38793D01*
Y80281D01*
X39005D01*
Y80175D01*
X39112D01*
Y80069D01*
X39324D01*
Y79962D01*
X39431D01*
Y79856D01*
X39537D01*
Y79750D01*
X39643D01*
Y79643D01*
X39750D01*
Y79431D01*
X39856D01*
Y79218D01*
X39962D01*
Y79005D01*
X40069D01*
Y77942D01*
X39962D01*
Y77623D01*
X39856D01*
Y77410D01*
X39750D01*
Y77198D01*
X39643D01*
Y77091D01*
X39537D01*
Y76985D01*
X39431D01*
Y76879D01*
X39324D01*
Y76772D01*
X39218D01*
Y76666D01*
X39005D01*
Y76560D01*
X38899D01*
Y76453D01*
X38686D01*
Y76347D01*
X38367D01*
Y76241D01*
X38155D01*
Y76134D01*
X37836D01*
Y76028D01*
X37410D01*
Y75922D01*
X36666D01*
Y75815D01*
X34752D01*
Y75922D01*
X34114D01*
Y76028D01*
X33689D01*
Y76134D01*
X33370D01*
Y76241D01*
X33051D01*
Y76347D01*
X32838D01*
Y76453D01*
X32732D01*
Y76560D01*
X32519D01*
Y76666D01*
X32413D01*
Y76772D01*
X32306D01*
Y76879D01*
X32200D01*
Y76985D01*
X32094D01*
Y77091D01*
X31987D01*
Y77198D01*
X31881D01*
Y77410D01*
X31775D01*
Y77517D01*
X31668D01*
Y77836D01*
X31562D01*
Y79005D01*
X31668D01*
Y79324D01*
X31775D01*
Y79431D01*
X31881D01*
Y79537D01*
X31987D01*
Y79643D01*
X33582D01*
Y79537D01*
X33689D01*
Y79431D01*
X33795D01*
Y79324D01*
X33901D01*
Y78899D01*
X34008D01*
Y78686D01*
X34114D01*
Y78580D01*
X34327D01*
Y78474D01*
X34433D01*
Y78367D01*
X34752D01*
Y78261D01*
X36879D01*
Y78367D01*
X37198D01*
Y78474D01*
X37410D01*
Y78580D01*
X37517D01*
Y78686D01*
X37623D01*
Y78899D01*
X37729D01*
Y79537D01*
X37623D01*
Y79750D01*
X37517D01*
Y79856D01*
X37304D01*
Y79962D01*
X37198D01*
Y80069D01*
X36879D01*
Y80175D01*
X29542D01*
Y80281D01*
X29116D01*
Y80388D01*
X29010D01*
Y80494D01*
X28797D01*
Y80707D01*
X28691D01*
Y80919D01*
X28585D01*
Y81876D01*
X28691D01*
Y82195D01*
X28797D01*
Y82302D01*
X28904D01*
Y82408D01*
X29116D01*
Y82514D01*
X29435D01*
Y82621D01*
X39112D01*
Y82514D01*
D02*
G37*
G36*
X37517Y74433D02*
X38261D01*
Y74327D01*
X38686D01*
Y74220D01*
X38899D01*
Y74114D01*
X39112D01*
Y74008D01*
X39324D01*
Y73901D01*
X39431D01*
Y73795D01*
X39537D01*
Y73689D01*
X39643D01*
Y73582D01*
X39750D01*
Y73476D01*
X39856D01*
Y73370D01*
X39962D01*
Y73051D01*
X40069D01*
Y72732D01*
X40175D01*
Y71987D01*
X40069D01*
Y71562D01*
X39962D01*
Y71243D01*
X39856D01*
Y71137D01*
X39750D01*
Y70924D01*
X39643D01*
Y70818D01*
X39537D01*
Y70711D01*
X39431D01*
Y70605D01*
X39324D01*
Y70499D01*
X39112D01*
Y70392D01*
X39005D01*
Y70286D01*
X38899D01*
Y70180D01*
X38793D01*
Y70073D01*
X39218D01*
Y69967D01*
X39537D01*
Y69861D01*
X39643D01*
Y69754D01*
X39750D01*
Y69648D01*
X39856D01*
Y69435D01*
X39962D01*
Y68372D01*
X39856D01*
Y68266D01*
X39750D01*
Y68159D01*
X39643D01*
Y68053D01*
X39537D01*
Y67947D01*
X39324D01*
Y67840D01*
X32200D01*
Y67947D01*
X31987D01*
Y68053D01*
X31775D01*
Y68159D01*
X31668D01*
Y68372D01*
X31562D01*
Y69648D01*
X31668D01*
Y69861D01*
X31775D01*
Y69967D01*
X31881D01*
Y70073D01*
X32094D01*
Y70180D01*
X32413D01*
Y70286D01*
X36666D01*
Y70392D01*
X36985D01*
Y70499D01*
X37198D01*
Y70605D01*
X37304D01*
Y70711D01*
X37410D01*
Y70818D01*
X37517D01*
Y71030D01*
X37623D01*
Y71456D01*
X37517D01*
Y71668D01*
X37410D01*
Y71775D01*
X37304D01*
Y71881D01*
X37091D01*
Y71987D01*
X36241D01*
Y72094D01*
X32200D01*
Y72200D01*
X31987D01*
Y72306D01*
X31775D01*
Y72413D01*
X31668D01*
Y72625D01*
X31562D01*
Y73901D01*
X31668D01*
Y74114D01*
X31775D01*
Y74220D01*
X31881D01*
Y74327D01*
X32094D01*
Y74433D01*
X32413D01*
Y74539D01*
X37517D01*
Y74433D01*
D02*
G37*
G36*
X32838Y66564D02*
X33051D01*
Y66458D01*
X33263D01*
Y66352D01*
X33370D01*
Y66245D01*
X33476D01*
Y66139D01*
X33582D01*
Y65926D01*
X33689D01*
Y65714D01*
X38155D01*
Y65607D01*
X38686D01*
Y65501D01*
X39005D01*
Y65395D01*
X39218D01*
Y65288D01*
X39431D01*
Y65182D01*
X39537D01*
Y65076D01*
X39643D01*
Y64969D01*
X39750D01*
Y64863D01*
X39856D01*
Y64650D01*
X39962D01*
Y64225D01*
X40069D01*
Y62524D01*
X39962D01*
Y62311D01*
X39856D01*
Y62205D01*
X39750D01*
Y62098D01*
X39643D01*
Y61992D01*
X39431D01*
Y61886D01*
X39112D01*
Y61779D01*
X38474D01*
Y61886D01*
X37942D01*
Y61992D01*
X37729D01*
Y62205D01*
X37623D01*
Y62417D01*
X37729D01*
Y62843D01*
X37623D01*
Y63055D01*
X37410D01*
Y63162D01*
X33689D01*
Y62524D01*
X33582D01*
Y62311D01*
X33476D01*
Y62205D01*
X33370D01*
Y62098D01*
X33263D01*
Y61992D01*
X33051D01*
Y61886D01*
X32732D01*
Y61779D01*
X32200D01*
Y61886D01*
X31775D01*
Y61992D01*
X31562D01*
Y62098D01*
X31456D01*
Y62205D01*
X31349D01*
Y62311D01*
X31243D01*
Y63162D01*
X29329D01*
Y63268D01*
X29116D01*
Y63374D01*
X28904D01*
Y63481D01*
X28797D01*
Y63693D01*
X28691D01*
Y65288D01*
X28797D01*
Y65395D01*
X28904D01*
Y65501D01*
X29010D01*
Y65607D01*
X29223D01*
Y65714D01*
X31243D01*
Y66139D01*
X31349D01*
Y66245D01*
X31456D01*
Y66352D01*
X31562D01*
Y66458D01*
X31775D01*
Y66564D01*
X32094D01*
Y66671D01*
X32838D01*
Y66564D01*
D02*
G37*
G36*
Y60929D02*
X33051D01*
Y60822D01*
X33263D01*
Y60716D01*
X33370D01*
Y60610D01*
X33476D01*
Y60503D01*
X33582D01*
Y60291D01*
X33689D01*
Y60078D01*
X38155D01*
Y59972D01*
X38686D01*
Y59865D01*
X39005D01*
Y59759D01*
X39218D01*
Y59653D01*
X39431D01*
Y59546D01*
X39537D01*
Y59440D01*
X39643D01*
Y59334D01*
X39750D01*
Y59227D01*
X39856D01*
Y59015D01*
X39962D01*
Y58589D01*
X40069D01*
Y56888D01*
X39962D01*
Y56675D01*
X39856D01*
Y56569D01*
X39750D01*
Y56463D01*
X39643D01*
Y56356D01*
X39431D01*
Y56250D01*
X39112D01*
Y56144D01*
X38474D01*
Y56250D01*
X37942D01*
Y56356D01*
X37729D01*
Y56569D01*
X37623D01*
Y56782D01*
X37729D01*
Y57207D01*
X37623D01*
Y57420D01*
X37410D01*
Y57526D01*
X33689D01*
Y56888D01*
X33582D01*
Y56675D01*
X33476D01*
Y56569D01*
X33370D01*
Y56463D01*
X33263D01*
Y56356D01*
X33051D01*
Y56250D01*
X32732D01*
Y56144D01*
X32200D01*
Y56250D01*
X31775D01*
Y56356D01*
X31562D01*
Y56463D01*
X31456D01*
Y56569D01*
X31349D01*
Y56675D01*
X31243D01*
Y57526D01*
X29329D01*
Y57632D01*
X29116D01*
Y57739D01*
X28904D01*
Y57845D01*
X28797D01*
Y58058D01*
X28691D01*
Y59653D01*
X28797D01*
Y59759D01*
X28904D01*
Y59865D01*
X29010D01*
Y59972D01*
X29223D01*
Y60078D01*
X31243D01*
Y60503D01*
X31349D01*
Y60610D01*
X31456D01*
Y60716D01*
X31562D01*
Y60822D01*
X31775D01*
Y60929D01*
X32094D01*
Y61035D01*
X32838D01*
Y60929D01*
D02*
G37*
G36*
X36347Y55187D02*
X37091D01*
Y55080D01*
X37410D01*
Y54974D01*
X37729D01*
Y54868D01*
X38048D01*
Y54761D01*
X38261D01*
Y54655D01*
X38474D01*
Y54549D01*
X38580D01*
Y54442D01*
X38793D01*
Y54336D01*
X38899D01*
Y54230D01*
X39005D01*
Y54123D01*
X39112D01*
Y54017D01*
X39218D01*
Y53911D01*
X39324D01*
Y53804D01*
X39431D01*
Y53698D01*
X39537D01*
Y53485D01*
X39643D01*
Y53379D01*
X39750D01*
Y53060D01*
X39856D01*
Y52847D01*
X39962D01*
Y52422D01*
X40069D01*
Y51997D01*
X37836D01*
Y52103D01*
X37729D01*
Y52316D01*
X37623D01*
Y52422D01*
X37410D01*
Y52528D01*
X37304D01*
Y52635D01*
X37091D01*
Y52741D01*
X36560D01*
Y52847D01*
X34965D01*
Y52741D01*
X34539D01*
Y52635D01*
X34327D01*
Y52528D01*
X34114D01*
Y52422D01*
X34008D01*
Y52316D01*
X33901D01*
Y52209D01*
X33795D01*
Y51997D01*
X33689D01*
Y51359D01*
X33795D01*
Y51146D01*
X33901D01*
Y51040D01*
X34008D01*
Y50933D01*
X34114D01*
Y50827D01*
X34327D01*
Y50721D01*
X34646D01*
Y50614D01*
X35177D01*
Y50508D01*
X36347D01*
Y50614D01*
X36985D01*
Y50721D01*
X37198D01*
Y50827D01*
X37410D01*
Y50933D01*
X37623D01*
Y51040D01*
X37729D01*
Y51252D01*
X37836D01*
Y51359D01*
X40069D01*
Y51040D01*
X39962D01*
Y50614D01*
X39856D01*
Y50295D01*
X39750D01*
Y50083D01*
X39643D01*
Y49870D01*
X39537D01*
Y49657D01*
X39431D01*
Y49551D01*
X39324D01*
Y49445D01*
X39218D01*
Y49338D01*
X39112D01*
Y49232D01*
X39005D01*
Y49126D01*
X38899D01*
Y49019D01*
X38686D01*
Y48913D01*
X38580D01*
Y48807D01*
X38367D01*
Y48700D01*
X38155D01*
Y48594D01*
X37942D01*
Y48488D01*
X37729D01*
Y48381D01*
X37410D01*
Y48275D01*
X36879D01*
Y48169D01*
X34646D01*
Y48275D01*
X34114D01*
Y48381D01*
X33795D01*
Y48488D01*
X33582D01*
Y48594D01*
X33263D01*
Y48700D01*
X33157D01*
Y48807D01*
X32944D01*
Y48913D01*
X32838D01*
Y49019D01*
X32625D01*
Y49126D01*
X32519D01*
Y49232D01*
X32413D01*
Y49338D01*
X32306D01*
Y49445D01*
X32200D01*
Y49551D01*
X32094D01*
Y49657D01*
X31987D01*
Y49870D01*
X31881D01*
Y50083D01*
X31775D01*
Y50295D01*
X31668D01*
Y50614D01*
X31562D01*
Y51040D01*
X31456D01*
Y52316D01*
X31562D01*
Y52741D01*
X31668D01*
Y53060D01*
X31775D01*
Y53273D01*
X31881D01*
Y53485D01*
X31987D01*
Y53592D01*
X32094D01*
Y53804D01*
X32200D01*
Y53911D01*
X32306D01*
Y54017D01*
X32413D01*
Y54123D01*
X32519D01*
Y54230D01*
X32625D01*
Y54336D01*
X32838D01*
Y54442D01*
X32944D01*
Y54549D01*
X33157D01*
Y54655D01*
X33263D01*
Y54761D01*
X33476D01*
Y54868D01*
X33795D01*
Y54974D01*
X34114D01*
Y55080D01*
X34539D01*
Y55187D01*
X35177D01*
Y55293D01*
X36347D01*
Y55187D01*
D02*
G37*
G36*
X39218Y46680D02*
X39537D01*
Y46574D01*
X39750D01*
Y46467D01*
X39856D01*
Y46361D01*
X39962D01*
Y46148D01*
X40069D01*
Y44872D01*
X39962D01*
Y44660D01*
X39856D01*
Y44553D01*
X39643D01*
Y44447D01*
X39431D01*
Y44341D01*
X36028D01*
Y44234D01*
X34858D01*
Y44128D01*
X34646D01*
Y44022D01*
X34433D01*
Y43915D01*
X34327D01*
Y43809D01*
X34220D01*
Y43703D01*
X34114D01*
Y42958D01*
X34220D01*
Y42746D01*
X34433D01*
Y42639D01*
X34646D01*
Y42533D01*
X39218D01*
Y42427D01*
X39537D01*
Y42320D01*
X39750D01*
Y42214D01*
X39856D01*
Y42108D01*
X39962D01*
Y41895D01*
X40069D01*
Y40619D01*
X39962D01*
Y40406D01*
X39856D01*
Y40300D01*
X39643D01*
Y40194D01*
X39431D01*
Y40087D01*
X33476D01*
Y40194D01*
X33051D01*
Y40300D01*
X32732D01*
Y40406D01*
X32519D01*
Y40513D01*
X32306D01*
Y40619D01*
X32200D01*
Y40725D01*
X32094D01*
Y40832D01*
X31987D01*
Y40938D01*
X31881D01*
Y41044D01*
X31775D01*
Y41257D01*
X31668D01*
Y41470D01*
X31562D01*
Y41895D01*
X31456D01*
Y42533D01*
X31562D01*
Y42958D01*
X31668D01*
Y43277D01*
X31775D01*
Y43490D01*
X31881D01*
Y43596D01*
X31987D01*
Y43703D01*
X32094D01*
Y43809D01*
X32200D01*
Y43915D01*
X32306D01*
Y44022D01*
X32413D01*
Y44128D01*
X32625D01*
Y44234D01*
X32732D01*
Y44341D01*
X32838D01*
Y44447D01*
X32519D01*
Y44553D01*
X32200D01*
Y44660D01*
X31987D01*
Y44766D01*
X31881D01*
Y44872D01*
X31775D01*
Y45191D01*
X31668D01*
Y46042D01*
X31775D01*
Y46255D01*
X31881D01*
Y46361D01*
X31987D01*
Y46467D01*
X32094D01*
Y46574D01*
X32200D01*
Y46680D01*
X32625D01*
Y46786D01*
X39218D01*
Y46680D01*
D02*
G37*
D12*
X224160Y411860D02*
Y408527D01*
Y410193D01*
X214163D01*
X215829Y411860D01*
D13*
X47700Y246000D02*
Y363600D01*
X112300D01*
Y246000D02*
Y363600D01*
X47700Y246000D02*
X112300D01*
X48500Y162000D02*
X111500D01*
X48500Y-36700D02*
Y162000D01*
X111500Y-36700D02*
Y162000D01*
X48500Y-36700D02*
X111500D01*
D14*
X206300Y403800D02*
X270300D01*
Y323800D02*
Y403800D01*
X206300Y323800D02*
X270300D01*
X206300D02*
Y403800D01*
X190500Y518700D02*
Y596700D01*
Y518700D02*
X280500D01*
Y596700D01*
X190500D02*
X280500D01*
X190500Y417500D02*
Y495500D01*
Y417500D02*
X280500D01*
Y495500D01*
X190500D02*
X280500D01*
D16*
X24434Y291533D02*
X23101Y292866D01*
Y295532D01*
X24434Y296864D01*
X25767D01*
X27100Y295532D01*
Y292866D01*
X28433Y291533D01*
X29766D01*
X31099Y292866D01*
Y295532D01*
X29766Y296864D01*
X31099Y284868D02*
X23101D01*
X27100Y288867D01*
Y283535D01*
X67333Y171266D02*
X68666Y172599D01*
X71332D01*
X72664Y171266D01*
Y169933D01*
X71332Y168600D01*
X68666D01*
X67333Y167267D01*
Y165934D01*
X68666Y164601D01*
X71332D01*
X72664Y165934D01*
X64667Y171266D02*
X63334Y172599D01*
X60668D01*
X59335Y171266D01*
Y169933D01*
X60668Y168600D01*
X62001D01*
X60668D01*
X59335Y167267D01*
Y165934D01*
X60668Y164601D01*
X63334D01*
X64667Y165934D01*
X247864Y312301D02*
Y320299D01*
X243866D01*
X242533Y318966D01*
Y316300D01*
X243866Y314967D01*
X247864D01*
X239867Y318966D02*
X238534Y320299D01*
X235868D01*
X234536Y318966D01*
Y317633D01*
X235868Y316300D01*
X237201D01*
X235868D01*
X234536Y314967D01*
Y313634D01*
X235868Y312301D01*
X238534D01*
X239867Y313634D01*
X293600Y576700D02*
Y584697D01*
X289601D01*
X288268Y583364D01*
Y580699D01*
X289601Y579366D01*
X293600D01*
X285603Y576700D02*
X282937D01*
X284270D01*
Y584697D01*
X285603Y583364D01*
X297365Y457801D02*
Y465799D01*
X293366D01*
X292033Y464466D01*
Y461800D01*
X293366Y460467D01*
X297365D01*
X284035Y457801D02*
X289367D01*
X284035Y463133D01*
Y464466D01*
X285368Y465799D01*
X288034D01*
X289367Y464466D01*
M02*
