G04*
G04 #@! TF.GenerationSoftware,Altium Limited,Altium Designer,21.3.2 (30)*
G04*
G04 Layer_Physical_Order=2*
G04 Layer_Color=16711680*
%FSLAX44Y44*%
%MOMM*%
G71*
G04*
G04 #@! TF.SameCoordinates,93AE1877-D90B-42EB-A32C-D5F199EAFC0F*
G04*
G04*
G04 #@! TF.FilePolarity,Positive*
G04*
G01*
G75*
%ADD16C,0.1000*%
%ADD92C,0.8000*%
%ADD93C,0.5000*%
%ADD94C,0.1500*%
%ADD95C,1.0000*%
%ADD97C,1.5000*%
%ADD98C,0.6500*%
%ADD99C,0.6000*%
%ADD100C,0.6600*%
%ADD101C,1.0000*%
%ADD102R,1.4000X2.1000*%
%ADD103R,2.5000X1.0000*%
%ADD104R,1.0000X5.5000*%
%ADD105R,1.6000X3.0000*%
G36*
X293451Y601628D02*
X292181Y601243D01*
X291405Y602405D01*
X289751Y603510D01*
X288800Y603699D01*
Y598800D01*
Y593901D01*
X289751Y594090D01*
X291405Y595195D01*
X292181Y596357D01*
X293451Y595972D01*
Y540169D01*
X292181Y539784D01*
X291787Y540373D01*
X290133Y541478D01*
X289182Y541668D01*
Y536768D01*
Y531870D01*
X290133Y532059D01*
X291787Y533164D01*
X292181Y533753D01*
X293451Y533368D01*
Y434867D01*
X292181Y434188D01*
X291251Y434810D01*
X290300Y434999D01*
Y430100D01*
Y425201D01*
X291251Y425390D01*
X292181Y426012D01*
X293451Y425333D01*
Y255924D01*
X292181Y255245D01*
X291233Y255879D01*
X290282Y256068D01*
Y251169D01*
Y246269D01*
X291233Y246459D01*
X292181Y247092D01*
X293451Y246413D01*
Y6549D01*
X6549D01*
Y306784D01*
X7819Y306910D01*
X7990Y306049D01*
X9095Y304395D01*
X10749Y303290D01*
X11700Y303101D01*
Y308000D01*
Y312899D01*
X10749Y312710D01*
X9095Y311605D01*
X7990Y309951D01*
X7819Y309090D01*
X6549Y309216D01*
X6549Y715451D01*
X293451D01*
Y601628D01*
D02*
G37*
%LPC*%
G36*
X202382Y698768D02*
Y694869D01*
X206281D01*
X206092Y695819D01*
X204987Y697473D01*
X203333Y698578D01*
X202382Y698768D01*
D02*
G37*
G36*
X200382D02*
X199431Y698578D01*
X197778Y697473D01*
X196672Y695819D01*
X196483Y694869D01*
X200382D01*
Y698768D01*
D02*
G37*
G36*
X206281Y692869D02*
X202382D01*
Y688969D01*
X203333Y689159D01*
X204987Y690264D01*
X206092Y691918D01*
X206281Y692869D01*
D02*
G37*
G36*
X200382D02*
X196483D01*
X196672Y691918D01*
X197778Y690264D01*
X199431Y689159D01*
X200382Y688969D01*
Y692869D01*
D02*
G37*
G36*
X282282Y689068D02*
Y685169D01*
X286181D01*
X285992Y686120D01*
X284887Y687773D01*
X283233Y688878D01*
X282282Y689068D01*
D02*
G37*
G36*
X280282D02*
X279331Y688878D01*
X277677Y687773D01*
X276572Y686120D01*
X276383Y685169D01*
X280282D01*
Y689068D01*
D02*
G37*
G36*
X41182Y687868D02*
Y683969D01*
X45081D01*
X44892Y684920D01*
X43787Y686573D01*
X42133Y687679D01*
X41182Y687868D01*
D02*
G37*
G36*
X39182D02*
X38231Y687679D01*
X36577Y686573D01*
X35472Y684920D01*
X35283Y683969D01*
X39182D01*
Y687868D01*
D02*
G37*
G36*
X88182Y683868D02*
Y679968D01*
X92081D01*
X91892Y680919D01*
X90787Y682573D01*
X89133Y683678D01*
X88182Y683868D01*
D02*
G37*
G36*
X86182D02*
X85232Y683678D01*
X83578Y682573D01*
X82472Y680919D01*
X82283Y679968D01*
X86182D01*
Y683868D01*
D02*
G37*
G36*
X286181Y683169D02*
X282282D01*
Y679269D01*
X283233Y679459D01*
X284887Y680564D01*
X285992Y682218D01*
X286181Y683169D01*
D02*
G37*
G36*
X280282D02*
X276383D01*
X276572Y682218D01*
X277677Y680564D01*
X279331Y679459D01*
X280282Y679269D01*
Y683169D01*
D02*
G37*
G36*
X134100Y682299D02*
Y678400D01*
X137999D01*
X137810Y679351D01*
X136705Y681005D01*
X135051Y682110D01*
X134100Y682299D01*
D02*
G37*
G36*
X132100D02*
X131149Y682110D01*
X129495Y681005D01*
X128390Y679351D01*
X128201Y678400D01*
X132100D01*
Y682299D01*
D02*
G37*
G36*
X45081Y681969D02*
X41182D01*
Y678070D01*
X42133Y678259D01*
X43787Y679364D01*
X44892Y681018D01*
X45081Y681969D01*
D02*
G37*
G36*
X39182D02*
X35283D01*
X35472Y681018D01*
X36577Y679364D01*
X38231Y678259D01*
X39182Y678070D01*
Y681969D01*
D02*
G37*
G36*
X92081Y677969D02*
X88182D01*
Y674070D01*
X89133Y674259D01*
X90787Y675364D01*
X91892Y677018D01*
X92081Y677969D01*
D02*
G37*
G36*
X86182D02*
X82283D01*
X82472Y677018D01*
X83578Y675364D01*
X85232Y674259D01*
X86182Y674070D01*
Y677969D01*
D02*
G37*
G36*
X137999Y676400D02*
X134100D01*
Y672501D01*
X135051Y672690D01*
X136705Y673795D01*
X137810Y675449D01*
X137999Y676400D01*
D02*
G37*
G36*
X132100D02*
X128201D01*
X128390Y675449D01*
X129495Y673795D01*
X131149Y672690D01*
X132100Y672501D01*
Y676400D01*
D02*
G37*
G36*
X233900Y664043D02*
X232047Y663674D01*
X230475Y662625D01*
X229426Y661053D01*
X229057Y659200D01*
X229426Y657347D01*
X230475Y655775D01*
X232047Y654726D01*
X233900Y654357D01*
X235753Y654726D01*
X237325Y655775D01*
X238374Y657347D01*
X238743Y659200D01*
X238374Y661053D01*
X237325Y662625D01*
X235753Y663674D01*
X233900Y664043D01*
D02*
G37*
G36*
X176100D02*
X174247Y663674D01*
X172675Y662625D01*
X171626Y661053D01*
X171257Y659200D01*
X171626Y657347D01*
X172675Y655775D01*
X174247Y654726D01*
X176100Y654357D01*
X177953Y654726D01*
X179525Y655775D01*
X180574Y657347D01*
X180943Y659200D01*
X180574Y661053D01*
X179525Y662625D01*
X177953Y663674D01*
X176100Y664043D01*
D02*
G37*
G36*
X255800Y645499D02*
Y641600D01*
X259699D01*
X259510Y642551D01*
X258405Y644205D01*
X256751Y645310D01*
X255800Y645499D01*
D02*
G37*
G36*
X259699Y639600D02*
X255800D01*
Y635701D01*
X256751Y635890D01*
X258405Y636995D01*
X259510Y638649D01*
X259699Y639600D01*
D02*
G37*
G36*
X234300Y651808D02*
X189600D01*
X187454Y651381D01*
X185635Y650165D01*
X171735Y636265D01*
X170519Y634446D01*
X170092Y632300D01*
X170519Y630154D01*
X171735Y628335D01*
X173554Y627119D01*
X175700Y626692D01*
X177846Y627119D01*
X179665Y628335D01*
X191923Y640592D01*
X231977D01*
X241235Y631335D01*
X243054Y630119D01*
X245200Y629692D01*
X247346Y630119D01*
X249165Y631335D01*
X250381Y633154D01*
X250808Y635300D01*
X250710Y635792D01*
X251853Y636556D01*
X252849Y635890D01*
X253800Y635701D01*
Y640600D01*
Y645499D01*
X252849Y645310D01*
X251195Y644205D01*
X250090Y642551D01*
X249702Y640600D01*
X249721Y640506D01*
X248550Y639880D01*
X238265Y650165D01*
X236446Y651381D01*
X234300Y651808D01*
D02*
G37*
G36*
X83600Y623899D02*
Y620000D01*
X87499D01*
X87310Y620951D01*
X86205Y622605D01*
X84551Y623710D01*
X83600Y623899D01*
D02*
G37*
G36*
X81600D02*
X80649Y623710D01*
X78995Y622605D01*
X77890Y620951D01*
X77701Y620000D01*
X81600D01*
Y623899D01*
D02*
G37*
G36*
X87499Y618000D02*
X83600D01*
Y614101D01*
X84551Y614290D01*
X86205Y615395D01*
X87310Y617049D01*
X87499Y618000D01*
D02*
G37*
G36*
X81600D02*
X77701D01*
X77890Y617049D01*
X78995Y615395D01*
X80649Y614290D01*
X81600Y614101D01*
Y618000D01*
D02*
G37*
G36*
X225001Y637658D02*
X222855Y637231D01*
X221036Y636015D01*
X210208Y625188D01*
X177610D01*
X175464Y624762D01*
X173645Y623546D01*
X172429Y621727D01*
X172002Y619581D01*
X172429Y617435D01*
X173645Y615615D01*
X175464Y614400D01*
X177610Y613973D01*
X212531D01*
X214677Y614400D01*
X216497Y615615D01*
X228966Y628085D01*
X230182Y629904D01*
X230609Y632050D01*
X230182Y634196D01*
X228966Y636015D01*
X227147Y637231D01*
X225001Y637658D01*
D02*
G37*
G36*
X39182Y615968D02*
Y612068D01*
X43081D01*
X42892Y613019D01*
X41787Y614673D01*
X40133Y615778D01*
X39182Y615968D01*
D02*
G37*
G36*
X37182D02*
X36231Y615778D01*
X34578Y614673D01*
X33472Y613019D01*
X33283Y612068D01*
X37182D01*
Y615968D01*
D02*
G37*
G36*
X233382Y614568D02*
Y610669D01*
X237281D01*
X237092Y611619D01*
X235987Y613273D01*
X234333Y614379D01*
X233382Y614568D01*
D02*
G37*
G36*
X231382D02*
X230431Y614379D01*
X228778Y613273D01*
X227672Y611619D01*
X227483Y610669D01*
X231382D01*
Y614568D01*
D02*
G37*
G36*
X43081Y610069D02*
X39182D01*
Y606170D01*
X40133Y606359D01*
X41787Y607464D01*
X42892Y609118D01*
X43081Y610069D01*
D02*
G37*
G36*
X37182D02*
X33283D01*
X33472Y609118D01*
X34578Y607464D01*
X36231Y606359D01*
X37182Y606170D01*
Y610069D01*
D02*
G37*
G36*
X237281Y608669D02*
X233382D01*
Y604770D01*
X234333Y604959D01*
X235987Y606064D01*
X237092Y607718D01*
X237281Y608669D01*
D02*
G37*
G36*
X231382D02*
X227483D01*
X227672Y607718D01*
X228778Y606064D01*
X230431Y604959D01*
X231382Y604770D01*
Y608669D01*
D02*
G37*
G36*
X207200Y606899D02*
Y603000D01*
X211099D01*
X210910Y603951D01*
X209805Y605605D01*
X208151Y606710D01*
X207200Y606899D01*
D02*
G37*
G36*
X205200D02*
X204249Y606710D01*
X202595Y605605D01*
X201490Y603951D01*
X201301Y603000D01*
X205200D01*
Y606899D01*
D02*
G37*
G36*
X286800Y603699D02*
X285849Y603510D01*
X284195Y602405D01*
X283090Y600751D01*
X282901Y599800D01*
X286800D01*
Y603699D01*
D02*
G37*
G36*
X120100Y603199D02*
Y599300D01*
X123999D01*
X123810Y600251D01*
X122705Y601905D01*
X121051Y603010D01*
X120100Y603199D01*
D02*
G37*
G36*
X118100D02*
X117149Y603010D01*
X115495Y601905D01*
X114390Y600251D01*
X114201Y599300D01*
X118100D01*
Y603199D01*
D02*
G37*
G36*
X211099Y601000D02*
X207200D01*
Y597101D01*
X208151Y597290D01*
X209805Y598395D01*
X210910Y600049D01*
X211099Y601000D01*
D02*
G37*
G36*
X205200D02*
X201301D01*
X201490Y600049D01*
X202595Y598395D01*
X204249Y597290D01*
X205200Y597101D01*
Y601000D01*
D02*
G37*
G36*
X286800Y597800D02*
X282901D01*
X283090Y596849D01*
X284195Y595195D01*
X285849Y594090D01*
X286800Y593901D01*
Y597800D01*
D02*
G37*
G36*
X123999Y597300D02*
X120100D01*
Y593401D01*
X121051Y593590D01*
X122705Y594695D01*
X123810Y596349D01*
X123999Y597300D01*
D02*
G37*
G36*
X118100D02*
X114201D01*
X114390Y596349D01*
X115495Y594695D01*
X117149Y593590D01*
X118100Y593401D01*
Y597300D01*
D02*
G37*
G36*
X211000Y588200D02*
X192000D01*
Y566652D01*
X190730Y566267D01*
X190705Y566305D01*
X189051Y567410D01*
X188100Y567599D01*
Y562700D01*
Y557801D01*
X189051Y557990D01*
X190705Y559095D01*
X190730Y559133D01*
X192000Y558748D01*
Y555200D01*
X211000D01*
Y588200D01*
D02*
G37*
G36*
X156700Y583488D02*
X154944Y583139D01*
X153456Y582144D01*
X152461Y580656D01*
X152112Y578900D01*
X152461Y577144D01*
X153456Y575656D01*
X154406Y575021D01*
Y572550D01*
X146950Y565094D01*
X143379D01*
X142744Y566044D01*
X141256Y567039D01*
X139500Y567388D01*
X137744Y567039D01*
X136256Y566044D01*
X135261Y564556D01*
X134912Y562800D01*
X135261Y561044D01*
X136256Y559556D01*
X137744Y558561D01*
X139500Y558212D01*
X141256Y558561D01*
X142744Y559556D01*
X143379Y560506D01*
X147900D01*
X148778Y560681D01*
X149522Y561178D01*
X158322Y569978D01*
X158819Y570722D01*
X158994Y571600D01*
Y575021D01*
X159944Y575656D01*
X160939Y577144D01*
X161288Y578900D01*
X160939Y580656D01*
X159944Y582144D01*
X158456Y583139D01*
X156700Y583488D01*
D02*
G37*
G36*
X186100Y567599D02*
X185149Y567410D01*
X183495Y566305D01*
X182390Y564651D01*
X182201Y563700D01*
X186100D01*
Y567599D01*
D02*
G37*
G36*
Y561700D02*
X182201D01*
X182390Y560749D01*
X183495Y559095D01*
X185149Y557990D01*
X186100Y557801D01*
Y561700D01*
D02*
G37*
G36*
X279000Y588200D02*
X260000D01*
Y555200D01*
X279000D01*
Y588200D01*
D02*
G37*
G36*
X253040Y579240D02*
X246770D01*
Y550470D01*
X253040D01*
Y579240D01*
D02*
G37*
G36*
X244230D02*
X237960D01*
Y550470D01*
X244230D01*
Y579240D01*
D02*
G37*
G36*
X157800Y554199D02*
Y550300D01*
X161699D01*
X161510Y551251D01*
X160405Y552905D01*
X158751Y554010D01*
X157800Y554199D01*
D02*
G37*
G36*
X155800D02*
X154849Y554010D01*
X153195Y552905D01*
X152090Y551251D01*
X151901Y550300D01*
X155800D01*
Y554199D01*
D02*
G37*
G36*
X161699Y548300D02*
X157800D01*
Y544401D01*
X158751Y544590D01*
X160405Y545695D01*
X161510Y547349D01*
X161699Y548300D01*
D02*
G37*
G36*
X155800D02*
X151901D01*
X152090Y547349D01*
X153195Y545695D01*
X154849Y544590D01*
X155800Y544401D01*
Y548300D01*
D02*
G37*
G36*
X287182Y541668D02*
X286231Y541478D01*
X284578Y540373D01*
X283472Y538719D01*
X283283Y537769D01*
X287182D01*
Y541668D01*
D02*
G37*
G36*
Y535769D02*
X283283D01*
X283472Y534818D01*
X284578Y533164D01*
X286231Y532059D01*
X287182Y531870D01*
Y535769D01*
D02*
G37*
G36*
X195200Y530399D02*
Y526500D01*
X199099D01*
X198910Y527451D01*
X197805Y529105D01*
X196151Y530210D01*
X195200Y530399D01*
D02*
G37*
G36*
X193200D02*
X192249Y530210D01*
X190595Y529105D01*
X189490Y527451D01*
X189301Y526500D01*
X193200D01*
Y530399D01*
D02*
G37*
G36*
X253040Y547930D02*
X246770D01*
Y519160D01*
X253040D01*
Y547930D01*
D02*
G37*
G36*
X244230D02*
X237960D01*
Y519160D01*
X244230D01*
Y547930D01*
D02*
G37*
G36*
X130000Y527188D02*
X128244Y526839D01*
X126756Y525844D01*
X125761Y524356D01*
X125412Y522600D01*
X125761Y520844D01*
X126756Y519356D01*
X128244Y518361D01*
X130000Y518012D01*
X131121Y518235D01*
X134607Y514749D01*
X135351Y514252D01*
X136229Y514077D01*
X153571D01*
X154449Y514252D01*
X154530Y514306D01*
X193521D01*
X194156Y513356D01*
X195644Y512361D01*
X197400Y512012D01*
X199156Y512361D01*
X200644Y513356D01*
X201639Y514844D01*
X201988Y516600D01*
X201639Y518356D01*
X200644Y519844D01*
X199156Y520839D01*
X198586Y520952D01*
X198494Y521063D01*
X198104Y522343D01*
X198910Y523549D01*
X199099Y524500D01*
X189301D01*
X189490Y523549D01*
X190595Y521895D01*
X192244Y520793D01*
X192249Y520790D01*
X192817Y519382D01*
X192483Y518894D01*
X153800D01*
X153800Y518894D01*
X152922Y518719D01*
X152841Y518665D01*
X137179D01*
X134365Y521479D01*
X134588Y522600D01*
X134239Y524356D01*
X133244Y525844D01*
X131756Y526839D01*
X130000Y527188D01*
D02*
G37*
G36*
X76500Y514299D02*
Y510400D01*
X80399D01*
X80210Y511351D01*
X79105Y513005D01*
X77451Y514110D01*
X76500Y514299D01*
D02*
G37*
G36*
X74500D02*
X73549Y514110D01*
X71895Y513005D01*
X70790Y511351D01*
X70601Y510400D01*
X74500D01*
Y514299D01*
D02*
G37*
G36*
X232000Y578200D02*
X219000D01*
Y549626D01*
X218944Y549200D01*
Y524431D01*
X218844Y523671D01*
Y513560D01*
X218744Y512800D01*
X218967Y511103D01*
X219622Y509522D01*
X220664Y508164D01*
X222022Y507122D01*
X223603Y506467D01*
X225300Y506244D01*
X226997Y506467D01*
X228578Y507122D01*
X229936Y508164D01*
X230036Y508264D01*
X231078Y509622D01*
X231733Y511203D01*
X231956Y512900D01*
Y520200D01*
X232000D01*
Y523345D01*
X232056Y523771D01*
Y549200D01*
X232000Y549626D01*
Y578200D01*
D02*
G37*
G36*
X80399Y508400D02*
X76500D01*
Y504501D01*
X77451Y504690D01*
X79105Y505795D01*
X80210Y507449D01*
X80399Y508400D01*
D02*
G37*
G36*
X74500D02*
X70601D01*
X70790Y507449D01*
X71895Y505795D01*
X73549Y504690D01*
X74500Y504501D01*
Y508400D01*
D02*
G37*
G36*
X152511Y506661D02*
Y502762D01*
X156410D01*
X156221Y503713D01*
X155115Y505366D01*
X153462Y506471D01*
X152511Y506661D01*
D02*
G37*
G36*
X150511D02*
X149560Y506471D01*
X147906Y505366D01*
X146801Y503713D01*
X146612Y502762D01*
X150511D01*
Y506661D01*
D02*
G37*
G36*
X156410Y500762D02*
X152511D01*
Y496863D01*
X153462Y497052D01*
X155115Y498157D01*
X156221Y499811D01*
X156410Y500762D01*
D02*
G37*
G36*
X150511D02*
X146612D01*
X146801Y499811D01*
X147906Y498157D01*
X149560Y497052D01*
X150511Y496863D01*
Y500762D01*
D02*
G37*
G36*
X157600Y489788D02*
X155844Y489439D01*
X154356Y488444D01*
X153476Y487127D01*
X147768D01*
X147378Y487711D01*
X145889Y488705D01*
X144134Y489054D01*
X142378Y488705D01*
X140889Y487711D01*
X139895Y486222D01*
X139545Y484466D01*
X139895Y482711D01*
X140889Y481222D01*
X142378Y480228D01*
X144134Y479878D01*
X145889Y480228D01*
X147378Y481222D01*
X148258Y482539D01*
X153966D01*
X154356Y481956D01*
X155844Y480961D01*
X157600Y480612D01*
X159356Y480961D01*
X160844Y481956D01*
X161839Y483444D01*
X162188Y485200D01*
X161839Y486956D01*
X160844Y488444D01*
X159356Y489439D01*
X157600Y489788D01*
D02*
G37*
G36*
X175200Y464499D02*
Y460600D01*
X179099D01*
X178910Y461551D01*
X177805Y463205D01*
X176151Y464310D01*
X175200Y464499D01*
D02*
G37*
G36*
X173200D02*
X172249Y464310D01*
X170595Y463205D01*
X169490Y461551D01*
X169301Y460600D01*
X173200D01*
Y464499D01*
D02*
G37*
G36*
X179099Y458600D02*
X175200D01*
Y454701D01*
X176151Y454890D01*
X177805Y455995D01*
X178910Y457649D01*
X179099Y458600D01*
D02*
G37*
G36*
X173200D02*
X169301D01*
X169490Y457649D01*
X170595Y455995D01*
X172249Y454890D01*
X173200Y454701D01*
Y458600D01*
D02*
G37*
G36*
X279000Y487000D02*
X260000D01*
Y454000D01*
X279000D01*
Y487000D01*
D02*
G37*
G36*
X211000D02*
X192000D01*
Y454000D01*
X211000D01*
Y487000D01*
D02*
G37*
G36*
X125700Y498556D02*
X124003Y498333D01*
X122422Y497678D01*
X121064Y496636D01*
X120022Y495278D01*
X119367Y493697D01*
X119144Y492000D01*
Y451602D01*
X117874Y451477D01*
X117739Y452156D01*
X116744Y453644D01*
X115256Y454639D01*
X113500Y454988D01*
X111744Y454639D01*
X111354Y454378D01*
X96946D01*
X96856Y454439D01*
X95100Y454788D01*
X93344Y454439D01*
X91856Y453444D01*
X90861Y451956D01*
X90512Y450200D01*
X90861Y448444D01*
X91856Y446956D01*
X93344Y445961D01*
X95100Y445612D01*
X96856Y445961D01*
X97246Y446222D01*
X111654D01*
X111744Y446161D01*
X113500Y445812D01*
X115256Y446161D01*
X116744Y447156D01*
X117739Y448644D01*
X117874Y449323D01*
X119144Y449198D01*
Y441200D01*
X119367Y439503D01*
X120022Y437922D01*
X121064Y436564D01*
X123364Y434264D01*
X124722Y433222D01*
X126303Y432567D01*
X128000Y432344D01*
X129697Y432567D01*
X131278Y433222D01*
X132636Y434264D01*
X133678Y435622D01*
X134333Y437203D01*
X134556Y438900D01*
X134333Y440597D01*
X133678Y442178D01*
X132636Y443536D01*
X132256Y443916D01*
Y492000D01*
X132033Y493697D01*
X131378Y495278D01*
X130336Y496636D01*
X128978Y497678D01*
X127397Y498333D01*
X125700Y498556D01*
D02*
G37*
G36*
X288300Y434999D02*
X287349Y434810D01*
X285695Y433705D01*
X284590Y432051D01*
X284401Y431100D01*
X288300D01*
Y434999D01*
D02*
G37*
G36*
X156000Y432599D02*
Y428700D01*
X159899D01*
X159710Y429651D01*
X158605Y431305D01*
X156951Y432410D01*
X156000Y432599D01*
D02*
G37*
G36*
X154000D02*
X153049Y432410D01*
X151395Y431305D01*
X150290Y429651D01*
X150101Y428700D01*
X154000D01*
Y432599D01*
D02*
G37*
G36*
X288300Y429100D02*
X284401D01*
X284590Y428149D01*
X285695Y426495D01*
X287349Y425390D01*
X288300Y425201D01*
Y429100D01*
D02*
G37*
G36*
X159899Y426700D02*
X156000D01*
Y422801D01*
X156951Y422990D01*
X158605Y424095D01*
X159710Y425749D01*
X159899Y426700D01*
D02*
G37*
G36*
X154000D02*
X150101D01*
X150290Y425749D01*
X151395Y424095D01*
X153049Y422990D01*
X154000Y422801D01*
Y426700D01*
D02*
G37*
G36*
X145282Y423068D02*
Y419169D01*
X149181D01*
X148992Y420120D01*
X147887Y421773D01*
X146233Y422878D01*
X145282Y423068D01*
D02*
G37*
G36*
X143282D02*
X142331Y422878D01*
X140678Y421773D01*
X139572Y420120D01*
X139383Y419169D01*
X143282D01*
Y423068D01*
D02*
G37*
G36*
X245800Y488088D02*
X244044Y487739D01*
X242556Y486744D01*
X241561Y485256D01*
X241212Y483500D01*
X241422Y482445D01*
Y477000D01*
X239000D01*
Y419000D01*
X252000D01*
Y477000D01*
X249578D01*
Y481055D01*
X250039Y481744D01*
X250388Y483500D01*
X250039Y485256D01*
X249044Y486744D01*
X247556Y487739D01*
X245800Y488088D01*
D02*
G37*
G36*
X225400Y489088D02*
X223644Y488739D01*
X222156Y487744D01*
X221161Y486256D01*
X220812Y484500D01*
X221161Y482744D01*
X221422Y482354D01*
Y477000D01*
X219000D01*
Y419000D01*
X232000D01*
Y477000D01*
X229578D01*
Y482654D01*
X229639Y482744D01*
X229988Y484500D01*
X229639Y486256D01*
X228644Y487744D01*
X227156Y488739D01*
X225400Y489088D01*
D02*
G37*
G36*
X117082Y420668D02*
Y416769D01*
X120981D01*
X120792Y417719D01*
X119687Y419373D01*
X118033Y420479D01*
X117082Y420668D01*
D02*
G37*
G36*
X115082D02*
X114131Y420479D01*
X112478Y419373D01*
X111372Y417719D01*
X111183Y416769D01*
X115082D01*
Y420668D01*
D02*
G37*
G36*
X149181Y417169D02*
X145282D01*
Y413270D01*
X146233Y413459D01*
X147887Y414564D01*
X148992Y416218D01*
X149181Y417169D01*
D02*
G37*
G36*
X143282D02*
X139383D01*
X139572Y416218D01*
X140678Y414564D01*
X142331Y413459D01*
X143282Y413270D01*
Y417169D01*
D02*
G37*
G36*
X120981Y414769D02*
X117082D01*
Y410869D01*
X118033Y411059D01*
X119687Y412164D01*
X120792Y413818D01*
X120981Y414769D01*
D02*
G37*
G36*
X115082D02*
X111183D01*
X111372Y413818D01*
X112478Y412164D01*
X114131Y411059D01*
X115082Y410869D01*
Y414769D01*
D02*
G37*
G36*
X236740Y396740D02*
X222970D01*
Y390470D01*
X236740D01*
Y396740D01*
D02*
G37*
G36*
X220430D02*
X206660D01*
Y389647D01*
X205390Y388821D01*
X205000Y388899D01*
Y384000D01*
Y379101D01*
X205951Y379290D01*
X207605Y380395D01*
X208450Y381660D01*
X220430D01*
Y389200D01*
Y396740D01*
D02*
G37*
G36*
X203000Y388899D02*
X202049Y388710D01*
X200395Y387605D01*
X199290Y385951D01*
X199101Y385000D01*
X203000D01*
Y388899D01*
D02*
G37*
G36*
X236740Y387930D02*
X222970D01*
Y381660D01*
X236740D01*
Y387930D01*
D02*
G37*
G36*
X15082Y384868D02*
Y380969D01*
X18981D01*
X18792Y381920D01*
X17687Y383573D01*
X16033Y384678D01*
X15082Y384868D01*
D02*
G37*
G36*
X13082D02*
X12131Y384678D01*
X10478Y383573D01*
X9372Y381920D01*
X9183Y380969D01*
X13082D01*
Y384868D01*
D02*
G37*
G36*
X203000Y383000D02*
X199101D01*
X199290Y382049D01*
X200395Y380395D01*
X202049Y379290D01*
X203000Y379101D01*
Y383000D01*
D02*
G37*
G36*
X18981Y378969D02*
X15082D01*
Y375070D01*
X16033Y375259D01*
X17687Y376364D01*
X18792Y378018D01*
X18981Y378969D01*
D02*
G37*
G36*
X13082D02*
X9183D01*
X9372Y378018D01*
X10478Y376364D01*
X12131Y375259D01*
X13082Y375070D01*
Y378969D01*
D02*
G37*
G36*
X231274Y370499D02*
X229577Y370276D01*
X227996Y369621D01*
X226638Y368579D01*
X225596Y367221D01*
X224941Y365640D01*
X224718Y363943D01*
X224941Y362246D01*
X225596Y360665D01*
X226638Y359307D01*
X226781Y359164D01*
X228139Y358122D01*
X229720Y357467D01*
X231417Y357244D01*
X254900D01*
X255326Y357300D01*
X264833D01*
X264958Y356030D01*
X264447Y355928D01*
X263349Y355710D01*
X261695Y354605D01*
X260590Y352951D01*
X260401Y352000D01*
X270199D01*
X270010Y352951D01*
X268905Y354605D01*
X267251Y355710D01*
X266154Y355928D01*
X265642Y356030D01*
X265767Y357300D01*
X268900D01*
Y370300D01*
X255326D01*
X254900Y370356D01*
X232362D01*
X231274Y370499D01*
D02*
G37*
G36*
X270199Y350000D02*
X266300D01*
Y346101D01*
X267251Y346290D01*
X268905Y347395D01*
X270010Y349049D01*
X270199Y350000D01*
D02*
G37*
G36*
X264300D02*
X260401D01*
X260590Y349049D01*
X261695Y347395D01*
X263349Y346290D01*
X264300Y346101D01*
Y350000D01*
D02*
G37*
G36*
X66000Y362300D02*
X49000D01*
Y338300D01*
X55206D01*
Y326550D01*
X44971Y316315D01*
X43850Y316538D01*
X42094Y316189D01*
X40606Y315194D01*
X39611Y313706D01*
X39262Y311950D01*
X39611Y310194D01*
X40606Y308706D01*
X41556Y308071D01*
Y276450D01*
X41731Y275572D01*
X42228Y274828D01*
X49000Y268056D01*
Y247300D01*
X66000D01*
Y271300D01*
X52244D01*
X46144Y277400D01*
Y308071D01*
X47094Y308706D01*
X48089Y310194D01*
X48438Y311950D01*
X48215Y313071D01*
X59122Y323978D01*
X59619Y324722D01*
X59794Y325600D01*
Y338300D01*
X66000D01*
Y362300D01*
D02*
G37*
G36*
X82282Y314168D02*
Y310268D01*
X86181D01*
X85992Y311219D01*
X84887Y312873D01*
X83233Y313978D01*
X82282Y314168D01*
D02*
G37*
G36*
X80282D02*
X79331Y313978D01*
X77678Y312873D01*
X76572Y311219D01*
X76383Y310268D01*
X80282D01*
Y314168D01*
D02*
G37*
G36*
X167600Y312899D02*
X166649Y312710D01*
X164995Y311605D01*
X163894Y309956D01*
X163760Y309931D01*
X162975Y309808D01*
X162575Y309851D01*
X161644Y311244D01*
X160156Y312239D01*
X158400Y312588D01*
X156644Y312239D01*
X155156Y311244D01*
X154161Y309756D01*
X153812Y308000D01*
X154051Y306796D01*
X143378Y296122D01*
X142881Y295378D01*
X142706Y294500D01*
Y290679D01*
X141756Y290044D01*
X140761Y288556D01*
X140412Y286800D01*
X140761Y285044D01*
X141756Y283556D01*
X143244Y282561D01*
X145000Y282212D01*
X146756Y282561D01*
X148244Y283556D01*
X149239Y285044D01*
X149588Y286800D01*
X149239Y288556D01*
X148244Y290044D01*
X147294Y290679D01*
Y293550D01*
X157362Y303618D01*
X158400Y303412D01*
X160156Y303761D01*
X161644Y304756D01*
X162575Y306149D01*
X162975Y306192D01*
X163760Y306069D01*
X163894Y306043D01*
X164995Y304395D01*
X166649Y303290D01*
X167600Y303101D01*
Y308000D01*
Y312899D01*
D02*
G37*
G36*
X235700Y344900D02*
X207700D01*
Y331900D01*
X235700D01*
Y336106D01*
X238750D01*
X260468Y314387D01*
X260312Y313600D01*
X260661Y311844D01*
X261656Y310356D01*
X263144Y309361D01*
X264900Y309012D01*
X266656Y309361D01*
X268144Y310356D01*
X269139Y311844D01*
X269488Y313600D01*
X269139Y315356D01*
X268144Y316844D01*
X266656Y317839D01*
X264900Y318188D01*
X263445Y317899D01*
X241322Y340022D01*
X240578Y340519D01*
X239700Y340694D01*
X235700D01*
Y344900D01*
D02*
G37*
G36*
X13700Y312899D02*
Y309000D01*
X17599D01*
X17410Y309951D01*
X16305Y311605D01*
X14651Y312710D01*
X13700Y312899D01*
D02*
G37*
G36*
X169600Y312899D02*
Y309000D01*
X173499D01*
X173310Y309951D01*
X172205Y311605D01*
X170551Y312710D01*
X169600Y312899D01*
D02*
G37*
G36*
X142500Y311899D02*
Y308000D01*
X146399D01*
X146210Y308951D01*
X145105Y310605D01*
X143451Y311710D01*
X142500Y311899D01*
D02*
G37*
G36*
X140500D02*
X139549Y311710D01*
X137895Y310605D01*
X136790Y308951D01*
X136601Y308000D01*
X140500D01*
Y311899D01*
D02*
G37*
G36*
X236882Y308568D02*
Y304669D01*
X240781D01*
X240592Y305620D01*
X239487Y307273D01*
X237833Y308379D01*
X236882Y308568D01*
D02*
G37*
G36*
X234882D02*
X233932Y308379D01*
X232278Y307273D01*
X231173Y305620D01*
X230983Y304669D01*
X234882D01*
Y308568D01*
D02*
G37*
G36*
X86181Y308269D02*
X82282D01*
Y304370D01*
X83233Y304559D01*
X84887Y305664D01*
X85992Y307318D01*
X86181Y308269D01*
D02*
G37*
G36*
X80282D02*
X76383D01*
X76572Y307318D01*
X77678Y305664D01*
X79331Y304559D01*
X80282Y304370D01*
Y308269D01*
D02*
G37*
G36*
X206400Y308199D02*
Y304300D01*
X210299D01*
X210110Y305251D01*
X209005Y306905D01*
X207351Y308010D01*
X206400Y308199D01*
D02*
G37*
G36*
X204400D02*
X203449Y308010D01*
X201795Y306905D01*
X200690Y305251D01*
X200501Y304300D01*
X204400D01*
Y308199D01*
D02*
G37*
G36*
X17599Y307000D02*
X13700D01*
Y303101D01*
X14651Y303290D01*
X16305Y304395D01*
X17410Y306049D01*
X17599Y307000D01*
D02*
G37*
G36*
X173499Y307000D02*
X169600D01*
Y303101D01*
X170551Y303290D01*
X172205Y304395D01*
X173310Y306049D01*
X173499Y307000D01*
D02*
G37*
G36*
X146399Y306000D02*
X142500D01*
Y302101D01*
X143451Y302290D01*
X145105Y303395D01*
X146210Y305049D01*
X146399Y306000D01*
D02*
G37*
G36*
X140500D02*
X136601D01*
X136790Y305049D01*
X137895Y303395D01*
X139549Y302290D01*
X140500Y302101D01*
Y306000D01*
D02*
G37*
G36*
X127800Y304399D02*
Y300500D01*
X131699D01*
X131510Y301451D01*
X130405Y303105D01*
X128751Y304210D01*
X127800Y304399D01*
D02*
G37*
G36*
X125800D02*
X124849Y304210D01*
X123195Y303105D01*
X122090Y301451D01*
X121901Y300500D01*
X125800D01*
Y304399D01*
D02*
G37*
G36*
X240781Y302669D02*
X236882D01*
Y298769D01*
X237833Y298959D01*
X239487Y300064D01*
X240592Y301718D01*
X240781Y302669D01*
D02*
G37*
G36*
X234882D02*
X230983D01*
X231173Y301718D01*
X232278Y300064D01*
X233932Y298959D01*
X234882Y298769D01*
Y302669D01*
D02*
G37*
G36*
X210299Y302300D02*
X206400D01*
Y298401D01*
X207351Y298590D01*
X209005Y299695D01*
X210110Y301349D01*
X210299Y302300D01*
D02*
G37*
G36*
X204400D02*
X200501D01*
X200690Y301349D01*
X201795Y299695D01*
X203449Y298590D01*
X204400Y298401D01*
Y302300D01*
D02*
G37*
G36*
X131699Y298500D02*
X127800D01*
Y294601D01*
X128751Y294790D01*
X130405Y295895D01*
X131510Y297549D01*
X131699Y298500D01*
D02*
G37*
G36*
X125800D02*
X121901D01*
X122090Y297549D01*
X123195Y295895D01*
X124849Y294790D01*
X125800Y294601D01*
Y298500D01*
D02*
G37*
G36*
X245000Y290388D02*
X243244Y290039D01*
X241756Y289044D01*
X241043Y287978D01*
X192696D01*
X192456Y288139D01*
X190700Y288488D01*
X188944Y288139D01*
X187456Y287144D01*
X186461Y285656D01*
X186112Y283900D01*
X186461Y282144D01*
X187456Y280656D01*
X188944Y279661D01*
X190700Y279312D01*
X192456Y279661D01*
X192696Y279822D01*
X242829D01*
X242829Y279822D01*
X244390Y280132D01*
X245713Y281016D01*
X246135Y281437D01*
X246756Y281561D01*
X248244Y282556D01*
X249239Y284044D01*
X249588Y285800D01*
X249239Y287556D01*
X248244Y289044D01*
X246756Y290039D01*
X245000Y290388D01*
D02*
G37*
G36*
X166200Y281799D02*
Y277900D01*
X170099D01*
X169910Y278851D01*
X168805Y280505D01*
X167151Y281610D01*
X166200Y281799D01*
D02*
G37*
G36*
X164200D02*
X163249Y281610D01*
X161595Y280505D01*
X160490Y278851D01*
X160301Y277900D01*
X164200D01*
Y281799D01*
D02*
G37*
G36*
X27582Y278368D02*
Y274468D01*
X31481D01*
X31292Y275419D01*
X30187Y277073D01*
X28533Y278178D01*
X27582Y278368D01*
D02*
G37*
G36*
X25582D02*
X24631Y278178D01*
X22978Y277073D01*
X21872Y275419D01*
X21683Y274468D01*
X25582D01*
Y278368D01*
D02*
G37*
G36*
X170099Y275900D02*
X166200D01*
Y272001D01*
X167151Y272190D01*
X168805Y273295D01*
X169910Y274949D01*
X170099Y275900D01*
D02*
G37*
G36*
X164200D02*
X160301D01*
X160490Y274949D01*
X161595Y273295D01*
X163249Y272190D01*
X164200Y272001D01*
Y275900D01*
D02*
G37*
G36*
X31481Y272468D02*
X27582D01*
Y268570D01*
X28533Y268759D01*
X30187Y269864D01*
X31292Y271518D01*
X31481Y272468D01*
D02*
G37*
G36*
X25582D02*
X21683D01*
X21872Y271518D01*
X22978Y269864D01*
X24631Y268759D01*
X25582Y268570D01*
Y272468D01*
D02*
G37*
G36*
X111000Y362300D02*
X94000D01*
Y338300D01*
X98422D01*
Y282296D01*
X98261Y282056D01*
X97912Y280300D01*
X98261Y278544D01*
X98422Y278304D01*
Y271300D01*
X94000D01*
Y247300D01*
X111000D01*
Y271300D01*
X106578D01*
Y276222D01*
X120240D01*
X130549Y265913D01*
X131456Y264556D01*
X132944Y263561D01*
X134700Y263212D01*
X136456Y263561D01*
X137944Y264556D01*
X138939Y266044D01*
X139288Y267800D01*
X138939Y269556D01*
X137944Y271044D01*
X136456Y272039D01*
X135835Y272162D01*
X124813Y283184D01*
X123490Y284068D01*
X121929Y284378D01*
X121929Y284378D01*
X106578D01*
Y338300D01*
X111000D01*
Y362300D01*
D02*
G37*
G36*
X288282Y256068D02*
X287332Y255879D01*
X285678Y254773D01*
X284573Y253120D01*
X284383Y252169D01*
X288282D01*
Y256068D01*
D02*
G37*
G36*
X156565Y252634D02*
X155614Y252445D01*
X153960Y251340D01*
X152855Y249686D01*
X152666Y248735D01*
X156565D01*
Y252634D01*
D02*
G37*
G36*
X288282Y250169D02*
X284383D01*
X284573Y249218D01*
X285678Y247564D01*
X287332Y246459D01*
X288282Y246269D01*
Y250169D01*
D02*
G37*
G36*
X233000Y249999D02*
Y246100D01*
X236899D01*
X236710Y247051D01*
X235605Y248705D01*
X233951Y249810D01*
X233000Y249999D01*
D02*
G37*
G36*
X231000D02*
X230049Y249810D01*
X228395Y248705D01*
X227290Y247051D01*
X227101Y246100D01*
X231000D01*
Y249999D01*
D02*
G37*
G36*
X158565Y252634D02*
Y247735D01*
X157565D01*
Y246735D01*
X152666D01*
X152855Y245784D01*
X153960Y244130D01*
X155614Y243025D01*
X157258Y242698D01*
X157854Y241498D01*
X154428Y238072D01*
X153931Y237328D01*
X153756Y236450D01*
Y210225D01*
X153931Y209347D01*
X154428Y208603D01*
X155697Y207334D01*
X155236Y205999D01*
X154553Y205916D01*
X145647Y214822D01*
X144902Y215319D01*
X144025Y215494D01*
X118930D01*
X118739Y216456D01*
X117744Y217944D01*
X116256Y218939D01*
X115089Y219171D01*
X114914Y220501D01*
X115970Y221206D01*
X143621D01*
X144256Y220256D01*
X145744Y219261D01*
X147500Y218912D01*
X149256Y219261D01*
X150744Y220256D01*
X151739Y221744D01*
X152088Y223500D01*
X151739Y225256D01*
X150744Y226744D01*
X149256Y227739D01*
X147500Y228088D01*
X145744Y227739D01*
X144256Y226744D01*
X143621Y225794D01*
X117131D01*
X117039Y226256D01*
X116044Y227744D01*
X114556Y228739D01*
X112800Y229088D01*
X111044Y228739D01*
X109556Y227744D01*
X108561Y226256D01*
X108212Y224500D01*
X108561Y222744D01*
X109556Y221256D01*
X111044Y220261D01*
X112211Y220029D01*
X112386Y218699D01*
X111256Y217944D01*
X110261Y216456D01*
X109912Y214700D01*
X110261Y212944D01*
X111256Y211456D01*
X112744Y210461D01*
X114500Y210112D01*
X116256Y210461D01*
X116922Y210906D01*
X143074D01*
X145827Y208153D01*
X145546Y206952D01*
X145385Y206799D01*
X143956Y205844D01*
X142961Y204356D01*
X142905Y204072D01*
X138092Y199259D01*
X136714Y199677D01*
X136560Y200451D01*
X135455Y202105D01*
X133801Y203210D01*
X132850Y203399D01*
Y198500D01*
X131850D01*
Y197500D01*
X126951D01*
X127140Y196549D01*
X128245Y194895D01*
X129899Y193790D01*
X130673Y193636D01*
X131091Y192258D01*
X123783Y184951D01*
X122899Y183627D01*
X122588Y182067D01*
X122588Y182066D01*
Y179758D01*
X122236Y179231D01*
X121887Y177475D01*
X122236Y175720D01*
X122359Y175536D01*
Y162078D01*
X111800D01*
X110239Y161768D01*
X108916Y160884D01*
X108916Y160884D01*
X82810Y134778D01*
X82350Y134968D01*
X80000Y135278D01*
X77650Y134968D01*
X75461Y134061D01*
X73581Y132619D01*
X72139Y130739D01*
X71232Y128549D01*
X70922Y126200D01*
X71232Y123850D01*
X72139Y121661D01*
X73581Y119781D01*
X75461Y118338D01*
X77650Y117432D01*
X80000Y117122D01*
X82350Y117432D01*
X83967Y118102D01*
X113771Y88298D01*
X114677Y86941D01*
X116166Y85946D01*
X117922Y85597D01*
X119677Y85946D01*
X121166Y86941D01*
X122161Y88429D01*
X122510Y90185D01*
X122161Y91941D01*
X121166Y93429D01*
X119677Y94424D01*
X119056Y94548D01*
X88883Y124721D01*
X89078Y126200D01*
X88768Y128549D01*
X88578Y129010D01*
X113489Y153922D01*
X114830D01*
X115215Y152652D01*
X114456Y152144D01*
X113461Y150656D01*
X113112Y148900D01*
X113461Y147144D01*
X114456Y145656D01*
X115944Y144661D01*
X117700Y144312D01*
X119456Y144661D01*
X120944Y145656D01*
X121111Y145906D01*
X126800D01*
X127678Y146081D01*
X128422Y146578D01*
X136079Y154235D01*
X137200Y154012D01*
X138956Y154361D01*
X140444Y155356D01*
X141439Y156844D01*
X141788Y158600D01*
X141439Y160356D01*
X140444Y161844D01*
X138956Y162839D01*
X137200Y163188D01*
X135444Y162839D01*
X133956Y161844D01*
X132961Y160356D01*
X132612Y158600D01*
X132826Y157525D01*
X131944Y156700D01*
X130846Y157287D01*
X130988Y158000D01*
X130639Y159756D01*
X130516Y159940D01*
Y175423D01*
X130714Y175720D01*
X131064Y177475D01*
X130745Y179076D01*
Y180377D01*
X148672Y198305D01*
X148956Y198361D01*
X149923Y199008D01*
X150754Y199171D01*
X151536Y198704D01*
X152164Y197764D01*
X153653Y196770D01*
X155408Y196420D01*
X157164Y196770D01*
X158036Y197352D01*
X159306Y196673D01*
Y170950D01*
X155287Y166931D01*
X154904D01*
X154027Y166757D01*
X153282Y166259D01*
X134488Y147465D01*
X133991Y146721D01*
X133817Y145843D01*
Y141450D01*
X133738Y141372D01*
X133241Y140628D01*
X133067Y139750D01*
Y138763D01*
X132944Y138739D01*
X131456Y137744D01*
X130461Y136256D01*
X130112Y134500D01*
X130461Y132744D01*
X131456Y131256D01*
X131601Y131159D01*
X131726Y129895D01*
X130725Y128894D01*
X128468D01*
X121372Y135990D01*
X120628Y136487D01*
X119750Y136662D01*
X118534D01*
X117744Y137844D01*
X116256Y138839D01*
X114500Y139188D01*
X112744Y138839D01*
X111256Y137844D01*
X110261Y136356D01*
X109912Y134600D01*
X110261Y132844D01*
X111256Y131356D01*
X112744Y130361D01*
X114500Y130012D01*
X116256Y130361D01*
X117744Y131356D01*
X117795Y131432D01*
X119317Y131556D01*
X122690Y128184D01*
X122003Y127074D01*
X120582Y127357D01*
X118827Y127008D01*
X117338Y126013D01*
X116343Y124524D01*
X115994Y122769D01*
X116343Y121013D01*
X117338Y119524D01*
X118827Y118530D01*
X120582Y118180D01*
X122338Y118530D01*
X123827Y119524D01*
X124821Y121013D01*
X125170Y122769D01*
X124888Y124190D01*
X125703Y124827D01*
X125957Y124937D01*
X126640Y124481D01*
X127518Y124306D01*
X130411D01*
X131217Y123324D01*
X131212Y123300D01*
X131561Y121544D01*
X132556Y120056D01*
X134044Y119061D01*
X135800Y118712D01*
X137556Y119061D01*
X139044Y120056D01*
X140039Y121544D01*
X140388Y123300D01*
X140198Y124254D01*
X160650Y144706D01*
X231054D01*
X231756Y143656D01*
X233244Y142661D01*
X235000Y142312D01*
X236756Y142661D01*
X238244Y143656D01*
X239183Y145061D01*
X239531Y145102D01*
X240498Y144963D01*
X240561Y144644D01*
X241556Y143156D01*
X243044Y142161D01*
X244800Y141812D01*
X246556Y142161D01*
X248044Y143156D01*
X249039Y144644D01*
X249388Y146400D01*
X249039Y148156D01*
X248044Y149644D01*
X246556Y150639D01*
X244800Y150988D01*
X243679Y150765D01*
X238922Y155522D01*
X238178Y156019D01*
X237300Y156194D01*
X216100D01*
X216100Y156194D01*
X215222Y156019D01*
X214478Y155522D01*
X214478Y155522D01*
X211250Y152294D01*
X187059D01*
X185431Y153922D01*
X184687Y154419D01*
X183809Y154594D01*
X161579D01*
X160944Y155544D01*
X159515Y156499D01*
X159354Y156652D01*
X159073Y157853D01*
X166222Y165002D01*
X166719Y165747D01*
X166894Y166625D01*
Y208275D01*
X166719Y209153D01*
X166222Y209897D01*
X165514Y210606D01*
X165539Y210644D01*
X165888Y212400D01*
X165539Y214156D01*
X164544Y215644D01*
X163056Y216639D01*
X161300Y216988D01*
X159614Y216653D01*
X159392Y216647D01*
X158344Y217297D01*
Y235500D01*
X166179Y243335D01*
X167300Y243112D01*
X169056Y243461D01*
X170544Y244456D01*
X171539Y245944D01*
X171888Y247700D01*
X171539Y249456D01*
X170544Y250944D01*
X169056Y251939D01*
X167300Y252288D01*
X165544Y251939D01*
X164056Y250944D01*
X163451Y250039D01*
X163295Y249992D01*
X161994Y250106D01*
X161170Y251340D01*
X159516Y252445D01*
X158565Y252634D01*
D02*
G37*
G36*
X236899Y244100D02*
X233000D01*
Y240201D01*
X233951Y240390D01*
X235605Y241495D01*
X236710Y243149D01*
X236899Y244100D01*
D02*
G37*
G36*
X231000D02*
X227101D01*
X227290Y243149D01*
X228395Y241495D01*
X230049Y240390D01*
X231000Y240201D01*
Y244100D01*
D02*
G37*
G36*
X67200Y242599D02*
Y238700D01*
X71099D01*
X70910Y239651D01*
X69805Y241305D01*
X68151Y242410D01*
X67200Y242599D01*
D02*
G37*
G36*
X65200D02*
X64249Y242410D01*
X62595Y241305D01*
X61490Y239651D01*
X61301Y238700D01*
X65200D01*
Y242599D01*
D02*
G37*
G36*
X71099Y236700D02*
X67200D01*
Y232801D01*
X68151Y232990D01*
X69805Y234095D01*
X70910Y235749D01*
X71099Y236700D01*
D02*
G37*
G36*
X65200D02*
X61301D01*
X61490Y235749D01*
X62595Y234095D01*
X64249Y232990D01*
X65200Y232801D01*
Y236700D01*
D02*
G37*
G36*
X258600Y226699D02*
Y222800D01*
X262499D01*
X262310Y223751D01*
X261205Y225405D01*
X259551Y226510D01*
X258600Y226699D01*
D02*
G37*
G36*
X256600D02*
X255649Y226510D01*
X253995Y225405D01*
X252890Y223751D01*
X252701Y222800D01*
X256600D01*
Y226699D01*
D02*
G37*
G36*
X262499Y220800D02*
X258600D01*
Y216901D01*
X259551Y217090D01*
X261205Y218195D01*
X262310Y219849D01*
X262499Y220800D01*
D02*
G37*
G36*
X256600D02*
X252701D01*
X252890Y219849D01*
X253995Y218195D01*
X255649Y217090D01*
X256600Y216901D01*
Y220800D01*
D02*
G37*
G36*
X219300Y205039D02*
X218520Y204884D01*
X217858Y204442D01*
X217416Y203780D01*
X217261Y203000D01*
Y202800D01*
X217416Y202020D01*
X217858Y201358D01*
X218520Y200916D01*
X219300Y200761D01*
X220080Y200916D01*
X220742Y201358D01*
X221184Y202020D01*
X221339Y202800D01*
Y203000D01*
X221184Y203780D01*
X220742Y204442D01*
X220080Y204884D01*
X219300Y205039D01*
D02*
G37*
G36*
X130850Y203399D02*
X129899Y203210D01*
X128245Y202105D01*
X127140Y200451D01*
X126951Y199500D01*
X130850D01*
Y203399D01*
D02*
G37*
G36*
X275100Y199099D02*
Y195200D01*
X278999D01*
X278810Y196151D01*
X277705Y197805D01*
X276051Y198910D01*
X275100Y199099D01*
D02*
G37*
G36*
X273100D02*
X272149Y198910D01*
X270495Y197805D01*
X269390Y196151D01*
X269201Y195200D01*
X273100D01*
Y199099D01*
D02*
G37*
G36*
X206300Y197505D02*
Y193300D01*
X210505D01*
X210292Y194368D01*
X209121Y196121D01*
X207368Y197292D01*
X206300Y197505D01*
D02*
G37*
G36*
X180300D02*
X179232Y197292D01*
X177479Y196121D01*
X176308Y194368D01*
X176095Y193300D01*
X180300D01*
Y197505D01*
D02*
G37*
G36*
X278999Y193200D02*
X275100D01*
Y189301D01*
X276051Y189490D01*
X277705Y190595D01*
X278810Y192249D01*
X278999Y193200D01*
D02*
G37*
G36*
X273100D02*
X269201D01*
X269390Y192249D01*
X270495Y190595D01*
X272149Y189490D01*
X273100Y189301D01*
Y193200D01*
D02*
G37*
G36*
X180300Y167300D02*
X176095D01*
X176308Y166232D01*
X177479Y164479D01*
X179232Y163307D01*
X180300Y163095D01*
Y167300D01*
D02*
G37*
G36*
X210505D02*
X206300D01*
Y163095D01*
X207368Y163307D01*
X209121Y164479D01*
X210292Y166232D01*
X210505Y167300D01*
D02*
G37*
G36*
X182300Y197505D02*
Y192300D01*
X181300D01*
Y191300D01*
X176095D01*
X176308Y190232D01*
X177479Y188479D01*
X179232Y187307D01*
X180345Y187086D01*
X181042Y186947D01*
Y185653D01*
X180345Y185514D01*
X179232Y185292D01*
X177479Y184121D01*
X176308Y182368D01*
X176095Y181300D01*
X181300D01*
Y179300D01*
X176095D01*
X176308Y178232D01*
X177479Y176479D01*
X179232Y175308D01*
X180345Y175086D01*
X181042Y174947D01*
Y173653D01*
X180345Y173514D01*
X179232Y173292D01*
X177479Y172121D01*
X176308Y170368D01*
X176095Y169300D01*
X181300D01*
Y168300D01*
X182300D01*
Y163095D01*
X183368Y163307D01*
X185121Y164479D01*
X186292Y166232D01*
X186514Y167345D01*
X186653Y168042D01*
X187948D01*
X188086Y167345D01*
X188308Y166232D01*
X189479Y164479D01*
X191232Y163307D01*
X192300Y163095D01*
Y168300D01*
X194300D01*
Y163095D01*
X195368Y163307D01*
X197121Y164479D01*
X198293Y166232D01*
X198514Y167345D01*
X198653Y168042D01*
X199947D01*
X200086Y167345D01*
X200308Y166232D01*
X201479Y164479D01*
X203232Y163307D01*
X204300Y163095D01*
Y168300D01*
X205300D01*
Y169300D01*
X210505D01*
X210292Y170368D01*
X209121Y172121D01*
X207368Y173292D01*
X206255Y173514D01*
X205558Y173653D01*
Y174947D01*
X206255Y175086D01*
X207368Y175308D01*
X209121Y176479D01*
X210292Y178232D01*
X210505Y179300D01*
X205300D01*
Y181300D01*
X210505D01*
X210292Y182368D01*
X209121Y184121D01*
X207368Y185292D01*
X206255Y185514D01*
X205558Y185653D01*
Y186947D01*
X206255Y187086D01*
X207368Y187307D01*
X209121Y188479D01*
X210292Y190232D01*
X210505Y191300D01*
X205300D01*
Y192300D01*
X204300D01*
Y197505D01*
X203232Y197292D01*
X201479Y196121D01*
X200308Y194368D01*
X200086Y193255D01*
X199947Y192558D01*
X198653D01*
X198514Y193255D01*
X198293Y194368D01*
X197121Y196121D01*
X195368Y197292D01*
X194300Y197505D01*
Y192300D01*
X192300D01*
Y197505D01*
X191232Y197292D01*
X189479Y196121D01*
X188308Y194368D01*
X188086Y193255D01*
X187948Y192558D01*
X186653D01*
X186514Y193255D01*
X186292Y194368D01*
X185121Y196121D01*
X183368Y197292D01*
X182300Y197505D01*
D02*
G37*
G36*
X80000Y160678D02*
X77650Y160368D01*
X75461Y159461D01*
X73581Y158019D01*
X72139Y156139D01*
X71232Y153949D01*
X70922Y151600D01*
X71232Y149250D01*
X72139Y147061D01*
X73581Y145181D01*
X75461Y143738D01*
X77650Y142832D01*
X80000Y142522D01*
X82350Y142832D01*
X84539Y143738D01*
X86419Y145181D01*
X87861Y147061D01*
X88768Y149250D01*
X89078Y151600D01*
X88768Y153949D01*
X87861Y156139D01*
X86419Y158019D01*
X84539Y159461D01*
X82350Y160368D01*
X80000Y160678D01*
D02*
G37*
G36*
X151500Y129899D02*
Y126000D01*
X155399D01*
X155210Y126951D01*
X154105Y128605D01*
X152451Y129710D01*
X151500Y129899D01*
D02*
G37*
G36*
X149500D02*
X148549Y129710D01*
X146895Y128605D01*
X145790Y126951D01*
X145601Y126000D01*
X149500D01*
Y129899D01*
D02*
G37*
G36*
X282282Y124068D02*
Y120169D01*
X286181D01*
X285992Y121119D01*
X284887Y122773D01*
X283233Y123878D01*
X282282Y124068D01*
D02*
G37*
G36*
X280282D02*
X279331Y123878D01*
X277677Y122773D01*
X276572Y121119D01*
X276383Y120169D01*
X280282D01*
Y124068D01*
D02*
G37*
G36*
X155399Y124000D02*
X151500D01*
Y120101D01*
X152451Y120290D01*
X154105Y121395D01*
X155210Y123049D01*
X155399Y124000D01*
D02*
G37*
G36*
X149500D02*
X145601D01*
X145790Y123049D01*
X146895Y121395D01*
X148549Y120290D01*
X149500Y120101D01*
Y124000D01*
D02*
G37*
G36*
X183200Y120899D02*
Y117000D01*
X187099D01*
X186910Y117951D01*
X185805Y119605D01*
X184151Y120710D01*
X183200Y120899D01*
D02*
G37*
G36*
X181200D02*
X180249Y120710D01*
X178595Y119605D01*
X177490Y117951D01*
X177301Y117000D01*
X181200D01*
Y120899D01*
D02*
G37*
G36*
X20200Y120199D02*
Y116300D01*
X24099D01*
X23910Y117251D01*
X22805Y118905D01*
X21151Y120010D01*
X20200Y120199D01*
D02*
G37*
G36*
X18200D02*
X17249Y120010D01*
X15595Y118905D01*
X14490Y117251D01*
X14301Y116300D01*
X18200D01*
Y120199D01*
D02*
G37*
G36*
X286181Y118168D02*
X282282D01*
Y114270D01*
X283233Y114459D01*
X284887Y115564D01*
X285992Y117218D01*
X286181Y118168D01*
D02*
G37*
G36*
X280282D02*
X276383D01*
X276572Y117218D01*
X277677Y115564D01*
X279331Y114459D01*
X280282Y114270D01*
Y118168D01*
D02*
G37*
G36*
X187099Y115000D02*
X183200D01*
Y111101D01*
X184151Y111290D01*
X185805Y112395D01*
X186910Y114049D01*
X187099Y115000D01*
D02*
G37*
G36*
X181200D02*
X177301D01*
X177490Y114049D01*
X178595Y112395D01*
X180249Y111290D01*
X181200Y111101D01*
Y115000D01*
D02*
G37*
G36*
X24099Y114300D02*
X20200D01*
Y110401D01*
X21151Y110590D01*
X22805Y111695D01*
X23910Y113349D01*
X24099Y114300D01*
D02*
G37*
G36*
X18200D02*
X14301D01*
X14490Y113349D01*
X15595Y111695D01*
X17249Y110590D01*
X18200Y110401D01*
Y114300D01*
D02*
G37*
G36*
X259800Y106499D02*
Y102600D01*
X263699D01*
X263510Y103551D01*
X262405Y105205D01*
X260751Y106310D01*
X259800Y106499D01*
D02*
G37*
G36*
X257800D02*
X256849Y106310D01*
X255195Y105205D01*
X254090Y103551D01*
X253901Y102600D01*
X257800D01*
Y106499D01*
D02*
G37*
G36*
X131522Y104384D02*
Y100485D01*
X135421D01*
X135232Y101436D01*
X134126Y103090D01*
X132472Y104195D01*
X131522Y104384D01*
D02*
G37*
G36*
X129522D02*
X128571Y104195D01*
X126917Y103090D01*
X125812Y101436D01*
X125623Y100485D01*
X129522D01*
Y104384D01*
D02*
G37*
G36*
X263699Y100600D02*
X259800D01*
Y96701D01*
X260751Y96890D01*
X262405Y97995D01*
X263510Y99649D01*
X263699Y100600D01*
D02*
G37*
G36*
X257800D02*
X253901D01*
X254090Y99649D01*
X255195Y97995D01*
X256849Y96890D01*
X257800Y96701D01*
Y100600D01*
D02*
G37*
G36*
X172722Y99084D02*
Y95185D01*
X176621D01*
X176432Y96136D01*
X175326Y97790D01*
X173673Y98895D01*
X172722Y99084D01*
D02*
G37*
G36*
X170722D02*
X169771Y98895D01*
X168117Y97790D01*
X167012Y96136D01*
X166823Y95185D01*
X170722D01*
Y99084D01*
D02*
G37*
G36*
X135421Y98485D02*
X131522D01*
Y94586D01*
X132472Y94775D01*
X134126Y95880D01*
X135232Y97534D01*
X135421Y98485D01*
D02*
G37*
G36*
X129522D02*
X125623D01*
X125812Y97534D01*
X126917Y95880D01*
X128571Y94775D01*
X129522Y94586D01*
Y98485D01*
D02*
G37*
G36*
X80000Y109878D02*
X77650Y109568D01*
X75461Y108661D01*
X73581Y107219D01*
X72139Y105339D01*
X71232Y103149D01*
X70922Y100800D01*
X71232Y98450D01*
X72139Y96261D01*
X73581Y94381D01*
X75461Y92938D01*
X77650Y92032D01*
X80000Y91722D01*
X82350Y92032D01*
X84539Y92938D01*
X86419Y94381D01*
X87861Y96261D01*
X88768Y98450D01*
X89078Y100800D01*
X88768Y103149D01*
X87861Y105339D01*
X86419Y107219D01*
X84539Y108661D01*
X82350Y109568D01*
X80000Y109878D01*
D02*
G37*
G36*
X176621Y93185D02*
X172722D01*
Y89286D01*
X173673Y89475D01*
X175326Y90580D01*
X176432Y92234D01*
X176621Y93185D01*
D02*
G37*
G36*
X170722D02*
X166823D01*
X167012Y92234D01*
X168117Y90580D01*
X169771Y89475D01*
X170722Y89286D01*
Y93185D01*
D02*
G37*
G36*
X18182Y89968D02*
Y86069D01*
X22081D01*
X21892Y87020D01*
X20787Y88673D01*
X19133Y89778D01*
X18182Y89968D01*
D02*
G37*
G36*
X16182D02*
X15231Y89778D01*
X13578Y88673D01*
X12472Y87020D01*
X12283Y86069D01*
X16182D01*
Y89968D01*
D02*
G37*
G36*
X22081Y84069D02*
X18182D01*
Y80169D01*
X19133Y80359D01*
X20787Y81464D01*
X21892Y83118D01*
X22081Y84069D01*
D02*
G37*
G36*
X16182D02*
X12283D01*
X12472Y83118D01*
X13578Y81464D01*
X15231Y80359D01*
X16182Y80169D01*
Y84069D01*
D02*
G37*
G36*
X197000Y118188D02*
X195244Y117839D01*
X193756Y116844D01*
X192761Y115356D01*
X192412Y113600D01*
X192761Y111844D01*
X193756Y110356D01*
X195244Y109361D01*
X197000Y109012D01*
X198756Y109361D01*
X200244Y110356D01*
X200920Y111367D01*
X202294Y111461D01*
X237406Y76350D01*
Y67979D01*
X236456Y67344D01*
X235461Y65856D01*
X235112Y64100D01*
X235461Y62344D01*
X236456Y60856D01*
X237944Y59861D01*
X239700Y59512D01*
X241456Y59861D01*
X242944Y60856D01*
X243939Y62344D01*
X244288Y64100D01*
X243939Y65856D01*
X242944Y67344D01*
X241994Y67979D01*
Y77300D01*
X241819Y78178D01*
X241322Y78922D01*
X204622Y115622D01*
X203878Y116119D01*
X203000Y116294D01*
X200612D01*
X200244Y116844D01*
X198756Y117839D01*
X197000Y118188D01*
D02*
G37*
G36*
X174022Y59284D02*
Y55385D01*
X177921D01*
X177731Y56336D01*
X176626Y57990D01*
X174972Y59095D01*
X174022Y59284D01*
D02*
G37*
G36*
X172022D02*
X171071Y59095D01*
X169417Y57990D01*
X168312Y56336D01*
X168123Y55385D01*
X172022D01*
Y59284D01*
D02*
G37*
G36*
X123400Y55999D02*
Y52100D01*
X127299D01*
X127110Y53051D01*
X126005Y54705D01*
X124351Y55810D01*
X123400Y55999D01*
D02*
G37*
G36*
X121400D02*
X120449Y55810D01*
X118795Y54705D01*
X117690Y53051D01*
X117501Y52100D01*
X121400D01*
Y55999D01*
D02*
G37*
G36*
X177921Y53385D02*
X174022D01*
Y49486D01*
X174972Y49675D01*
X176626Y50780D01*
X177731Y52434D01*
X177921Y53385D01*
D02*
G37*
G36*
X172022D02*
X168123D01*
X168312Y52434D01*
X169417Y50780D01*
X171071Y49675D01*
X172022Y49486D01*
Y53385D01*
D02*
G37*
G36*
X127299Y50100D02*
X123400D01*
Y46201D01*
X124351Y46390D01*
X126005Y47495D01*
X127110Y49149D01*
X127299Y50100D01*
D02*
G37*
G36*
X121400D02*
X117501D01*
X117690Y49149D01*
X118795Y47495D01*
X120449Y46390D01*
X121400Y46201D01*
Y50100D01*
D02*
G37*
G36*
X80000Y59078D02*
X77650Y58768D01*
X75461Y57861D01*
X73581Y56419D01*
X72139Y54539D01*
X71232Y52350D01*
X70922Y50000D01*
X71232Y47650D01*
X72139Y45461D01*
X73581Y43581D01*
X75461Y42139D01*
X77650Y41232D01*
X80000Y40922D01*
X82350Y41232D01*
X84539Y42139D01*
X86419Y43581D01*
X87861Y45461D01*
X88768Y47650D01*
X89078Y50000D01*
X88768Y52350D01*
X87861Y54539D01*
X86419Y56419D01*
X84539Y57861D01*
X82350Y58768D01*
X80000Y59078D01*
D02*
G37*
G36*
X232382Y26568D02*
Y22669D01*
X236281D01*
X236092Y23619D01*
X234987Y25273D01*
X233333Y26379D01*
X232382Y26568D01*
D02*
G37*
G36*
X230382D02*
X229431Y26379D01*
X227778Y25273D01*
X226672Y23619D01*
X226483Y22669D01*
X230382D01*
Y26568D01*
D02*
G37*
G36*
X18182Y26368D02*
Y22469D01*
X22081D01*
X21892Y23419D01*
X20787Y25073D01*
X19133Y26179D01*
X18182Y26368D01*
D02*
G37*
G36*
X16182D02*
X15231Y26179D01*
X13578Y25073D01*
X12472Y23419D01*
X12283Y22469D01*
X16182D01*
Y26368D01*
D02*
G37*
G36*
X152382Y24668D02*
Y20768D01*
X156281D01*
X156092Y21719D01*
X154987Y23373D01*
X153333Y24478D01*
X152382Y24668D01*
D02*
G37*
G36*
X150382D02*
X149431Y24478D01*
X147778Y23373D01*
X146672Y21719D01*
X146483Y20768D01*
X150382D01*
Y24668D01*
D02*
G37*
G36*
X236281Y20669D02*
X232382D01*
Y16769D01*
X233333Y16959D01*
X234987Y18064D01*
X236092Y19718D01*
X236281Y20669D01*
D02*
G37*
G36*
X230382D02*
X226483D01*
X226672Y19718D01*
X227778Y18064D01*
X229431Y16959D01*
X230382Y16769D01*
Y20669D01*
D02*
G37*
G36*
X22081Y20469D02*
X18182D01*
Y16569D01*
X19133Y16759D01*
X20787Y17864D01*
X21892Y19518D01*
X22081Y20469D01*
D02*
G37*
G36*
X16182D02*
X12283D01*
X12472Y19518D01*
X13578Y17864D01*
X15231Y16759D01*
X16182Y16569D01*
Y20469D01*
D02*
G37*
G36*
X156281Y18769D02*
X152382D01*
Y14870D01*
X153333Y15059D01*
X154987Y16164D01*
X156092Y17818D01*
X156281Y18769D01*
D02*
G37*
G36*
X150382D02*
X146483D01*
X146672Y17818D01*
X147778Y16164D01*
X149431Y15059D01*
X150382Y14870D01*
Y18769D01*
D02*
G37*
%LPD*%
D16*
X219300Y202800D02*
Y202900D01*
Y202800D02*
Y203000D01*
D92*
X189600Y646200D02*
X234300D01*
X245200Y635300D01*
X175700Y632300D02*
X189600Y646200D01*
X212531Y619581D02*
X225001Y632050D01*
X177610Y619581D02*
X212531D01*
D93*
X224700Y631900D02*
X224850Y632050D01*
X225400Y484500D02*
X225500Y484400D01*
Y448000D02*
Y484400D01*
X102500Y280300D02*
Y350300D01*
Y259300D02*
Y280300D01*
X121929D02*
X134429Y267800D01*
X102500Y280300D02*
X121929D01*
X134429Y267800D02*
X134700D01*
X245500Y448000D02*
Y483200D01*
X245800Y483500D01*
X95200Y450300D02*
X113400D01*
X113500Y450400D01*
X95100Y450200D02*
X95200Y450300D01*
X190700Y283900D02*
X242829D01*
X244729Y285800D01*
X245000D01*
X117651Y90185D02*
X117922D01*
X80000Y126200D02*
X81636D01*
X117651Y90185D01*
X111800Y158000D02*
X126400D01*
X80000Y126200D02*
X111800Y158000D01*
X126667Y182067D02*
X147200Y202600D01*
X126400Y158000D02*
X126438Y158038D01*
X126667Y177475D02*
Y182067D01*
X126438Y158038D02*
Y177246D01*
D94*
X43850Y276450D02*
Y311950D01*
X57500Y259300D02*
Y262800D01*
X43850Y276450D02*
X57500Y262800D01*
Y325600D02*
Y350300D01*
X43850Y311950D02*
X57500Y325600D01*
X239700Y338400D02*
X264500Y313600D01*
X264900D01*
X221700Y338400D02*
X239700D01*
X144134Y484466D02*
X144500Y484833D01*
X157233D02*
X157600Y485200D01*
X144500Y484833D02*
X157233D01*
X114500Y134600D02*
X114732Y134368D01*
X119750D01*
X127518Y126600D01*
X147900Y562800D02*
X156700Y571600D01*
Y578900D01*
X153800Y516600D02*
X197400D01*
X153571Y516371D02*
X153800Y516600D01*
X130000Y522600D02*
X136229Y516371D01*
X153571D01*
X139500Y562800D02*
X147900D01*
X156050Y236450D02*
X167300Y247700D01*
X167300D01*
X158400Y307900D02*
Y308000D01*
X145000Y294500D02*
X158400Y307900D01*
X145000Y286800D02*
Y294500D01*
X117700Y148900D02*
X118400Y148200D01*
X126800D01*
X137200Y158600D01*
X127518Y126600D02*
X131675D01*
X159700Y147000D02*
X234900D01*
X131675Y126600D02*
X134325Y129250D01*
X136875D01*
X149412Y141788D01*
X135800Y123300D02*
X136000D01*
X149412Y141788D02*
Y151437D01*
X134700Y134500D02*
X135361Y135161D01*
Y139750D01*
X136000Y123300D02*
X159700Y147000D01*
X212200Y150000D02*
X216100Y153900D01*
X183809Y152300D02*
X186109Y150000D01*
X212200D01*
X157700Y152300D02*
X183809D01*
X216100Y153900D02*
X237300D01*
X135361Y139750D02*
X136111Y140500D01*
X115379Y213200D02*
X144025D01*
X114500Y214079D02*
X115379Y213200D01*
X114500Y214079D02*
Y214700D01*
X155408Y201008D02*
Y201816D01*
X144025Y213200D02*
X155408Y201816D01*
X164600Y166625D02*
Y208275D01*
X149412Y151437D02*
X164600Y166625D01*
X237300Y153900D02*
X244800Y146400D01*
X234900Y147000D02*
X235000Y146900D01*
X154904Y164637D02*
X156237D01*
X136111Y140500D02*
Y145843D01*
X154904Y164637D01*
X156237D02*
X161600Y170000D01*
Y204675D01*
X112800Y224379D02*
X113679Y223500D01*
X112800Y224379D02*
Y224500D01*
X113679Y223500D02*
X147500D01*
X161300Y211575D02*
Y212400D01*
Y211575D02*
X164600Y208275D01*
X203000Y114000D02*
X239700Y77300D01*
X197400Y114000D02*
X203000D01*
X197000Y113600D02*
X197400Y114000D01*
X239700Y64100D02*
Y77300D01*
X156050Y210225D02*
X161600Y204675D01*
X156050Y210225D02*
Y236450D01*
D95*
X225500Y523771D02*
Y549200D01*
X225400Y512900D02*
Y523671D01*
X225300Y512800D02*
X225400Y512900D01*
Y523671D02*
X225500Y523771D01*
X231417Y363800D02*
X254900D01*
X231274Y363943D02*
X231417Y363800D01*
X125700Y441200D02*
Y492000D01*
Y441200D02*
X128000Y438900D01*
D97*
X80000Y50000D02*
D03*
Y100800D02*
D03*
Y126200D02*
D03*
Y151600D02*
D03*
D98*
X176100Y659200D02*
D03*
X233900D02*
D03*
D99*
X174200Y459600D02*
D03*
X232382Y609669D02*
D03*
X225001Y632050D02*
D03*
X82600Y619000D02*
D03*
X177610Y619581D02*
D03*
X175700Y632300D02*
D03*
X116082Y415769D02*
D03*
X235882Y303669D02*
D03*
X81282Y309268D02*
D03*
X120582Y122769D02*
D03*
X17182Y85069D02*
D03*
Y21469D02*
D03*
X151382Y19769D02*
D03*
X231382Y21669D02*
D03*
X281282Y119169D02*
D03*
X289282Y251169D02*
D03*
X87182Y678969D02*
D03*
X144282Y418169D02*
D03*
X281282Y684169D02*
D03*
X151511Y501762D02*
D03*
X201382Y693869D02*
D03*
X288182Y536768D02*
D03*
X14082Y379969D02*
D03*
X197400Y516600D02*
D03*
X156700Y578900D02*
D03*
X113500Y450400D02*
D03*
X95100Y450200D02*
D03*
X114500Y134600D02*
D03*
X144134Y484466D02*
D03*
X245800Y483500D02*
D03*
X264900Y313600D02*
D03*
X43850Y311950D02*
D03*
X102500Y280300D02*
D03*
X134700Y267800D02*
D03*
X225400Y484500D02*
D03*
X126475Y177475D02*
D03*
X147200Y202600D02*
D03*
X161300Y212400D02*
D03*
X239700Y64100D02*
D03*
X197000Y113600D02*
D03*
X147500Y223500D02*
D03*
X112800Y224500D02*
D03*
X235000Y146900D02*
D03*
X244800Y146400D02*
D03*
X157700Y152300D02*
D03*
X155408Y201008D02*
D03*
X114500Y214700D02*
D03*
X126400Y158000D02*
D03*
X137200Y158600D02*
D03*
X245200Y635300D02*
D03*
X134700Y134500D02*
D03*
X135800Y123300D02*
D03*
X117922Y90185D02*
D03*
X117700Y148900D02*
D03*
X145000Y286800D02*
D03*
X190700Y283900D02*
D03*
X158400Y308000D02*
D03*
X167300Y247700D02*
D03*
X245000Y285800D02*
D03*
X139500Y562800D02*
D03*
X130000Y522600D02*
D03*
X40182Y682969D02*
D03*
X38182Y611069D02*
D03*
X26582Y273468D02*
D03*
X157600Y485200D02*
D03*
X289300Y430100D02*
D03*
X274100Y194200D02*
D03*
X187100Y562700D02*
D03*
X150500Y125000D02*
D03*
X232000Y245100D02*
D03*
X258800Y101600D02*
D03*
X157565Y247735D02*
D03*
X257600Y221800D02*
D03*
X130522Y99485D02*
D03*
X173022Y54385D02*
D03*
X122400Y51100D02*
D03*
X182200Y116000D02*
D03*
X131850Y198500D02*
D03*
X265300Y351000D02*
D03*
X12700Y308000D02*
D03*
X66200Y237700D02*
D03*
X133100Y677400D02*
D03*
X254800Y640600D02*
D03*
X19200Y115300D02*
D03*
X171722Y94185D02*
D03*
X204000Y384000D02*
D03*
X205400Y303300D02*
D03*
X141500Y307000D02*
D03*
X168600Y308000D02*
D03*
X165200Y276900D02*
D03*
X126800Y299500D02*
D03*
X119100Y598300D02*
D03*
X206200Y602000D02*
D03*
X194200Y525500D02*
D03*
X75500Y509400D02*
D03*
X156800Y549300D02*
D03*
X155000Y427700D02*
D03*
X287800Y598800D02*
D03*
D100*
X205300Y192300D02*
D03*
Y180300D02*
D03*
Y168300D02*
D03*
X193300Y192300D02*
D03*
Y180300D02*
D03*
Y168300D02*
D03*
X181300Y192300D02*
D03*
Y180300D02*
D03*
Y168300D02*
D03*
D101*
X125700Y492000D02*
D03*
X128000Y438900D02*
D03*
X231274Y363943D02*
D03*
X225300Y512800D02*
D03*
D102*
X57500Y259300D02*
D03*
Y350300D02*
D03*
X102500Y259300D02*
D03*
Y350300D02*
D03*
D103*
X221700Y389200D02*
D03*
X254900Y363800D02*
D03*
X221700Y338400D02*
D03*
D104*
X225500Y549200D02*
D03*
X245500D02*
D03*
X225500Y448000D02*
D03*
X245500D02*
D03*
D105*
X201500Y571700D02*
D03*
X269500D02*
D03*
X201500Y470500D02*
D03*
X269500D02*
D03*
M02*
