G04*
G04 #@! TF.GenerationSoftware,Altium Limited,Altium Designer,21.3.2 (30)*
G04*
G04 Layer_Physical_Order=1*
G04 Layer_Color=255*
%FSLAX44Y44*%
%MOMM*%
G71*
G04*
G04 #@! TF.SameCoordinates,93AE1877-D90B-42EB-A32C-D5F199EAFC0F*
G04*
G04*
G04 #@! TF.FilePolarity,Positive*
G04*
G01*
G75*
%ADD10C,0.2500*%
%ADD14C,0.2000*%
%ADD15C,0.3000*%
%ADD16C,0.1000*%
%ADD19R,0.2100X0.8000*%
%ADD20R,1.5000X0.8400*%
%ADD21O,0.9000X0.2800*%
%ADD22O,0.2800X0.9000*%
%ADD23R,1.2500X1.2500*%
%ADD24R,0.6500X1.0500*%
%ADD25R,1.5000X1.5000*%
%ADD26P,1.6236X8X112.5*%
%ADD27O,0.6700X0.3000*%
%ADD28R,0.6700X0.3000*%
%ADD29R,0.6500X0.9000*%
%ADD30O,0.6500X0.9000*%
%ADD31R,0.6000X0.8500*%
%ADD32R,1.9000X0.6000*%
%ADD33O,1.9000X0.6000*%
%ADD34R,3.6000X3.6000*%
%ADD35O,0.7000X0.2500*%
%ADD36O,0.2500X0.7000*%
%ADD37R,0.9000X0.8000*%
%ADD38O,0.2800X0.8000*%
%ADD39O,0.8000X0.2800*%
%ADD40R,0.8000X0.2800*%
%ADD41P,0.8659X8X202.5*%
%ADD42R,0.8000X0.8000*%
%ADD43R,1.4000X3.7000*%
%ADD44R,2.0000X2.0000*%
%ADD45P,2.1648X8X202.5*%
%ADD46R,1.1500X1.4000*%
%ADD47R,1.3000X0.9000*%
%ADD48R,0.2800X1.1500*%
%ADD49R,0.5600X1.1500*%
%ADD50R,1.5000X1.5000*%
%ADD51R,0.8000X0.9000*%
%ADD52R,0.9000X1.3000*%
%ADD92C,0.8000*%
%ADD93C,0.5000*%
%ADD94C,0.1500*%
%ADD95C,1.0000*%
%ADD96C,0.2100*%
%ADD97C,1.5000*%
%ADD98C,0.6500*%
%ADD99C,0.6000*%
%ADD100C,0.6600*%
%ADD101C,1.0000*%
G36*
X292941Y602391D02*
X291671Y602006D01*
X291405Y602405D01*
X289751Y603510D01*
X288800Y603699D01*
Y598800D01*
Y593901D01*
X289751Y594090D01*
X291405Y595195D01*
X291671Y595594D01*
X292941Y595209D01*
Y540932D01*
X292223Y540584D01*
X291671Y540451D01*
X290133Y541478D01*
X289182Y541668D01*
Y536768D01*
Y531870D01*
X290133Y532059D01*
X291671Y533086D01*
X292223Y532953D01*
X292941Y532605D01*
Y435208D01*
X291671Y434529D01*
X291251Y434810D01*
X290300Y434999D01*
Y430100D01*
Y425201D01*
X291251Y425390D01*
X291671Y425671D01*
X292941Y424992D01*
Y256265D01*
X291671Y255586D01*
X291233Y255879D01*
X290282Y256068D01*
Y251169D01*
X288282D01*
Y256068D01*
X287332Y255879D01*
X286574Y255372D01*
X285304Y256051D01*
Y425229D01*
X286574Y425908D01*
X287349Y425390D01*
X288300Y425201D01*
Y430100D01*
Y434999D01*
X287349Y434810D01*
X286574Y434292D01*
X285304Y434971D01*
Y511825D01*
X285090Y512898D01*
X284483Y513808D01*
X243304Y554986D01*
Y560000D01*
X247000D01*
Y572000D01*
X234000D01*
Y560861D01*
X232730Y560335D01*
X229400Y563665D01*
Y572200D01*
X216400D01*
Y560200D01*
X224935D01*
X276696Y508439D01*
Y238857D01*
X276910Y237784D01*
X277517Y236875D01*
X284046Y230346D01*
Y228203D01*
X282873Y227717D01*
X270704Y239886D01*
Y309382D01*
X270490Y310455D01*
X269883Y311365D01*
X269605Y311642D01*
X269610Y311649D01*
X269998Y313600D01*
X269610Y315551D01*
X268505Y317205D01*
X267704Y317740D01*
Y319000D01*
X271500D01*
Y331000D01*
X258500D01*
Y322021D01*
X258446Y321750D01*
X258500Y321479D01*
Y319000D01*
X260182D01*
X261333Y317876D01*
X261295Y317205D01*
X260190Y315551D01*
X259802Y313600D01*
X260190Y311649D01*
X261295Y309995D01*
X262949Y308890D01*
X264794Y308523D01*
X265096Y308221D01*
Y295407D01*
X263923Y294921D01*
X255004Y303840D01*
Y401396D01*
X263583Y409975D01*
X264190Y410884D01*
X264404Y411957D01*
Y490200D01*
X264190Y491273D01*
X263583Y492183D01*
X232083Y523683D01*
X231173Y524290D01*
X230100Y524504D01*
X203500D01*
X202427Y524290D01*
X201517Y523683D01*
X200028Y522193D01*
X199590Y522280D01*
X198966Y523445D01*
X198941Y523704D01*
X199099Y524500D01*
X189301D01*
X189490Y523549D01*
X190595Y521895D01*
X192249Y520790D01*
X192132Y519519D01*
X192082Y519404D01*
X186200D01*
Y521400D01*
X180200D01*
Y523400D01*
X186200D01*
Y528900D01*
X187115Y529758D01*
X187142Y529776D01*
X189365Y532000D01*
X198400D01*
Y544000D01*
X185400D01*
Y535965D01*
X183998Y534563D01*
X180550D01*
Y537300D01*
X177500D01*
Y539300D01*
X180550D01*
Y544300D01*
X179000D01*
Y548300D01*
X169500D01*
Y550300D01*
X179000D01*
Y554300D01*
X180550D01*
Y559604D01*
X181766Y560398D01*
X182744Y560173D01*
X182829Y560092D01*
X183495Y559095D01*
X185149Y557990D01*
X185400Y557940D01*
Y554000D01*
X198400D01*
Y559000D01*
X192169D01*
X191490Y560270D01*
X191810Y560749D01*
X191999Y561700D01*
X187100D01*
Y563700D01*
X191999D01*
X191810Y564651D01*
X191484Y565138D01*
X192163Y566408D01*
X192812D01*
X193885Y566622D01*
X194795Y567230D01*
X198365Y570800D01*
X207400D01*
Y582800D01*
X194400D01*
Y574765D01*
X192570Y572935D01*
X191300Y573461D01*
Y582800D01*
X178300D01*
Y574765D01*
X176373Y572839D01*
X175200Y573325D01*
Y582800D01*
X162200D01*
Y581954D01*
X160930Y581569D01*
X160305Y582505D01*
X158651Y583610D01*
X156700Y583998D01*
X154801Y583620D01*
X154719Y583674D01*
X154054Y584669D01*
X155192Y585808D01*
X155417Y586100D01*
X157200D01*
Y590341D01*
X157260Y590800D01*
Y591499D01*
X157315Y591570D01*
X158020Y593273D01*
X158260Y595100D01*
Y605682D01*
X170100D01*
X170691Y605800D01*
X171300D01*
Y605921D01*
X172441Y606148D01*
X174426Y607474D01*
X181814Y614863D01*
X182988Y614377D01*
Y612820D01*
X188488D01*
Y617820D01*
X186431D01*
X185945Y618993D01*
X187654Y620702D01*
X205588D01*
X206179Y620820D01*
X212088D01*
Y627738D01*
X213261Y628224D01*
X217277Y624207D01*
X217047Y623050D01*
Y620550D01*
X217455Y618502D01*
X218615Y616765D01*
X219596Y616109D01*
Y604300D01*
X217150D01*
Y591300D01*
X220096D01*
Y587200D01*
X216400D01*
Y575200D01*
X229400D01*
Y587200D01*
X225704D01*
Y591300D01*
X227650D01*
Y591548D01*
X228920Y592227D01*
X229852Y591605D01*
X230900Y591396D01*
Y597800D01*
X232900D01*
Y591396D01*
X233948Y591605D01*
X235685Y592765D01*
X236015Y593259D01*
X237285D01*
X237615Y592765D01*
X238596Y592109D01*
Y587000D01*
X234000D01*
Y575000D01*
X247000D01*
Y587000D01*
X244204D01*
Y592109D01*
X245185Y592765D01*
X246345Y594502D01*
X246753Y596550D01*
Y599050D01*
X246345Y601098D01*
X245185Y602835D01*
X244204Y603491D01*
Y616109D01*
X245185Y616765D01*
X246345Y618502D01*
X246753Y620550D01*
Y623050D01*
X246345Y625098D01*
X245185Y626835D01*
X243448Y627995D01*
X241400Y628403D01*
X240264Y628177D01*
X238711Y629730D01*
X239197Y630903D01*
X242781D01*
X243249Y630590D01*
X245200Y630202D01*
X247151Y630590D01*
X248805Y631695D01*
X249910Y633349D01*
X250298Y635300D01*
X250085Y636371D01*
X250973Y636870D01*
X251265Y636949D01*
X252849Y635890D01*
X253800Y635701D01*
Y639600D01*
X249901D01*
X249915Y639529D01*
X249027Y639030D01*
X248735Y638951D01*
X247151Y640010D01*
X245200Y640398D01*
X243599Y640079D01*
X242834D01*
X241800Y640650D01*
Y647400D01*
X237000D01*
Y649400D01*
X241800D01*
Y656150D01*
X239587D01*
X238899Y657420D01*
X239253Y659200D01*
X238845Y661248D01*
X237685Y662985D01*
X235948Y664145D01*
X233900Y664553D01*
X231852Y664145D01*
X230115Y662985D01*
X228955Y661248D01*
X228547Y659200D01*
X228901Y657420D01*
X228213Y656150D01*
X220304D01*
Y660760D01*
X227040Y667496D01*
X262839D01*
X264517Y665817D01*
Y663700D01*
X257200D01*
Y654200D01*
X256200D01*
Y653200D01*
X246700D01*
Y644700D01*
X249999D01*
X250678Y643430D01*
X250090Y642551D01*
X249901Y641600D01*
X259699D01*
X259510Y642551D01*
X258923Y643430D01*
X259601Y644700D01*
X264517D01*
Y636083D01*
X260735Y632300D01*
X252200D01*
Y620300D01*
X265200D01*
Y628835D01*
X267127Y630761D01*
X268300Y630275D01*
Y620300D01*
X281300D01*
Y632300D01*
X274004D01*
Y667600D01*
X273790Y668673D01*
X273183Y669583D01*
X265983Y676783D01*
X265073Y677390D01*
X264000Y677604D01*
X199100D01*
X198027Y677390D01*
X197117Y676783D01*
X185517Y665183D01*
X184910Y664273D01*
X184696Y663200D01*
Y656150D01*
X181787D01*
X181099Y657420D01*
X181453Y659200D01*
X181045Y661248D01*
X179885Y662985D01*
X178148Y664145D01*
X176100Y664553D01*
X174052Y664145D01*
X172315Y662985D01*
X171155Y661248D01*
X170747Y659200D01*
X171101Y657420D01*
X170413Y656150D01*
X168200D01*
Y649400D01*
X173000D01*
Y648400D01*
X174000D01*
Y640650D01*
X176121D01*
X176291Y639380D01*
X175237Y638325D01*
X174738Y638226D01*
X170609D01*
X168268Y637761D01*
X166283Y636434D01*
X162649Y632800D01*
X158300D01*
Y620800D01*
X164209D01*
X164800Y620682D01*
X165300D01*
X165891Y620800D01*
X168789D01*
X169275Y619627D01*
X167566Y617918D01*
X156980D01*
X155292Y618617D01*
X155100Y618808D01*
Y625500D01*
X149100Y631500D01*
X137100D01*
X131100Y625500D01*
Y613500D01*
X137100Y607500D01*
X144140D01*
Y597701D01*
X144086Y597630D01*
X143380Y595927D01*
X143140Y594100D01*
Y593725D01*
X141007Y591592D01*
X139886Y590130D01*
X139470Y589127D01*
X138200Y589380D01*
Y593600D01*
X132700D01*
Y586100D01*
X137670D01*
X138200Y586100D01*
X138940Y585136D01*
Y580760D01*
X134400D01*
Y582900D01*
X115400D01*
Y563900D01*
X123876D01*
X124361Y562727D01*
X109873Y548238D01*
X108700Y548725D01*
Y559700D01*
X105504D01*
Y562800D01*
X108700D01*
Y575800D01*
X96700D01*
Y562800D01*
X99896D01*
Y559700D01*
X96700D01*
Y550665D01*
X94970Y548935D01*
X93700Y549461D01*
Y559700D01*
X81700D01*
Y556004D01*
X78600D01*
Y556200D01*
X75600Y559200D01*
X69600D01*
X66600Y556200D01*
Y550200D01*
X69600Y547200D01*
X75600D01*
X78600Y550200D01*
Y550396D01*
X81700D01*
Y546700D01*
X92508D01*
X93441Y546700D01*
X93646Y546450D01*
X93646Y545473D01*
Y543600D01*
X81700D01*
Y539904D01*
X78600D01*
Y540100D01*
X75600Y543100D01*
X69600D01*
X66600Y540100D01*
Y535385D01*
X65330Y534859D01*
X62600Y537589D01*
Y543100D01*
X61188D01*
Y547200D01*
X62600D01*
Y559200D01*
X62600Y559200D01*
X62600D01*
X63136Y560247D01*
X67600Y564712D01*
X81700D01*
Y562800D01*
X93700D01*
Y575800D01*
X81700D01*
Y573888D01*
X65700D01*
X63944Y573539D01*
X62456Y572544D01*
X54156Y564244D01*
X53161Y562756D01*
X52812Y561000D01*
Y559200D01*
X50600D01*
Y547200D01*
X52012D01*
Y543100D01*
X50600D01*
Y531100D01*
X56111D01*
X60412Y526800D01*
Y464429D01*
X60761Y462673D01*
X61756Y461185D01*
X69585Y453356D01*
X71073Y452361D01*
X72829Y452012D01*
X85975D01*
X86681Y451305D01*
X88169Y450311D01*
X88245Y450296D01*
X90512Y448029D01*
Y347406D01*
X90861Y345650D01*
X91856Y344162D01*
X97912Y338106D01*
Y282433D01*
X97790Y282251D01*
X97402Y280300D01*
X97790Y278349D01*
X98895Y276695D01*
X100549Y275590D01*
X102500Y275202D01*
X104451Y275590D01*
X106105Y276695D01*
X107210Y278349D01*
X107598Y280300D01*
X107210Y282251D01*
X107088Y282433D01*
Y338723D01*
X108358Y339249D01*
X110596Y337011D01*
Y264279D01*
X110810Y263206D01*
X111417Y262297D01*
X118396Y255318D01*
Y239128D01*
X117223Y238642D01*
X103183Y252683D01*
X102273Y253290D01*
X101200Y253504D01*
X76300D01*
Y257200D01*
X64300D01*
Y244200D01*
X76300D01*
Y247896D01*
X100039D01*
X115396Y232539D01*
Y230190D01*
X114126Y229334D01*
X112800Y229598D01*
X110849Y229210D01*
X109195Y228105D01*
X108660Y227304D01*
X103950D01*
Y231850D01*
X93450D01*
Y217350D01*
X95896D01*
Y190450D01*
X93450D01*
Y175950D01*
X103950D01*
Y190450D01*
X101504D01*
Y217350D01*
X103950D01*
Y221696D01*
X108660D01*
X109195Y220895D01*
X110661Y219916D01*
X110850Y219787D01*
X111104Y218444D01*
X110895Y218305D01*
X109790Y216651D01*
X109402Y214700D01*
X109790Y212749D01*
X110895Y211095D01*
X111496Y210694D01*
Y209200D01*
X107800D01*
Y197200D01*
X118396D01*
Y194200D01*
X107800D01*
Y182200D01*
X111496D01*
Y162365D01*
X110226Y161839D01*
X108583Y163483D01*
X107673Y164090D01*
X106600Y164304D01*
X70961D01*
X62004Y173261D01*
Y181700D01*
X61950Y181971D01*
Y191450D01*
X59504D01*
Y218350D01*
X61950D01*
Y232850D01*
X51450D01*
Y218350D01*
X53896D01*
Y191450D01*
X51450D01*
Y176950D01*
X56396D01*
Y172100D01*
X56610Y171027D01*
X57217Y170117D01*
X67817Y159517D01*
X68727Y158910D01*
X69800Y158696D01*
X71870D01*
X72496Y157426D01*
X71702Y156391D01*
X70745Y154080D01*
X70418Y151600D01*
X70745Y149120D01*
X71702Y146809D01*
X73225Y144825D01*
X75209Y143302D01*
X75276Y143274D01*
X75024Y142004D01*
X40100D01*
Y147200D01*
X27100D01*
Y142004D01*
X24000D01*
Y147200D01*
X11000D01*
Y135200D01*
X24000D01*
Y136396D01*
X27100D01*
Y135200D01*
X40100D01*
Y136396D01*
X76472D01*
X76725Y135126D01*
X75209Y134498D01*
X73225Y132976D01*
X71702Y130991D01*
X70745Y128680D01*
X70418Y126200D01*
X70745Y123720D01*
X71702Y121409D01*
X73225Y119425D01*
X75209Y117902D01*
X77520Y116945D01*
X80000Y116618D01*
X82480Y116945D01*
X84791Y117902D01*
X86775Y119425D01*
X88298Y121409D01*
X89255Y123720D01*
X89582Y126200D01*
X89255Y128680D01*
X88298Y130991D01*
X86775Y132976D01*
X84791Y134498D01*
X83275Y135126D01*
X83528Y136396D01*
X91996D01*
Y116761D01*
X84467Y109232D01*
X82480Y110056D01*
X80000Y110382D01*
X77520Y110056D01*
X75209Y109098D01*
X73225Y107576D01*
X71702Y105591D01*
X70745Y103280D01*
X70418Y100800D01*
X70745Y98320D01*
X71702Y96009D01*
X73225Y94025D01*
X75209Y92502D01*
X77520Y91545D01*
X80000Y91218D01*
X82480Y91545D01*
X84791Y92502D01*
X86775Y94025D01*
X88298Y96009D01*
X89255Y98320D01*
X89582Y100800D01*
X89255Y103280D01*
X88432Y105267D01*
X96783Y113617D01*
X97390Y114527D01*
X97604Y115600D01*
Y136396D01*
X108468D01*
X109511Y135150D01*
X109402Y134600D01*
X109790Y132649D01*
X110895Y130995D01*
X112549Y129890D01*
X114500Y129502D01*
X116451Y129890D01*
X118105Y130995D01*
X119210Y132649D01*
X119598Y134600D01*
X119210Y136551D01*
X118105Y138205D01*
X116451Y139310D01*
X114500Y139698D01*
X114151Y139629D01*
X112597Y141183D01*
X111688Y141790D01*
X110615Y142004D01*
X84976D01*
X84724Y143274D01*
X84791Y143302D01*
X86775Y144825D01*
X88298Y146809D01*
X89255Y149120D01*
X89582Y151600D01*
X89255Y154080D01*
X88298Y156391D01*
X87504Y157426D01*
X88130Y158696D01*
X105439D01*
X108916Y155219D01*
Y154881D01*
X109129Y153807D01*
X109737Y152898D01*
X112790Y149845D01*
X112602Y148900D01*
X112990Y146949D01*
X114095Y145295D01*
X115749Y144190D01*
X117700Y143802D01*
X119651Y144190D01*
X121305Y145295D01*
X122338Y146841D01*
X122635Y147043D01*
X123631Y147345D01*
X130670Y140305D01*
X131386Y139827D01*
X131563Y138972D01*
X131550Y138409D01*
X131095Y138105D01*
X129990Y136451D01*
X129602Y134500D01*
X129790Y133555D01*
X128439Y132204D01*
X127831Y131295D01*
X127618Y130222D01*
Y123788D01*
X126709Y123048D01*
X125542Y123464D01*
X125292Y124719D01*
X124187Y126373D01*
X122533Y127479D01*
X120582Y127866D01*
X118631Y127479D01*
X116978Y126373D01*
X115872Y124719D01*
X115484Y122769D01*
X115872Y120818D01*
X116978Y119164D01*
X118631Y118059D01*
X120021Y117782D01*
X120491Y116456D01*
X107217Y103183D01*
X106610Y102273D01*
X106396Y101200D01*
Y56800D01*
X106610Y55727D01*
X107217Y54817D01*
X118167Y43867D01*
X119077Y43260D01*
X120150Y43046D01*
X138350D01*
X139423Y43260D01*
X140333Y43867D01*
X147383Y50917D01*
X147991Y51827D01*
X148204Y52900D01*
Y53367D01*
X149400Y54074D01*
Y60000D01*
Y65868D01*
X149073Y65803D01*
X147949Y65051D01*
X147851D01*
X146727Y65803D01*
X145400Y66067D01*
X144073Y65803D01*
X144064Y65797D01*
X143399Y66221D01*
X143035Y66636D01*
X143267Y67800D01*
X143003Y69127D01*
X142251Y70251D01*
Y70349D01*
X143003Y71473D01*
X143267Y72800D01*
X143003Y74127D01*
X142251Y75251D01*
Y75349D01*
X143003Y76473D01*
X143267Y77800D01*
X143201Y78130D01*
X143200Y79152D01*
X143399Y79379D01*
X143582Y79496D01*
X144400Y79701D01*
Y85600D01*
Y91468D01*
X144073Y91403D01*
X142949Y90651D01*
X142197Y89527D01*
X141933Y88200D01*
Y86200D01*
X131200D01*
Y86114D01*
X125722D01*
Y86285D01*
X122701D01*
Y88584D01*
X122741Y88787D01*
X126766Y92811D01*
X127761Y94300D01*
X129128Y94664D01*
X129522Y94586D01*
Y99485D01*
X131522D01*
Y94586D01*
X132472Y94775D01*
X134126Y95880D01*
X134970Y97142D01*
X136222Y97185D01*
X136222Y97185D01*
X136222Y97185D01*
X141222D01*
Y103685D01*
X142222D01*
Y104685D01*
X148222D01*
Y107597D01*
X150492D01*
X151133Y106956D01*
Y105185D01*
X151222Y104742D01*
Y97185D01*
X152086D01*
Y92573D01*
X151400Y92039D01*
Y85600D01*
Y79161D01*
X152086Y78626D01*
Y66974D01*
X151400Y66439D01*
Y60000D01*
Y54132D01*
X151727Y54197D01*
X152851Y54949D01*
X152949D01*
X154073Y54197D01*
X155400Y53933D01*
X156727Y54197D01*
X157851Y54949D01*
X158603Y56073D01*
X158867Y57400D01*
Y58725D01*
X160137Y59505D01*
X161000Y59333D01*
X166200D01*
X167527Y59597D01*
X168651Y60349D01*
X169403Y61473D01*
X169667Y62800D01*
X169403Y64127D01*
X168651Y65251D01*
Y65349D01*
X169403Y66473D01*
X169468Y66800D01*
X163600D01*
Y68800D01*
X169526D01*
X170233Y69996D01*
X172600D01*
X173673Y70210D01*
X174583Y70817D01*
X176113Y72348D01*
X177286Y71862D01*
Y65450D01*
X177539Y64182D01*
X178257Y63107D01*
X191670Y49693D01*
X191602Y49350D01*
X191990Y47399D01*
X193095Y45745D01*
X194749Y44640D01*
X196700Y44252D01*
X209700D01*
X211651Y44640D01*
X213305Y45745D01*
X214410Y47399D01*
X214798Y49350D01*
X214410Y51301D01*
X213305Y52955D01*
X211651Y54060D01*
X209700Y54448D01*
X196700D01*
X196357Y54380D01*
X194677Y56060D01*
X195302Y57230D01*
X196700Y56952D01*
X209700D01*
X211651Y57340D01*
X213305Y58445D01*
X214410Y60099D01*
X214798Y62050D01*
X214410Y64001D01*
X213458Y65426D01*
X213858Y66696D01*
X234010D01*
X234866Y65426D01*
X234602Y64100D01*
X234990Y62149D01*
X236095Y60495D01*
X237749Y59390D01*
X239700Y59002D01*
X241651Y59390D01*
X243305Y60495D01*
X243840Y61296D01*
X247789D01*
X258700Y50385D01*
Y44350D01*
X281700D01*
Y54350D01*
X262665D01*
X260102Y56913D01*
X260912Y57900D01*
X261749Y57340D01*
X263700Y56952D01*
X276700D01*
X278651Y57340D01*
X280305Y58445D01*
X281410Y60099D01*
X281798Y62050D01*
X281410Y64001D01*
X281050Y64539D01*
X284783Y68271D01*
X285390Y69181D01*
X285604Y70254D01*
Y89300D01*
X285390Y90373D01*
X284783Y91283D01*
X266783Y109283D01*
X265873Y109890D01*
X264800Y110104D01*
X220761D01*
X213604Y117261D01*
Y151896D01*
X213862Y152282D01*
X214114Y153550D01*
Y158050D01*
X214024Y158500D01*
X215100Y159576D01*
X215550Y159486D01*
X216496D01*
Y148357D01*
X216710Y147284D01*
X217317Y146375D01*
X228375Y135317D01*
X229284Y134710D01*
X230357Y134496D01*
X275000D01*
X276073Y134710D01*
X276983Y135317D01*
X291671Y150006D01*
X292327Y149888D01*
X292941Y149541D01*
Y20612D01*
X291926Y19998D01*
X262600D01*
Y7059D01*
X7059D01*
Y305157D01*
X8329Y305542D01*
X9095Y304395D01*
X10749Y303290D01*
X11700Y303101D01*
Y308000D01*
Y312899D01*
X10749Y312710D01*
X9095Y311605D01*
X8329Y310458D01*
X7059Y310843D01*
X7059Y714941D01*
X292941D01*
Y602391D01*
D02*
G37*
G36*
X152245Y557470D02*
X151837Y556297D01*
X151756Y556200D01*
X148100D01*
Y550200D01*
X147100D01*
Y549200D01*
X140600D01*
Y545760D01*
X131790D01*
X129650Y547900D01*
X120150D01*
X115400Y543150D01*
Y533650D01*
X117473Y531577D01*
X116987Y530404D01*
X109889D01*
X108700Y530600D01*
Y539135D01*
X129562Y559996D01*
X135360D01*
X135895Y559195D01*
X137549Y558090D01*
X139500Y557702D01*
X141451Y558090D01*
X143105Y559195D01*
X144210Y560849D01*
X144598Y562800D01*
X144469Y563451D01*
X145639Y564076D01*
X152245Y557470D01*
D02*
G37*
G36*
X81700Y530600D02*
X93700D01*
X94467Y529685D01*
X95785Y528367D01*
X96695Y527760D01*
X96795Y527740D01*
X98917Y525617D01*
X99081Y525508D01*
X98773Y524186D01*
X98129Y524102D01*
X97357Y523782D01*
X93957D01*
Y520961D01*
X93842Y520812D01*
X93137Y519109D01*
X92896Y517282D01*
X93137Y515454D01*
X93839Y513759D01*
Y510102D01*
X92869Y509132D01*
X86057D01*
Y506199D01*
X85405Y505223D01*
X84939Y502882D01*
X85405Y500541D01*
X86057Y499565D01*
Y496632D01*
X96057D01*
Y496921D01*
X97612Y497230D01*
X99596Y498556D01*
X104283Y503242D01*
X104403Y503422D01*
X105711Y502880D01*
X107539Y502640D01*
X115030D01*
Y495610D01*
X115271Y493782D01*
X115976Y492079D01*
X117098Y490617D01*
X120708Y487008D01*
X122170Y485886D01*
X123873Y485180D01*
X124170Y485141D01*
X124625Y483800D01*
X104930Y464105D01*
X103757Y464591D01*
Y466993D01*
X103801Y467038D01*
X104796Y468526D01*
X105145Y470282D01*
Y475132D01*
X105557D01*
Y487632D01*
X95557D01*
Y475132D01*
X95969D01*
Y473482D01*
X91757D01*
Y466970D01*
X89930Y465144D01*
X88757Y465630D01*
Y465982D01*
X82757D01*
X76757D01*
Y461188D01*
X74729D01*
X69588Y466329D01*
Y506555D01*
X69792Y506694D01*
X71517Y506361D01*
X71895Y505795D01*
X73549Y504690D01*
X74500Y504501D01*
Y509400D01*
Y514299D01*
X73549Y514110D01*
X71895Y513005D01*
X71517Y512439D01*
X69792Y512106D01*
X69588Y512245D01*
Y528700D01*
X69342Y529937D01*
X70147Y531003D01*
X70307Y531100D01*
X75600D01*
X78600Y534100D01*
Y534296D01*
X81700D01*
Y530600D01*
D02*
G37*
G36*
X158973Y528833D02*
X159200Y528528D01*
Y526079D01*
X159086Y525930D01*
X158380Y524227D01*
X158140Y522400D01*
X158240Y521641D01*
Y512358D01*
X158480Y510531D01*
X159186Y508828D01*
X160308Y507365D01*
X166166Y501508D01*
X167628Y500386D01*
X169331Y499680D01*
X171158Y499440D01*
X219000D01*
X220827Y499680D01*
X222530Y500386D01*
X223993Y501508D01*
X230292Y507808D01*
X231415Y509270D01*
X231881Y510396D01*
X233196D01*
X255796Y487796D01*
Y414361D01*
X246767Y405333D01*
X246160Y404423D01*
X245946Y403350D01*
Y302611D01*
X236517Y293183D01*
X235910Y292273D01*
X235696Y291200D01*
Y278600D01*
X234000D01*
Y269224D01*
X232827Y268738D01*
X231983Y269583D01*
X231073Y270190D01*
X230900Y270225D01*
Y273600D01*
X217900D01*
Y270404D01*
X214800D01*
Y273600D01*
X201800D01*
Y266079D01*
X201324Y265717D01*
X200054Y266348D01*
Y284775D01*
X199841Y285847D01*
X199233Y286757D01*
X184257Y301733D01*
X183348Y302340D01*
X182275Y302554D01*
X177903D01*
X177417Y303727D01*
X177783Y304093D01*
X178390Y305002D01*
X178604Y306075D01*
Y313921D01*
X179016Y314003D01*
X180173Y314777D01*
X180947Y315934D01*
X181219Y317300D01*
X180947Y318666D01*
X180189Y319800D01*
X180947Y320934D01*
X181020Y321300D01*
X175800D01*
Y323300D01*
X181020D01*
X180947Y323666D01*
X180189Y324800D01*
X180947Y325934D01*
X181219Y327300D01*
X181165Y327570D01*
X182207Y328840D01*
X187100D01*
Y327700D01*
X193001D01*
X193773Y327380D01*
X195600Y327140D01*
X196600D01*
X198427Y327380D01*
X199199Y327700D01*
X204100D01*
Y331340D01*
X207700D01*
Y327400D01*
X224700D01*
Y340400D01*
X224700Y340400D01*
X224700D01*
X225482Y341297D01*
X236266Y352081D01*
X237388Y353543D01*
X238093Y355246D01*
X238334Y357074D01*
Y363943D01*
X238093Y365771D01*
X237388Y367473D01*
X236266Y368936D01*
X234804Y370058D01*
X233101Y370763D01*
X231274Y371004D01*
X229446Y370763D01*
X227743Y370058D01*
X226281Y368936D01*
X225159Y367473D01*
X224454Y365771D01*
X224213Y363943D01*
Y359998D01*
X209676Y345460D01*
X207012D01*
X205800Y345600D01*
Y358600D01*
X196909D01*
X196450Y358660D01*
X195991Y358600D01*
X188800D01*
Y345600D01*
X189390D01*
Y343070D01*
X189264Y342960D01*
X178000D01*
X176173Y342720D01*
X175935Y342621D01*
X174879Y343327D01*
Y345294D01*
X176585Y347000D01*
X184600D01*
Y388000D01*
X166600D01*
Y356985D01*
X162826Y353211D01*
X161704Y351748D01*
X160998Y350046D01*
X160758Y348218D01*
Y342102D01*
X160612Y341704D01*
X159975Y341108D01*
X159604Y341018D01*
X150260D01*
Y347000D01*
X152600D01*
Y388000D01*
X142059D01*
X141600Y388060D01*
X131300D01*
Y388400D01*
X129860D01*
Y390794D01*
X131523Y391483D01*
X171200D01*
X173541Y391948D01*
X175526Y393274D01*
X183351Y401100D01*
X187700D01*
Y418100D01*
X187318D01*
Y421200D01*
X187700D01*
Y426609D01*
X187817Y427200D01*
Y435100D01*
X187352Y437441D01*
X186026Y439426D01*
X185014Y440102D01*
Y441231D01*
X185167Y442000D01*
Y447425D01*
X185486Y448314D01*
X186375Y448633D01*
X188082D01*
X188693Y447719D01*
X188693Y447718D01*
X189256Y447156D01*
X190744Y446161D01*
X192500Y445812D01*
X200000D01*
X201756Y446161D01*
X203244Y447156D01*
X228644Y472556D01*
X229639Y474044D01*
X229988Y475800D01*
Y482367D01*
X230110Y482549D01*
X230498Y484500D01*
X230132Y486342D01*
X230170Y486656D01*
X230681Y487612D01*
X235200D01*
X241047Y481764D01*
X241090Y481549D01*
X242195Y479895D01*
X243849Y478790D01*
X245800Y478402D01*
X247751Y478790D01*
X249405Y479895D01*
X250510Y481549D01*
X250898Y483500D01*
X250510Y485451D01*
X249405Y487105D01*
X247751Y488210D01*
X247536Y488253D01*
X240344Y495444D01*
X238856Y496439D01*
X237100Y496788D01*
X221500D01*
X219744Y496439D01*
X218256Y495444D01*
X213856Y491044D01*
X212861Y489556D01*
X212512Y487800D01*
Y478801D01*
X196437Y462726D01*
X195059Y463144D01*
X195003Y463427D01*
X194251Y464551D01*
Y464649D01*
X195003Y465773D01*
X195267Y467100D01*
X195003Y468427D01*
X194251Y469551D01*
X193127Y470303D01*
X191800Y470567D01*
X186375D01*
X185486Y470886D01*
X185167Y471775D01*
Y477200D01*
X184903Y478527D01*
X184151Y479651D01*
X183027Y480403D01*
X181700Y480667D01*
X180744Y480476D01*
X179603Y480986D01*
X179302Y481214D01*
X179290Y481273D01*
X178683Y482183D01*
X168433Y492433D01*
X167523Y493040D01*
X166450Y493254D01*
X155425D01*
X154352Y493041D01*
X153443Y492433D01*
X148961Y487951D01*
X147738Y488071D01*
X146084Y489176D01*
X144134Y489564D01*
X142183Y489176D01*
X140529Y488071D01*
X139994Y487270D01*
X132330D01*
X131768Y488409D01*
X131814Y488470D01*
X132520Y490173D01*
X132760Y492000D01*
X132520Y493827D01*
X131814Y495530D01*
X130692Y496992D01*
X129151Y498534D01*
Y502640D01*
X136642D01*
X138469Y502880D01*
X140172Y503586D01*
X141635Y504708D01*
X147493Y510565D01*
X148615Y512028D01*
X149320Y513731D01*
X149560Y515558D01*
Y527676D01*
X150967Y529082D01*
X156100D01*
X158177Y529496D01*
X158973Y528833D01*
D02*
G37*
G36*
X153257Y466478D02*
X153397Y465773D01*
X154149Y464649D01*
Y464551D01*
X153397Y463427D01*
X153332Y463100D01*
X159700D01*
Y461100D01*
X153332D01*
X153397Y460773D01*
X153488Y460637D01*
X154119Y459600D01*
X153488Y458563D01*
X153397Y458427D01*
X153332Y458100D01*
X159700D01*
Y456100D01*
X153274D01*
X152567Y454904D01*
X148700D01*
Y458400D01*
X135700D01*
Y455204D01*
X126589D01*
X126062Y456474D01*
X131830Y462241D01*
X135700D01*
Y461400D01*
X148700D01*
Y469239D01*
X149970Y469765D01*
X153257Y466478D01*
D02*
G37*
G36*
X135700Y446400D02*
X148700D01*
Y449296D01*
X154676D01*
X155273Y448897D01*
X156600Y448633D01*
X162025D01*
X162914Y448314D01*
X163233Y447425D01*
Y442000D01*
X163497Y440673D01*
X164249Y439549D01*
X165373Y438797D01*
X166700Y438533D01*
X168027Y438797D01*
X169151Y439549D01*
X169249D01*
X170373Y438797D01*
X171700Y438533D01*
X172174Y438628D01*
X173153Y438562D01*
X173608Y437717D01*
X173696Y437275D01*
X174414Y436199D01*
X175583Y435031D01*
Y429092D01*
X175548Y429041D01*
X175082Y426700D01*
Y418100D01*
X174700D01*
Y409752D01*
X169873Y404925D01*
X168700Y405411D01*
Y408600D01*
X162200D01*
X155700D01*
Y403718D01*
X135060D01*
Y438900D01*
X134820Y440727D01*
X134115Y442430D01*
X132992Y443893D01*
X131530Y445014D01*
X129827Y445720D01*
X128000Y445960D01*
X126173Y445720D01*
X124470Y445014D01*
X123008Y443893D01*
X121885Y442430D01*
X121180Y440727D01*
X120940Y438900D01*
Y419785D01*
X119687Y419373D01*
X118033Y420479D01*
X117082Y420668D01*
Y415769D01*
Y410869D01*
X118033Y411059D01*
X119687Y412164D01*
X120940Y411752D01*
Y404406D01*
X119270Y403714D01*
X117808Y402593D01*
X116685Y401130D01*
X115980Y399427D01*
X115740Y397600D01*
Y388400D01*
X114300D01*
Y375400D01*
X120201D01*
X120973Y375080D01*
X122800Y374840D01*
X124627Y375080D01*
X125400Y375400D01*
X125899D01*
X126570Y374885D01*
X128273Y374180D01*
X130100Y373940D01*
X134600D01*
Y347000D01*
X136140D01*
Y341400D01*
X132800D01*
Y328400D01*
X140601D01*
X141373Y328080D01*
X143200Y327840D01*
X145027Y328080D01*
X145800Y328400D01*
X148646D01*
Y322400D01*
X142300D01*
Y315900D01*
X141300D01*
Y314900D01*
X132800D01*
Y311225D01*
X131627Y310739D01*
X125204Y317161D01*
Y341900D01*
X124991Y342973D01*
X124383Y343883D01*
X112704Y355561D01*
Y410666D01*
X113824Y411264D01*
X114131Y411059D01*
X115082Y410869D01*
Y415769D01*
Y420668D01*
X114131Y420479D01*
X113824Y420273D01*
X112704Y420872D01*
Y435439D01*
X126861Y449596D01*
X135700D01*
Y446400D01*
D02*
G37*
G36*
X135144Y299291D02*
X135642Y298558D01*
X135168Y297557D01*
X131456Y293844D01*
X130461Y292356D01*
X130112Y290600D01*
Y269933D01*
X129990Y269751D01*
X129602Y267800D01*
X129990Y265849D01*
X130112Y265667D01*
Y261770D01*
X128842Y261288D01*
X122204Y267926D01*
Y295267D01*
X123474Y295709D01*
X124849Y294790D01*
X125800Y294601D01*
Y299500D01*
X126800D01*
Y300500D01*
X131699D01*
X131590Y301049D01*
X132760Y301674D01*
X135144Y299291D01*
D02*
G37*
G36*
X243049Y281090D02*
X245000Y280702D01*
X246951Y281090D01*
X247133Y281212D01*
X248599D01*
X255512Y274300D01*
Y240500D01*
X252173Y237162D01*
X251000Y237648D01*
Y241000D01*
X243500D01*
Y235500D01*
X248852D01*
X249338Y234327D01*
X244511Y229500D01*
X234000D01*
Y227338D01*
X230900D01*
Y228500D01*
X217900D01*
Y227338D01*
X214800D01*
Y228500D01*
X203054D01*
Y231500D01*
X207300D01*
Y237500D01*
Y243500D01*
X203054D01*
Y246600D01*
X207300D01*
Y252600D01*
Y258600D01*
X204561D01*
X204035Y259870D01*
X205765Y261600D01*
X214800D01*
Y264796D01*
X217900D01*
Y261600D01*
X230900D01*
Y261600D01*
X231702Y261932D01*
X234000Y259635D01*
Y251600D01*
X247000D01*
Y263600D01*
X237965D01*
X236139Y265427D01*
X236625Y266600D01*
X247000D01*
Y278600D01*
X241304D01*
Y280729D01*
X242574Y281408D01*
X243049Y281090D01*
D02*
G37*
G36*
X185312Y282799D02*
Y243500D01*
X182500D01*
Y242088D01*
X179400D01*
Y243500D01*
X172034D01*
X171356Y244770D01*
X172010Y245749D01*
X172398Y247700D01*
X172010Y249651D01*
X170905Y251305D01*
X169251Y252410D01*
X167300Y252798D01*
X165349Y252410D01*
X163695Y251305D01*
X163208Y250576D01*
X161681D01*
X161170Y251340D01*
X159516Y252445D01*
X158565Y252634D01*
Y247735D01*
X157565D01*
Y246735D01*
X152666D01*
X152855Y245784D01*
X153533Y244770D01*
X152854Y243500D01*
X150300D01*
Y238500D01*
X156800D01*
Y237500D01*
X157800D01*
Y231500D01*
X162652D01*
X162810Y230706D01*
X163417Y229796D01*
X163545Y229669D01*
X162917Y228500D01*
X157833D01*
X157323Y228840D01*
X156250Y229054D01*
X155177Y228840D01*
X154668Y228500D01*
X150300D01*
X150300Y228500D01*
X149030Y228294D01*
X147500Y228598D01*
X146324Y228364D01*
X145054Y229290D01*
Y281671D01*
X145106Y281723D01*
X146951Y282090D01*
X148605Y283195D01*
X149710Y284849D01*
X150098Y286800D01*
X149710Y288751D01*
X149449Y289142D01*
X150127Y290412D01*
X177700D01*
X185312Y282799D01*
D02*
G37*
G36*
X252531Y221944D02*
X252502Y221800D01*
X252890Y219849D01*
X253995Y218195D01*
X255649Y217090D01*
X256600Y216901D01*
Y221800D01*
X258600D01*
Y216901D01*
X259551Y217090D01*
X261205Y218195D01*
X261530Y218682D01*
X262800Y218297D01*
Y215400D01*
X268300D01*
Y221400D01*
X270300D01*
Y215400D01*
X275800D01*
Y220957D01*
X276973Y221443D01*
X278046Y220371D01*
Y199104D01*
X276776Y198425D01*
X276051Y198910D01*
X274944Y199130D01*
X275070Y200400D01*
X275800D01*
Y212400D01*
X262800D01*
Y204365D01*
X260970Y202535D01*
X259700Y203061D01*
Y205900D01*
X253700D01*
X247700D01*
Y200515D01*
X244385Y197200D01*
X235846D01*
X235360Y198373D01*
X237386Y200400D01*
X244700D01*
Y213400D01*
X243288D01*
Y216500D01*
X251000D01*
Y222430D01*
X251385Y222696D01*
X252531Y221944D01*
D02*
G37*
G36*
X273256Y199130D02*
X272149Y198910D01*
X270495Y197805D01*
X269390Y196151D01*
X269201Y195200D01*
X274100D01*
Y194200D01*
X275100D01*
Y189301D01*
X276051Y189490D01*
X276776Y189975D01*
X278046Y189296D01*
Y187200D01*
X275100D01*
Y181200D01*
Y175200D01*
X278046D01*
Y172200D01*
X267600D01*
Y169004D01*
X264350D01*
Y175200D01*
X252815D01*
X250085Y177930D01*
X250611Y179200D01*
X264350D01*
Y197200D01*
X264350Y197200D01*
X264350D01*
X264717Y198351D01*
X266765Y200400D01*
X273131D01*
X273256Y199130D01*
D02*
G37*
G36*
X157000Y134000D02*
X167290D01*
X167416Y133954D01*
X168332Y132730D01*
X168286Y132500D01*
Y131000D01*
X164500D01*
Y125000D01*
X163500D01*
Y124000D01*
X157000D01*
Y120704D01*
X155170D01*
X154492Y121974D01*
X155210Y123049D01*
X155399Y124000D01*
X150500D01*
Y125000D01*
X149500D01*
Y129899D01*
X148549Y129710D01*
X146895Y128605D01*
X146274Y127675D01*
X145004Y128060D01*
Y134425D01*
X145003Y134430D01*
X145808Y135412D01*
X157000D01*
Y134000D01*
D02*
G37*
G36*
X217617Y105317D02*
X218527Y104710D01*
X219600Y104496D01*
X253311D01*
X254025Y103226D01*
X253901Y102600D01*
X263699D01*
X263689Y102649D01*
X264860Y103275D01*
X274414Y93721D01*
X273927Y92548D01*
X271200D01*
Y87450D01*
Y82352D01*
X276700D01*
X278651Y82740D01*
X278876Y82891D01*
X279996Y82292D01*
Y79908D01*
X278876Y79309D01*
X278651Y79460D01*
X276700Y79848D01*
X263700D01*
X261749Y79460D01*
X260095Y78355D01*
X258990Y76701D01*
X258602Y74750D01*
X258836Y73574D01*
X257910Y72304D01*
X215490D01*
X214564Y73574D01*
X214798Y74750D01*
X214410Y76701D01*
X213305Y78355D01*
X211651Y79460D01*
X209700Y79848D01*
X198846D01*
Y80000D01*
X198633Y81073D01*
X198627Y81082D01*
X199306Y82352D01*
X209700D01*
X211651Y82740D01*
X213305Y83845D01*
X214410Y85499D01*
X214798Y87450D01*
X214410Y89401D01*
X213305Y91055D01*
X211651Y92160D01*
X209700Y92548D01*
X208604D01*
Y112535D01*
X209874Y113061D01*
X217617Y105317D01*
D02*
G37*
G36*
X171084Y100451D02*
X170666Y99073D01*
X169771Y98895D01*
X168117Y97790D01*
X167012Y96136D01*
X166823Y95185D01*
X171722D01*
Y94185D01*
X172722D01*
Y89286D01*
X173026Y89347D01*
X174296Y88481D01*
Y78461D01*
X171439Y75604D01*
X170233D01*
X169526Y76800D01*
X163600D01*
Y78800D01*
X169468D01*
X169403Y79127D01*
X168651Y80251D01*
Y80349D01*
X169403Y81473D01*
X169468Y81800D01*
X163600D01*
Y82800D01*
X162600D01*
Y86267D01*
X161000D01*
X160137Y86095D01*
X158867Y86875D01*
Y88200D01*
X158714Y88969D01*
Y97185D01*
X163222D01*
Y106654D01*
X164395Y107140D01*
X171084Y100451D01*
D02*
G37*
G36*
X131274Y63800D02*
X137200D01*
Y62800D01*
X138200D01*
Y59333D01*
X139800D01*
X140663Y59505D01*
X141933Y58725D01*
Y57400D01*
X142197Y56073D01*
X142596Y55476D01*
Y54061D01*
X137189Y48654D01*
X128190D01*
X127264Y49924D01*
X127299Y50100D01*
X122400D01*
Y51100D01*
X121400D01*
Y55999D01*
X120449Y55810D01*
X118795Y54705D01*
X118099Y53663D01*
X116564Y53402D01*
X112004Y57961D01*
Y58313D01*
X112722Y59285D01*
X116901D01*
X117172Y59231D01*
X117443Y59285D01*
X125722D01*
Y64996D01*
X130567D01*
X131274Y63800D01*
D02*
G37*
%LPC*%
G36*
X202382Y698768D02*
Y694869D01*
X206281D01*
X206092Y695819D01*
X204987Y697473D01*
X203333Y698578D01*
X202382Y698768D01*
D02*
G37*
G36*
X200382D02*
X199431Y698578D01*
X197778Y697473D01*
X196672Y695819D01*
X196483Y694869D01*
X200382D01*
Y698768D01*
D02*
G37*
G36*
X265700Y703000D02*
X257200D01*
Y694500D01*
X265700D01*
Y703000D01*
D02*
G37*
G36*
X163300D02*
X154800D01*
Y694500D01*
X163300D01*
Y703000D01*
D02*
G37*
G36*
X255200D02*
X246700D01*
Y694500D01*
X255200D01*
Y703000D01*
D02*
G37*
G36*
X152800D02*
X144300D01*
Y694500D01*
X152800D01*
Y703000D01*
D02*
G37*
G36*
X206281Y692869D02*
X202382D01*
Y688969D01*
X203333Y689159D01*
X204987Y690264D01*
X206092Y691918D01*
X206281Y692869D01*
D02*
G37*
G36*
X200382D02*
X196483D01*
X196672Y691918D01*
X197778Y690264D01*
X199431Y689159D01*
X200382Y688969D01*
Y692869D01*
D02*
G37*
G36*
X282282Y689068D02*
Y685169D01*
X286181D01*
X285992Y686120D01*
X284887Y687773D01*
X283233Y688878D01*
X282282Y689068D01*
D02*
G37*
G36*
X280282D02*
X279331Y688878D01*
X277677Y687773D01*
X276572Y686120D01*
X276383Y685169D01*
X280282D01*
Y689068D01*
D02*
G37*
G36*
X265700Y692500D02*
X257200D01*
Y684000D01*
X265700D01*
Y692500D01*
D02*
G37*
G36*
X255200D02*
X246700D01*
Y684000D01*
X255200D01*
Y692500D01*
D02*
G37*
G36*
X163300D02*
X154800D01*
Y684000D01*
X163300D01*
Y692500D01*
D02*
G37*
G36*
X152800D02*
X144300D01*
Y684000D01*
X152800D01*
Y692500D01*
D02*
G37*
G36*
X41182Y687868D02*
Y683969D01*
X45081D01*
X44892Y684920D01*
X43787Y686573D01*
X42133Y687679D01*
X41182Y687868D01*
D02*
G37*
G36*
X39182D02*
X38231Y687679D01*
X36577Y686573D01*
X35472Y684920D01*
X35283Y683969D01*
X39182D01*
Y687868D01*
D02*
G37*
G36*
X88182Y683868D02*
Y679968D01*
X92081D01*
X91892Y680919D01*
X90787Y682573D01*
X89133Y683678D01*
X88182Y683868D01*
D02*
G37*
G36*
X86182D02*
X85232Y683678D01*
X83578Y682573D01*
X82472Y680919D01*
X82283Y679968D01*
X86182D01*
Y683868D01*
D02*
G37*
G36*
X286181Y683169D02*
X282282D01*
Y679269D01*
X283233Y679459D01*
X284887Y680564D01*
X285992Y682218D01*
X286181Y683169D01*
D02*
G37*
G36*
X280282D02*
X276383D01*
X276572Y682218D01*
X277677Y680564D01*
X279331Y679459D01*
X280282Y679269D01*
Y683169D01*
D02*
G37*
G36*
X134100Y682299D02*
Y678400D01*
X137999D01*
X137810Y679351D01*
X136705Y681005D01*
X135051Y682110D01*
X134100Y682299D01*
D02*
G37*
G36*
X132100D02*
X131149Y682110D01*
X129495Y681005D01*
X128390Y679351D01*
X128201Y678400D01*
X132100D01*
Y682299D01*
D02*
G37*
G36*
X45081Y681969D02*
X41182D01*
Y678070D01*
X42133Y678259D01*
X43787Y679364D01*
X44892Y681018D01*
X45081Y681969D01*
D02*
G37*
G36*
X39182D02*
X35283D01*
X35472Y681018D01*
X36577Y679364D01*
X38231Y678259D01*
X39182Y678070D01*
Y681969D01*
D02*
G37*
G36*
X92081Y677969D02*
X88182D01*
Y674070D01*
X89133Y674259D01*
X90787Y675364D01*
X91892Y677018D01*
X92081Y677969D01*
D02*
G37*
G36*
X86182D02*
X82283D01*
X82472Y677018D01*
X83578Y675364D01*
X85232Y674259D01*
X86182Y674070D01*
Y677969D01*
D02*
G37*
G36*
X137999Y676400D02*
X134100D01*
Y672501D01*
X135051Y672690D01*
X136705Y673795D01*
X137810Y675449D01*
X137999Y676400D01*
D02*
G37*
G36*
X132100D02*
X128201D01*
X128390Y675449D01*
X129495Y673795D01*
X131149Y672690D01*
X132100Y672501D01*
Y676400D01*
D02*
G37*
G36*
X163300Y663700D02*
X154800D01*
Y655200D01*
X163300D01*
Y663700D01*
D02*
G37*
G36*
X255200D02*
X246700D01*
Y655200D01*
X255200D01*
Y663700D01*
D02*
G37*
G36*
X152800D02*
X144300D01*
Y655200D01*
X152800D01*
Y663700D01*
D02*
G37*
G36*
X163300Y653200D02*
X154800D01*
Y644700D01*
X163300D01*
Y653200D01*
D02*
G37*
G36*
X152800D02*
X144300D01*
Y644700D01*
X152800D01*
Y653200D01*
D02*
G37*
G36*
X172000Y647400D02*
X168200D01*
Y640650D01*
X172000D01*
Y647400D01*
D02*
G37*
G36*
X259699Y639600D02*
X255800D01*
Y635701D01*
X256751Y635890D01*
X258405Y636995D01*
X259510Y638649D01*
X259699Y639600D01*
D02*
G37*
G36*
X113100Y631500D02*
X102100D01*
Y620500D01*
X113100D01*
Y631500D01*
D02*
G37*
G36*
X100100D02*
X89100D01*
Y620500D01*
X100100D01*
Y631500D01*
D02*
G37*
G36*
X83600Y623899D02*
Y620000D01*
X87499D01*
X87310Y620951D01*
X86205Y622605D01*
X84551Y623710D01*
X83600Y623899D01*
D02*
G37*
G36*
X81600D02*
X80649Y623710D01*
X78995Y622605D01*
X77890Y620951D01*
X77701Y620000D01*
X81600D01*
Y623899D01*
D02*
G37*
G36*
X87499Y618000D02*
X83600D01*
Y614101D01*
X84551Y614290D01*
X86205Y615395D01*
X87310Y617049D01*
X87499Y618000D01*
D02*
G37*
G36*
X81600D02*
X77701D01*
X77890Y617049D01*
X78995Y615395D01*
X80649Y614290D01*
X81600Y614101D01*
Y618000D01*
D02*
G37*
G36*
X212088Y617820D02*
X206588D01*
Y612820D01*
X212088D01*
Y617820D01*
D02*
G37*
G36*
X204588D02*
X199088D01*
Y612820D01*
X204588D01*
Y617820D01*
D02*
G37*
G36*
X195988D02*
X190488D01*
Y612820D01*
X195988D01*
Y617820D01*
D02*
G37*
G36*
X265200Y617300D02*
X259700D01*
Y612300D01*
X265200D01*
Y617300D01*
D02*
G37*
G36*
X281300D02*
X275800D01*
Y612300D01*
X281300D01*
Y617300D01*
D02*
G37*
G36*
X273800D02*
X268300D01*
Y612300D01*
X273800D01*
Y617300D01*
D02*
G37*
G36*
X257700D02*
X252200D01*
Y612300D01*
X257700D01*
Y617300D01*
D02*
G37*
G36*
X39182Y615968D02*
Y612068D01*
X43081D01*
X42892Y613019D01*
X41787Y614673D01*
X40133Y615778D01*
X39182Y615968D01*
D02*
G37*
G36*
X37182D02*
X36231Y615778D01*
X34578Y614673D01*
X33472Y613019D01*
X33283Y612068D01*
X37182D01*
Y615968D01*
D02*
G37*
G36*
X113100Y618500D02*
X102100D01*
Y607500D01*
X113100D01*
Y618500D01*
D02*
G37*
G36*
X100100D02*
X89100D01*
Y607500D01*
X100100D01*
Y618500D01*
D02*
G37*
G36*
X43081Y610069D02*
X39182D01*
Y606170D01*
X40133Y606359D01*
X41787Y607464D01*
X42892Y609118D01*
X43081Y610069D01*
D02*
G37*
G36*
X37182D02*
X33283D01*
X33472Y609118D01*
X34578Y607464D01*
X36231Y606359D01*
X37182Y606170D01*
Y610069D01*
D02*
G37*
G36*
X195988Y610820D02*
X190488D01*
Y605820D01*
X195988D01*
Y610820D01*
D02*
G37*
G36*
X188488D02*
X182988D01*
Y605820D01*
X188488D01*
Y610820D01*
D02*
G37*
G36*
X281300Y610300D02*
X275800D01*
Y605300D01*
X281300D01*
Y610300D01*
D02*
G37*
G36*
X273800D02*
X268300D01*
Y605300D01*
X273800D01*
Y610300D01*
D02*
G37*
G36*
X265200D02*
X259700D01*
Y605300D01*
X265200D01*
Y610300D01*
D02*
G37*
G36*
X257700D02*
X252200D01*
Y605300D01*
X257700D01*
Y610300D01*
D02*
G37*
G36*
X212088Y610820D02*
X199088D01*
Y605820D01*
X201211D01*
X201890Y604550D01*
X201490Y603951D01*
X201301Y603000D01*
X211099D01*
X210910Y603951D01*
X210510Y604550D01*
X211189Y605820D01*
X212088D01*
Y610820D01*
D02*
G37*
G36*
X286800Y603699D02*
X285849Y603510D01*
X284195Y602405D01*
X283090Y600751D01*
X282901Y599800D01*
X286800D01*
Y603699D01*
D02*
G37*
G36*
X118100Y603199D02*
X117149Y603010D01*
X115495Y601905D01*
X114390Y600251D01*
X114201Y599300D01*
X118100D01*
Y603199D01*
D02*
G37*
G36*
X138200Y603100D02*
X132700D01*
Y595600D01*
X138200D01*
Y603100D01*
D02*
G37*
G36*
X120100Y603199D02*
Y598300D01*
Y593401D01*
X121051Y593590D01*
X122705Y594695D01*
X123810Y596349D01*
X123930Y596953D01*
X125200Y596828D01*
Y595600D01*
X130700D01*
Y603100D01*
X125200D01*
Y599772D01*
X123930Y599647D01*
X123810Y600251D01*
X122705Y601905D01*
X121051Y603010D01*
X120100Y603199D01*
D02*
G37*
G36*
X286800Y597800D02*
X282901D01*
X283090Y596849D01*
X284195Y595195D01*
X285849Y594090D01*
X286800Y593901D01*
Y597800D01*
D02*
G37*
G36*
X118100Y597300D02*
X114201D01*
X114390Y596349D01*
X115495Y594695D01*
X117149Y593590D01*
X118100Y593401D01*
Y597300D01*
D02*
G37*
G36*
X211099Y601000D02*
X201301D01*
X201490Y600049D01*
X202144Y599070D01*
X201900Y598613D01*
Y592800D01*
X207400D01*
Y597141D01*
X208151Y597290D01*
X209805Y598395D01*
X210910Y600049D01*
X211099Y601000D01*
D02*
G37*
G36*
X199900Y597800D02*
X194400D01*
Y592800D01*
X199900D01*
Y597800D01*
D02*
G37*
G36*
X191300Y597800D02*
X185800D01*
Y592800D01*
X191300D01*
Y597800D01*
D02*
G37*
G36*
X183800D02*
X178300D01*
Y592800D01*
X183800D01*
Y597800D01*
D02*
G37*
G36*
X175200Y597800D02*
X169700D01*
Y592800D01*
X175200D01*
Y597800D01*
D02*
G37*
G36*
X167700D02*
X162200D01*
Y592800D01*
X167700D01*
Y597800D01*
D02*
G37*
G36*
X130700Y593600D02*
X125200D01*
Y586100D01*
X130700D01*
Y593600D01*
D02*
G37*
G36*
X207400Y590800D02*
X201900D01*
Y585800D01*
X207400D01*
Y590800D01*
D02*
G37*
G36*
X199900D02*
X194400D01*
Y585800D01*
X199900D01*
Y590800D01*
D02*
G37*
G36*
X175200Y590800D02*
X169700D01*
Y585800D01*
X175200D01*
Y590800D01*
D02*
G37*
G36*
X167700D02*
X162200D01*
Y585800D01*
X167700D01*
Y590800D01*
D02*
G37*
G36*
X191300Y590800D02*
X185800D01*
Y585800D01*
X191300D01*
Y590800D01*
D02*
G37*
G36*
X183800D02*
X178300D01*
Y585800D01*
X183800D01*
Y590800D01*
D02*
G37*
G36*
X198400Y552000D02*
X192900D01*
Y547000D01*
X198400D01*
Y552000D01*
D02*
G37*
G36*
X190900D02*
X185400D01*
Y547000D01*
X190900D01*
Y552000D01*
D02*
G37*
G36*
X287182Y541668D02*
X286231Y541478D01*
X284578Y540373D01*
X283472Y538719D01*
X283283Y537769D01*
X287182D01*
Y541668D01*
D02*
G37*
G36*
Y535769D02*
X283283D01*
X283472Y534818D01*
X284578Y533164D01*
X286231Y532059D01*
X287182Y531870D01*
Y535769D01*
D02*
G37*
G36*
X195200Y530399D02*
Y526500D01*
X199099D01*
X198910Y527451D01*
X197805Y529105D01*
X196151Y530210D01*
X195200Y530399D01*
D02*
G37*
G36*
X193200D02*
X192249Y530210D01*
X190595Y529105D01*
X189490Y527451D01*
X189301Y526500D01*
X193200D01*
Y530399D01*
D02*
G37*
G36*
X15082Y384868D02*
Y380969D01*
X18981D01*
X18792Y381920D01*
X17687Y383573D01*
X16033Y384678D01*
X15082Y384868D01*
D02*
G37*
G36*
X13082D02*
X12131Y384678D01*
X10478Y383573D01*
X9372Y381920D01*
X9183Y380969D01*
X13082D01*
Y384868D01*
D02*
G37*
G36*
X18981Y378969D02*
X15082D01*
Y375070D01*
X16033Y375259D01*
X17687Y376364D01*
X18792Y378018D01*
X18981Y378969D01*
D02*
G37*
G36*
X13082D02*
X9183D01*
X9372Y378018D01*
X10478Y376364D01*
X12131Y375259D01*
X13082Y375070D01*
Y378969D01*
D02*
G37*
G36*
X266300Y355899D02*
Y352000D01*
X270199D01*
X270010Y352951D01*
X268905Y354605D01*
X267251Y355710D01*
X266300Y355899D01*
D02*
G37*
G36*
X264300D02*
X263349Y355710D01*
X261695Y354605D01*
X260590Y352951D01*
X260401Y352000D01*
X264300D01*
Y355899D01*
D02*
G37*
G36*
X270199Y350000D02*
X260401D01*
X260590Y349049D01*
X261695Y347395D01*
X261883Y347270D01*
X261497Y346000D01*
X258500D01*
Y341000D01*
X271500D01*
Y346000D01*
X269103D01*
X268717Y347270D01*
X268905Y347395D01*
X270010Y349049D01*
X270199Y350000D01*
D02*
G37*
G36*
X26600Y343300D02*
X21600D01*
Y337800D01*
X26600D01*
Y343300D01*
D02*
G37*
G36*
X19600D02*
X14600D01*
Y337800D01*
X19600D01*
Y343300D01*
D02*
G37*
G36*
X271500Y339000D02*
X266000D01*
Y334000D01*
X271500D01*
Y339000D01*
D02*
G37*
G36*
X264000D02*
X258500D01*
Y334000D01*
X264000D01*
Y339000D01*
D02*
G37*
G36*
X26600Y335800D02*
X21600D01*
Y330300D01*
X26600D01*
Y335800D01*
D02*
G37*
G36*
X19600D02*
X14600D01*
Y330300D01*
X19600D01*
Y335800D01*
D02*
G37*
G36*
X26600Y327200D02*
X21600D01*
Y321700D01*
X26600D01*
Y327200D01*
D02*
G37*
G36*
X19600D02*
X14600D01*
Y321700D01*
X19600D01*
Y327200D01*
D02*
G37*
G36*
X26600Y319700D02*
X21600D01*
Y314200D01*
X26600D01*
Y319700D01*
D02*
G37*
G36*
X19600D02*
X14600D01*
Y314200D01*
X19600D01*
Y319700D01*
D02*
G37*
G36*
X82282Y314168D02*
Y310268D01*
X86181D01*
X85992Y311219D01*
X84887Y312873D01*
X83233Y313978D01*
X82282Y314168D01*
D02*
G37*
G36*
X80282D02*
X79331Y313978D01*
X77678Y312873D01*
X76572Y311219D01*
X76383Y310268D01*
X80282D01*
Y314168D01*
D02*
G37*
G36*
X13700Y312899D02*
Y309000D01*
X17599D01*
X17410Y309951D01*
X16305Y311605D01*
X14651Y312710D01*
X13700Y312899D01*
D02*
G37*
G36*
X86181Y308269D02*
X82282D01*
Y304370D01*
X83233Y304559D01*
X84887Y305664D01*
X85992Y307318D01*
X86181Y308269D01*
D02*
G37*
G36*
X80282D02*
X76383D01*
X76572Y307318D01*
X77678Y305664D01*
X79331Y304559D01*
X80282Y304370D01*
Y308269D01*
D02*
G37*
G36*
X17599Y307000D02*
X13700D01*
Y303101D01*
X14651Y303290D01*
X16305Y304395D01*
X17410Y306049D01*
X17599Y307000D01*
D02*
G37*
G36*
X27582Y278368D02*
Y274468D01*
X31481D01*
X31292Y275419D01*
X30187Y277073D01*
X28533Y278178D01*
X27582Y278368D01*
D02*
G37*
G36*
X25582D02*
X24631Y278178D01*
X22978Y277073D01*
X21872Y275419D01*
X21683Y274468D01*
X25582D01*
Y278368D01*
D02*
G37*
G36*
X31481Y272468D02*
X27582D01*
Y268570D01*
X28533Y268759D01*
X30187Y269864D01*
X31292Y271518D01*
X31481Y272468D01*
D02*
G37*
G36*
X25582D02*
X21683D01*
X21872Y271518D01*
X22978Y269864D01*
X24631Y268759D01*
X25582Y268570D01*
Y272468D01*
D02*
G37*
G36*
X41600Y343300D02*
X29600D01*
Y330300D01*
X32796D01*
Y327200D01*
X29600D01*
Y314200D01*
X37635D01*
X38940Y312895D01*
X38752Y311950D01*
X39140Y309999D01*
X40245Y308345D01*
X41899Y307240D01*
X43850Y306852D01*
X44795Y307040D01*
X52496Y299339D01*
Y257200D01*
X49300D01*
Y244200D01*
X61300D01*
Y257200D01*
X58104D01*
Y300500D01*
X57890Y301573D01*
X57283Y302483D01*
X48760Y311005D01*
X48948Y311950D01*
X48560Y313901D01*
X47455Y315555D01*
X45801Y316660D01*
X43850Y317048D01*
X42905Y316860D01*
X41600Y318165D01*
Y327200D01*
X38404D01*
Y330300D01*
X41600D01*
Y343300D01*
D02*
G37*
G36*
X67200Y242599D02*
Y238700D01*
X71099D01*
X70910Y239651D01*
X69805Y241305D01*
X68151Y242410D01*
X67200Y242599D01*
D02*
G37*
G36*
X65200D02*
X64249Y242410D01*
X62595Y241305D01*
X61490Y239651D01*
X61301Y238700D01*
X65200D01*
Y242599D01*
D02*
G37*
G36*
X71099Y236700D02*
X67200D01*
Y232801D01*
X68151Y232990D01*
X69805Y234095D01*
X70910Y235749D01*
X71099Y236700D01*
D02*
G37*
G36*
X65200D02*
X61301D01*
X61490Y235749D01*
X62595Y234095D01*
X64249Y232990D01*
X65200Y232801D01*
Y236700D01*
D02*
G37*
G36*
X40550Y232850D02*
X36300D01*
Y226600D01*
X40550D01*
Y232850D01*
D02*
G37*
G36*
X34300D02*
X30050D01*
Y226600D01*
X34300D01*
Y232850D01*
D02*
G37*
G36*
X83090Y232390D02*
X78570D01*
Y225870D01*
X83090D01*
Y232390D01*
D02*
G37*
G36*
X76030D02*
X71510D01*
Y225870D01*
X76030D01*
Y232390D01*
D02*
G37*
G36*
X40550Y224600D02*
X36300D01*
Y218350D01*
X40550D01*
Y224600D01*
D02*
G37*
G36*
X34300D02*
X30050D01*
Y218350D01*
X34300D01*
Y224600D01*
D02*
G37*
G36*
X83090Y223330D02*
X78570D01*
Y216810D01*
X83090D01*
Y223330D01*
D02*
G37*
G36*
X76030D02*
X71510D01*
Y216810D01*
X76030D01*
Y223330D01*
D02*
G37*
G36*
X40550Y191450D02*
X36300D01*
Y185200D01*
X40550D01*
Y191450D01*
D02*
G37*
G36*
X34300D02*
X30050D01*
Y185200D01*
X34300D01*
Y191450D01*
D02*
G37*
G36*
X83090Y190990D02*
X78570D01*
Y184470D01*
X83090D01*
Y190990D01*
D02*
G37*
G36*
X76030D02*
X71510D01*
Y184470D01*
X76030D01*
Y190990D01*
D02*
G37*
G36*
X40550Y183200D02*
X36300D01*
Y176950D01*
X40550D01*
Y183200D01*
D02*
G37*
G36*
X34300D02*
X30050D01*
Y176950D01*
X34300D01*
Y183200D01*
D02*
G37*
G36*
X83090Y181930D02*
X78570D01*
Y175410D01*
X83090D01*
Y181930D01*
D02*
G37*
G36*
X76030D02*
X71510D01*
Y175410D01*
X76030D01*
Y181930D01*
D02*
G37*
G36*
X24000Y132200D02*
X18500D01*
Y127200D01*
X24000D01*
Y132200D01*
D02*
G37*
G36*
X40100D02*
X34600D01*
Y127200D01*
X40100D01*
Y132200D01*
D02*
G37*
G36*
X16500D02*
X11000D01*
Y127200D01*
X16500D01*
Y132200D01*
D02*
G37*
G36*
X32600D02*
X27100D01*
Y127200D01*
X32600D01*
Y132200D01*
D02*
G37*
G36*
X40100Y125200D02*
X34600D01*
Y120200D01*
X40100D01*
Y125200D01*
D02*
G37*
G36*
X32600D02*
X27100D01*
Y120200D01*
X32600D01*
Y125200D01*
D02*
G37*
G36*
X282282Y124068D02*
Y120169D01*
X286181D01*
X285992Y121119D01*
X284887Y122773D01*
X283233Y123878D01*
X282282Y124068D01*
D02*
G37*
G36*
X280282D02*
X279331Y123878D01*
X277677Y122773D01*
X276572Y121119D01*
X276383Y120169D01*
X280282D01*
Y124068D01*
D02*
G37*
G36*
X24000Y125200D02*
X17500D01*
X11000D01*
Y120200D01*
X15248D01*
X15633Y118930D01*
X15595Y118905D01*
X14490Y117251D01*
X14301Y116300D01*
X24099D01*
X23910Y117251D01*
X22805Y118905D01*
X22767Y118930D01*
X23152Y120200D01*
X24000D01*
Y125200D01*
D02*
G37*
G36*
X286181Y118168D02*
X282282D01*
Y114270D01*
X283233Y114459D01*
X284887Y115564D01*
X285992Y117218D01*
X286181Y118168D01*
D02*
G37*
G36*
X280282D02*
X276383D01*
X276572Y117218D01*
X277677Y115564D01*
X279331Y114459D01*
X280282Y114270D01*
Y118168D01*
D02*
G37*
G36*
X24099Y114300D02*
X20200D01*
Y110401D01*
X21151Y110590D01*
X22805Y111695D01*
X23910Y113349D01*
X24099Y114300D01*
D02*
G37*
G36*
X18200D02*
X14301D01*
X14490Y113349D01*
X15595Y111695D01*
X17249Y110590D01*
X18200Y110401D01*
Y114300D01*
D02*
G37*
G36*
X148222Y102685D02*
X143222D01*
Y97185D01*
X148222D01*
Y102685D01*
D02*
G37*
G36*
X149400Y91468D02*
X149073Y91403D01*
X147949Y90651D01*
X147851D01*
X146727Y91403D01*
X146400Y91468D01*
Y85600D01*
Y79732D01*
X146727Y79797D01*
X147851Y80549D01*
X147949D01*
X149073Y79797D01*
X149400Y79732D01*
Y85600D01*
Y91468D01*
D02*
G37*
G36*
X18182Y89968D02*
Y86069D01*
X22081D01*
X21892Y87020D01*
X20787Y88673D01*
X19133Y89778D01*
X18182Y89968D01*
D02*
G37*
G36*
X16182D02*
X15231Y89778D01*
X13578Y88673D01*
X12472Y87020D01*
X12283Y86069D01*
X16182D01*
Y89968D01*
D02*
G37*
G36*
X22081Y84069D02*
X18182D01*
Y80169D01*
X19133Y80359D01*
X20787Y81464D01*
X21892Y83118D01*
X22081Y84069D01*
D02*
G37*
G36*
X16182D02*
X12283D01*
X12472Y83118D01*
X13578Y81464D01*
X15231Y80359D01*
X16182Y80169D01*
Y84069D01*
D02*
G37*
G36*
X174022Y59284D02*
Y55385D01*
X177921D01*
X177731Y56336D01*
X176626Y57990D01*
X174972Y59095D01*
X174022Y59284D01*
D02*
G37*
G36*
X172022D02*
X171071Y59095D01*
X169417Y57990D01*
X168312Y56336D01*
X168123Y55385D01*
X172022D01*
Y59284D01*
D02*
G37*
G36*
X177921Y53385D02*
X174022D01*
Y49486D01*
X174972Y49675D01*
X176626Y50780D01*
X177731Y52434D01*
X177921Y53385D01*
D02*
G37*
G36*
X172022D02*
X168123D01*
X168312Y52434D01*
X169417Y50780D01*
X171071Y49675D01*
X172022Y49486D01*
Y53385D01*
D02*
G37*
G36*
X80000Y59582D02*
X77520Y59255D01*
X75209Y58298D01*
X73225Y56775D01*
X71702Y54791D01*
X70745Y52480D01*
X70418Y50000D01*
X70745Y47520D01*
X71702Y45209D01*
X73225Y43225D01*
X75209Y41702D01*
X77520Y40745D01*
X80000Y40418D01*
X82480Y40745D01*
X84791Y41702D01*
X86775Y43225D01*
X88298Y45209D01*
X89255Y47520D01*
X89582Y50000D01*
X89255Y52480D01*
X88298Y54791D01*
X86775Y56775D01*
X84791Y58298D01*
X82480Y59255D01*
X80000Y59582D01*
D02*
G37*
G36*
X232382Y26568D02*
Y22669D01*
X236281D01*
X236092Y23619D01*
X234987Y25273D01*
X233333Y26379D01*
X232382Y26568D01*
D02*
G37*
G36*
X230382D02*
X229431Y26379D01*
X227778Y25273D01*
X226672Y23619D01*
X226483Y22669D01*
X230382D01*
Y26568D01*
D02*
G37*
G36*
X18182Y26368D02*
Y22469D01*
X22081D01*
X21892Y23419D01*
X20787Y25073D01*
X19133Y26179D01*
X18182Y26368D01*
D02*
G37*
G36*
X16182D02*
X15231Y26179D01*
X13578Y25073D01*
X12472Y23419D01*
X12283Y22469D01*
X16182D01*
Y26368D01*
D02*
G37*
G36*
X152382Y24668D02*
Y20768D01*
X156281D01*
X156092Y21719D01*
X154987Y23373D01*
X153333Y24478D01*
X152382Y24668D01*
D02*
G37*
G36*
X150382D02*
X149431Y24478D01*
X147778Y23373D01*
X146672Y21719D01*
X146483Y20768D01*
X150382D01*
Y24668D01*
D02*
G37*
G36*
X236281Y20669D02*
X232382D01*
Y16769D01*
X233333Y16959D01*
X234987Y18064D01*
X236092Y19718D01*
X236281Y20669D01*
D02*
G37*
G36*
X230382D02*
X226483D01*
X226672Y19718D01*
X227778Y18064D01*
X229431Y16959D01*
X230382Y16769D01*
Y20669D01*
D02*
G37*
G36*
X22081Y20469D02*
X18182D01*
Y16569D01*
X19133Y16759D01*
X20787Y17864D01*
X21892Y19518D01*
X22081Y20469D01*
D02*
G37*
G36*
X16182D02*
X12283D01*
X12472Y19518D01*
X13578Y17864D01*
X15231Y16759D01*
X16182Y16569D01*
Y20469D01*
D02*
G37*
G36*
X156281Y18769D02*
X152382D01*
Y14870D01*
X153333Y15059D01*
X154987Y16164D01*
X156092Y17818D01*
X156281Y18769D01*
D02*
G37*
G36*
X150382D02*
X146483D01*
X146672Y17818D01*
X147778Y16164D01*
X149431Y15059D01*
X150382Y14870D01*
Y18769D01*
D02*
G37*
G36*
X146100Y556200D02*
X140600D01*
Y551200D01*
X146100D01*
Y556200D01*
D02*
G37*
G36*
X90957Y523782D02*
X85957D01*
Y518282D01*
X90957D01*
Y523782D01*
D02*
G37*
G36*
X83957D02*
X78957D01*
Y518282D01*
X83957D01*
Y523782D01*
D02*
G37*
G36*
Y516282D02*
X78957D01*
Y514451D01*
X77837Y513852D01*
X77451Y514110D01*
X76500Y514299D01*
Y510400D01*
X81011D01*
X81324Y510782D01*
X83957D01*
Y516282D01*
D02*
G37*
G36*
X90957D02*
X85957D01*
Y510782D01*
X90957D01*
Y516282D01*
D02*
G37*
G36*
X80399Y508400D02*
X76500D01*
Y504501D01*
X77451Y504690D01*
X79105Y505795D01*
X80210Y507449D01*
X80399Y508400D01*
D02*
G37*
G36*
X86557Y487632D02*
X82557D01*
Y482382D01*
X86557D01*
Y487632D01*
D02*
G37*
G36*
X80557D02*
X76557D01*
Y482382D01*
X80557D01*
Y487632D01*
D02*
G37*
G36*
X86557Y480382D02*
X82557D01*
Y475132D01*
X86557D01*
Y480382D01*
D02*
G37*
G36*
X80557D02*
X76557D01*
Y475132D01*
X80557D01*
Y480382D01*
D02*
G37*
G36*
X88757Y473482D02*
X83757D01*
Y467982D01*
X88757D01*
Y473482D01*
D02*
G37*
G36*
X81757D02*
X76757D01*
Y467982D01*
X81757D01*
Y473482D01*
D02*
G37*
G36*
X152511Y506661D02*
Y502762D01*
X156410D01*
X156221Y503713D01*
X155115Y505366D01*
X153462Y506471D01*
X152511Y506661D01*
D02*
G37*
G36*
X150511D02*
X149560Y506471D01*
X147906Y505366D01*
X146801Y503713D01*
X146612Y502762D01*
X150511D01*
Y506661D01*
D02*
G37*
G36*
X156410Y500762D02*
X152511D01*
Y496863D01*
X153462Y497052D01*
X155115Y498157D01*
X156221Y499811D01*
X156410Y500762D01*
D02*
G37*
G36*
X150511D02*
X146612D01*
X146801Y499811D01*
X147906Y498157D01*
X149560Y497052D01*
X150511Y496863D01*
Y500762D01*
D02*
G37*
G36*
X205000Y388899D02*
Y385000D01*
X208899D01*
X208710Y385951D01*
X207605Y387605D01*
X205951Y388710D01*
X205000Y388899D01*
D02*
G37*
G36*
X203000D02*
X202049Y388710D01*
X200395Y387605D01*
X199290Y385951D01*
X199101Y385000D01*
X203000D01*
Y388899D01*
D02*
G37*
G36*
X208899Y383000D02*
X205000D01*
Y379101D01*
X205951Y379290D01*
X207605Y380395D01*
X208710Y382049D01*
X208899Y383000D01*
D02*
G37*
G36*
X203000D02*
X199101D01*
X199290Y382049D01*
X200395Y380395D01*
X202049Y379290D01*
X203000Y379101D01*
Y383000D01*
D02*
G37*
G36*
X205800Y377600D02*
X198300D01*
Y372100D01*
X205800D01*
Y377600D01*
D02*
G37*
G36*
X196300D02*
X188800D01*
Y372100D01*
X196300D01*
Y377600D01*
D02*
G37*
G36*
X205800Y370100D02*
X198300D01*
Y364600D01*
X205800D01*
Y370100D01*
D02*
G37*
G36*
X196300D02*
X188800D01*
Y364600D01*
X196300D01*
Y370100D01*
D02*
G37*
G36*
X204100Y321700D02*
X196600D01*
Y316200D01*
X204100D01*
Y321700D01*
D02*
G37*
G36*
X194600D02*
X187100D01*
Y316200D01*
X194600D01*
Y321700D01*
D02*
G37*
G36*
X224700Y321400D02*
X217200D01*
Y315900D01*
X224700D01*
Y321400D01*
D02*
G37*
G36*
X215200D02*
X207700D01*
Y315900D01*
X215200D01*
Y321400D01*
D02*
G37*
G36*
X194600Y314200D02*
X187100D01*
Y308700D01*
X194600D01*
Y314200D01*
D02*
G37*
G36*
X224700Y313900D02*
X217200D01*
Y308400D01*
X224700D01*
Y313900D01*
D02*
G37*
G36*
X215200D02*
X207700D01*
Y309188D01*
X206523Y308174D01*
X206400Y308199D01*
Y304300D01*
X210299D01*
X210110Y305251D01*
X209005Y306905D01*
X208668Y307130D01*
X209053Y308400D01*
X215200D01*
Y313900D01*
D02*
G37*
G36*
X236882Y308568D02*
Y304669D01*
X240781D01*
X240592Y305620D01*
X239487Y307273D01*
X237833Y308379D01*
X236882Y308568D01*
D02*
G37*
G36*
X234882D02*
X233932Y308379D01*
X232278Y307273D01*
X231173Y305620D01*
X230983Y304669D01*
X234882D01*
Y308568D01*
D02*
G37*
G36*
X204100Y314200D02*
X196600D01*
Y308700D01*
X202196D01*
X202581Y307430D01*
X201795Y306905D01*
X200690Y305251D01*
X200501Y304300D01*
X204400D01*
Y309150D01*
X204100Y309434D01*
Y314200D01*
D02*
G37*
G36*
X240781Y302669D02*
X236882D01*
Y298769D01*
X237833Y298959D01*
X239487Y300064D01*
X240592Y301718D01*
X240781Y302669D01*
D02*
G37*
G36*
X234882D02*
X230983D01*
X231173Y301718D01*
X232278Y300064D01*
X233932Y298959D01*
X234882Y298769D01*
Y302669D01*
D02*
G37*
G36*
X210299Y302300D02*
X206400D01*
Y298401D01*
X207351Y298590D01*
X209005Y299695D01*
X210110Y301349D01*
X210299Y302300D01*
D02*
G37*
G36*
X204400D02*
X200501D01*
X200690Y301349D01*
X201795Y299695D01*
X203449Y298590D01*
X204400Y298401D01*
Y302300D01*
D02*
G37*
G36*
X165700Y434200D02*
X160700D01*
Y430455D01*
X159430Y430070D01*
X158605Y431305D01*
X156951Y432410D01*
X156000Y432599D01*
Y427700D01*
Y422801D01*
X156951Y422990D01*
X158605Y424095D01*
X159430Y425330D01*
X160700Y424945D01*
Y421200D01*
X165700D01*
Y427700D01*
Y434200D01*
D02*
G37*
G36*
X172700D02*
X167700D01*
Y428700D01*
X172700D01*
Y434200D01*
D02*
G37*
G36*
X154000Y432599D02*
X153049Y432410D01*
X151395Y431305D01*
X150290Y429651D01*
X150101Y428700D01*
X154000D01*
Y432599D01*
D02*
G37*
G36*
Y426700D02*
X150101D01*
X150290Y425749D01*
X151395Y424095D01*
X153049Y422990D01*
X154000Y422801D01*
Y426700D01*
D02*
G37*
G36*
X172700D02*
X167700D01*
Y421200D01*
X172700D01*
Y426700D01*
D02*
G37*
G36*
X145282Y423068D02*
Y419169D01*
X149181D01*
X148992Y420120D01*
X147887Y421773D01*
X146233Y422878D01*
X145282Y423068D01*
D02*
G37*
G36*
X143282D02*
X142331Y422878D01*
X140678Y421773D01*
X139572Y420120D01*
X139383Y419169D01*
X143282D01*
Y423068D01*
D02*
G37*
G36*
X149181Y417169D02*
X145282D01*
Y413270D01*
X146233Y413459D01*
X147887Y414564D01*
X148992Y416218D01*
X149181Y417169D01*
D02*
G37*
G36*
X143282D02*
X139383D01*
X139572Y416218D01*
X140678Y414564D01*
X142331Y413459D01*
X143282Y413270D01*
Y417169D01*
D02*
G37*
G36*
X168700Y418100D02*
X163200D01*
Y410600D01*
X168700D01*
Y418100D01*
D02*
G37*
G36*
X161200D02*
X155700D01*
Y410600D01*
X161200D01*
Y418100D01*
D02*
G37*
G36*
X131300Y369400D02*
X123800D01*
Y363900D01*
X131300D01*
Y369400D01*
D02*
G37*
G36*
X121800D02*
X114300D01*
Y363900D01*
X121800D01*
Y369400D01*
D02*
G37*
G36*
X131300Y361900D02*
X123800D01*
Y356400D01*
X131300D01*
Y361900D01*
D02*
G37*
G36*
X121800D02*
X114300D01*
Y356400D01*
X121800D01*
Y361900D01*
D02*
G37*
G36*
X140300Y322400D02*
X132800D01*
Y316900D01*
X140300D01*
Y322400D01*
D02*
G37*
G36*
X131699Y298500D02*
X127800D01*
Y294601D01*
X128751Y294790D01*
X130405Y295895D01*
X131510Y297549D01*
X131699Y298500D01*
D02*
G37*
G36*
X230900Y258600D02*
X225400D01*
Y253600D01*
X230900D01*
Y258600D01*
D02*
G37*
G36*
X223400D02*
X217900D01*
Y253600D01*
X223400D01*
Y258600D01*
D02*
G37*
G36*
X214800D02*
X209300D01*
Y253600D01*
X214800D01*
Y258600D01*
D02*
G37*
G36*
X223400Y251600D02*
X217900D01*
Y246600D01*
X223400D01*
Y251600D01*
D02*
G37*
G36*
X214800Y251600D02*
X209300D01*
Y246600D01*
X214800D01*
Y251600D01*
D02*
G37*
G36*
X230900Y251600D02*
X225400D01*
Y246600D01*
X226199D01*
X226610Y246100D01*
X231000D01*
Y250898D01*
X230900Y250980D01*
Y251600D01*
D02*
G37*
G36*
X251000Y248500D02*
X243500D01*
Y243000D01*
X251000D01*
Y248500D01*
D02*
G37*
G36*
X231000Y244100D02*
X226712D01*
X226219Y243500D01*
X225400D01*
Y238500D01*
X230900D01*
Y239220D01*
X231000Y239302D01*
Y244100D01*
D02*
G37*
G36*
X223400Y243500D02*
X217900D01*
Y238500D01*
X223400D01*
Y243500D01*
D02*
G37*
G36*
X214800D02*
X209300D01*
Y238500D01*
X214800D01*
Y243500D01*
D02*
G37*
G36*
X233000Y249999D02*
Y245100D01*
Y239926D01*
X234000Y239105D01*
Y235500D01*
X241500D01*
Y242000D01*
Y248500D01*
X235742D01*
X235605Y248705D01*
X233951Y249810D01*
X233000Y249999D01*
D02*
G37*
G36*
X230900Y236500D02*
X225400D01*
Y231500D01*
X230900D01*
Y236500D01*
D02*
G37*
G36*
X223400D02*
X217900D01*
Y231500D01*
X223400D01*
Y236500D01*
D02*
G37*
G36*
X214800D02*
X209300D01*
Y231500D01*
X214800D01*
Y236500D01*
D02*
G37*
G36*
X166200Y281799D02*
Y277900D01*
X170099D01*
X169910Y278851D01*
X168805Y280505D01*
X167151Y281610D01*
X166200Y281799D01*
D02*
G37*
G36*
X164200D02*
X163249Y281610D01*
X161595Y280505D01*
X160490Y278851D01*
X160301Y277900D01*
X164200D01*
Y281799D01*
D02*
G37*
G36*
X170099Y275900D02*
X166200D01*
Y272001D01*
X167151Y272190D01*
X168805Y273295D01*
X169910Y274949D01*
X170099Y275900D01*
D02*
G37*
G36*
X164200D02*
X160301D01*
X160490Y274949D01*
X161595Y273295D01*
X163249Y272190D01*
X164200Y272001D01*
Y275900D01*
D02*
G37*
G36*
X156565Y252634D02*
X155614Y252445D01*
X153960Y251340D01*
X152855Y249686D01*
X152666Y248735D01*
X156565D01*
Y252634D01*
D02*
G37*
G36*
X155800Y236500D02*
X150300D01*
Y231500D01*
X155800D01*
Y236500D01*
D02*
G37*
G36*
X259700Y213400D02*
X254700D01*
Y207900D01*
X259700D01*
Y213400D01*
D02*
G37*
G36*
X252700D02*
X247700D01*
Y207900D01*
X252700D01*
Y213400D01*
D02*
G37*
G36*
X273100Y193200D02*
X269201D01*
X269390Y192249D01*
X270495Y190595D01*
X272149Y189490D01*
X273100Y189301D01*
Y193200D01*
D02*
G37*
G36*
X273100Y187200D02*
X267600D01*
Y182200D01*
X273100D01*
Y187200D01*
D02*
G37*
G36*
Y180200D02*
X267600D01*
Y175200D01*
X273100D01*
Y180200D01*
D02*
G37*
G36*
X162500Y131000D02*
X157000D01*
Y126000D01*
X162500D01*
Y131000D01*
D02*
G37*
G36*
X151500Y129899D02*
Y126000D01*
X155399D01*
X155210Y126951D01*
X154105Y128605D01*
X152451Y129710D01*
X151500Y129899D01*
D02*
G37*
G36*
X263699Y100600D02*
X259800D01*
Y96701D01*
X260751Y96890D01*
X262405Y97995D01*
X263510Y99649D01*
X263699Y100600D01*
D02*
G37*
G36*
X257800D02*
X253901D01*
X254090Y99649D01*
X255195Y97995D01*
X256849Y96890D01*
X257800Y96701D01*
Y100600D01*
D02*
G37*
G36*
X269200Y92548D02*
X263700D01*
X261749Y92160D01*
X260095Y91055D01*
X258990Y89401D01*
X258801Y88450D01*
X269200D01*
Y92548D01*
D02*
G37*
G36*
Y86450D02*
X258801D01*
X258990Y85499D01*
X260095Y83845D01*
X261749Y82740D01*
X263700Y82352D01*
X269200D01*
Y86450D01*
D02*
G37*
G36*
X170722Y93185D02*
X166823D01*
X167012Y92234D01*
X168117Y90580D01*
X169771Y89475D01*
X170722Y89286D01*
Y93185D01*
D02*
G37*
G36*
X166200Y86267D02*
X164600D01*
Y83800D01*
X169468D01*
X169403Y84127D01*
X168651Y85251D01*
X167527Y86003D01*
X166200Y86267D01*
D02*
G37*
G36*
X136200Y61800D02*
X131332D01*
X131397Y61473D01*
X132149Y60349D01*
X133273Y59597D01*
X134600Y59333D01*
X136200D01*
Y61800D01*
D02*
G37*
G36*
X123400Y55999D02*
Y52100D01*
X127299D01*
X127110Y53051D01*
X126005Y54705D01*
X124351Y55810D01*
X123400Y55999D01*
D02*
G37*
%LPD*%
D10*
X188700Y457100D02*
X188757Y457157D01*
X195457D01*
X195700Y457400D01*
X171465Y93928D02*
X171722Y94185D01*
X165065Y93928D02*
X171465D01*
X171600Y115600D02*
X180600Y106600D01*
X155400Y101863D02*
X157222Y103685D01*
X180600Y65450D02*
Y106600D01*
Y65450D02*
X196700Y49350D01*
X171600Y115600D02*
Y132500D01*
X123070Y55933D02*
X129936Y62800D01*
X123070Y51770D02*
Y55933D01*
X122400Y51100D02*
X123070Y51770D01*
X172422Y54985D02*
X173022Y54385D01*
X172422Y54985D02*
Y64885D01*
X129936Y62800D02*
X137200D01*
X155400Y60000D02*
Y85600D01*
X150400Y60000D02*
Y85600D01*
X119222Y80285D02*
X121736Y82800D01*
X137200D01*
X143722Y94785D02*
X148935D01*
X143722D02*
X145400Y93107D01*
Y85600D02*
Y93107D01*
X163600Y67800D02*
X163657Y67743D01*
X169564D02*
X172422Y64885D01*
X163657Y67743D02*
X169564D01*
X172322Y79264D02*
Y93585D01*
X170857Y77800D02*
X172322Y79264D01*
X163600Y77800D02*
X170857D01*
X163600Y82800D02*
Y92464D01*
X165065Y93928D01*
X171722Y94185D02*
X172322Y93585D01*
X155400Y85600D02*
Y101863D01*
X148935Y94785D02*
X150400Y93321D01*
Y85600D02*
Y93321D01*
X196700Y49350D02*
X203200D01*
X226900Y192800D02*
X230100Y196000D01*
Y197800D01*
X238700Y206400D02*
Y206900D01*
X230100Y197800D02*
X238700Y206400D01*
X217800Y197800D02*
X230100D01*
X153000Y189300D02*
X153650Y189950D01*
X160700D01*
X162850Y187800D02*
X168800D01*
X160700Y189950D02*
X162850Y187800D01*
X217800Y192800D02*
X226900D01*
X205900Y220100D02*
X208300Y222500D01*
X205800Y216200D02*
X205900Y216300D01*
X205800Y204800D02*
Y216200D01*
X200800Y204800D02*
Y211200D01*
X205900Y216300D02*
Y220100D01*
X200800Y211200D02*
X205800Y216200D01*
X171600Y132500D02*
X179100Y140000D01*
X166750Y142750D02*
Y144500D01*
X175800Y153550D02*
Y155800D01*
X179100Y140000D02*
X179600D01*
X180800Y141200D01*
X166750Y144500D02*
X175800Y153550D01*
X180800Y141200D02*
Y155800D01*
X164000Y140000D02*
X166750Y142750D01*
X163500Y140000D02*
X164000D01*
X171700Y457100D02*
X174200Y459600D01*
Y459600D02*
X176700Y462100D01*
X176700Y445100D02*
X176757Y445043D01*
X159700Y462100D02*
X171700D01*
X159700Y457100D02*
X171700D01*
X181700Y435100D02*
Y445100D01*
X176757Y438543D02*
Y445043D01*
X176700Y462100D02*
X188700D01*
X171700D02*
Y474100D01*
X176757Y438543D02*
X181700Y433600D01*
X165050Y531177D02*
X165500Y531628D01*
D14*
X177500Y538300D02*
Y544600D01*
X175150Y546950D02*
X177500Y544600D01*
D15*
X168600Y318314D02*
X172586Y322300D01*
X168600Y308000D02*
Y318314D01*
X172586Y322300D02*
X175800D01*
X170500Y327300D02*
Y327900D01*
Y327300D02*
X175800D01*
D16*
X265600Y14665D02*
X267933Y10000D01*
X270265Y14665D01*
X272598Y10000D02*
X274930D01*
X273764D01*
Y16998D01*
X272598Y15832D01*
X278429Y10000D02*
Y11166D01*
X279596D01*
Y10000D01*
X278429D01*
X284261Y15832D02*
X285427Y16998D01*
X287759D01*
X288926Y15832D01*
Y14665D01*
X287759Y13499D01*
X288926Y12333D01*
Y11166D01*
X287759Y10000D01*
X285427D01*
X284261Y11166D01*
Y12333D01*
X285427Y13499D01*
X284261Y14665D01*
Y15832D01*
X285427Y13499D02*
X287759D01*
D19*
X177500Y560300D02*
D03*
X161500D02*
D03*
X165500D02*
D03*
X169500D02*
D03*
X173500D02*
D03*
X177500Y538300D02*
D03*
X173500D02*
D03*
X169500D02*
D03*
X165500D02*
D03*
X161500D02*
D03*
D20*
X169500Y549300D02*
D03*
D21*
X159700Y467100D02*
D03*
Y462100D02*
D03*
Y457100D02*
D03*
Y452100D02*
D03*
X188700D02*
D03*
Y457100D02*
D03*
Y462100D02*
D03*
Y467100D02*
D03*
D22*
X166700Y445100D02*
D03*
X171700D02*
D03*
X176700D02*
D03*
X181700D02*
D03*
Y474100D02*
D03*
X176700D02*
D03*
X171700D02*
D03*
X166700D02*
D03*
D23*
X174200Y459600D02*
D03*
D24*
X98700Y224600D02*
D03*
X77300D02*
D03*
X98700Y183200D02*
D03*
X77300D02*
D03*
X56700Y225600D02*
D03*
X35300D02*
D03*
X56700Y184200D02*
D03*
X35300D02*
D03*
D25*
X124900Y573400D02*
D03*
D26*
Y538400D02*
D03*
D27*
X161000Y317300D02*
D03*
X175800D02*
D03*
X161000Y327300D02*
D03*
Y322300D02*
D03*
X175800D02*
D03*
Y327300D02*
D03*
Y332300D02*
D03*
D28*
X161000D02*
D03*
D29*
X222400Y597800D02*
D03*
D30*
X231900D02*
D03*
X241400D02*
D03*
Y621800D02*
D03*
X231900D02*
D03*
X222400D02*
D03*
D31*
X81557Y481382D02*
D03*
X100557D02*
D03*
X91057Y502882D02*
D03*
D32*
X270200Y49350D02*
D03*
D33*
Y62050D02*
D03*
Y74750D02*
D03*
Y87450D02*
D03*
X203200Y49350D02*
D03*
Y62050D02*
D03*
Y74750D02*
D03*
Y87450D02*
D03*
D34*
X193300Y180300D02*
D03*
D35*
X217800Y197800D02*
D03*
Y192800D02*
D03*
Y187800D02*
D03*
Y182800D02*
D03*
Y177800D02*
D03*
Y172800D02*
D03*
Y167800D02*
D03*
Y162800D02*
D03*
X168800D02*
D03*
Y167800D02*
D03*
Y172800D02*
D03*
Y177800D02*
D03*
Y182800D02*
D03*
Y187800D02*
D03*
Y192800D02*
D03*
Y197800D02*
D03*
D36*
X210800Y155800D02*
D03*
X205800D02*
D03*
X200800D02*
D03*
X195800D02*
D03*
X190800D02*
D03*
X185800D02*
D03*
X180800D02*
D03*
X175800D02*
D03*
Y204800D02*
D03*
X180800D02*
D03*
X185800D02*
D03*
X190800D02*
D03*
X195800D02*
D03*
X200800D02*
D03*
X205800D02*
D03*
X210800D02*
D03*
D37*
X33600Y141200D02*
D03*
Y126200D02*
D03*
X164800Y626800D02*
D03*
Y611800D02*
D03*
X224400Y252600D02*
D03*
Y267600D02*
D03*
X189000Y237500D02*
D03*
Y222500D02*
D03*
X172900Y237500D02*
D03*
Y222500D02*
D03*
X200900Y576800D02*
D03*
Y591800D02*
D03*
X265000Y340000D02*
D03*
Y325000D02*
D03*
X142200Y452400D02*
D03*
Y467400D02*
D03*
X147100Y550200D02*
D03*
Y535200D02*
D03*
X274100Y181200D02*
D03*
Y166200D02*
D03*
X208300Y222500D02*
D03*
Y237500D02*
D03*
X269300Y221400D02*
D03*
Y206400D02*
D03*
X179600Y140000D02*
D03*
Y125000D02*
D03*
X189488Y626820D02*
D03*
Y611820D02*
D03*
X163500Y140000D02*
D03*
Y125000D02*
D03*
X156800Y222500D02*
D03*
Y237500D02*
D03*
X224400Y222500D02*
D03*
Y237500D02*
D03*
X240500Y581000D02*
D03*
Y566000D02*
D03*
X222900Y566200D02*
D03*
Y581200D02*
D03*
X240500Y257600D02*
D03*
Y272600D02*
D03*
X205588Y626820D02*
D03*
Y611820D02*
D03*
X168700Y591800D02*
D03*
Y576800D02*
D03*
X208300Y252600D02*
D03*
Y267600D02*
D03*
X184800Y591800D02*
D03*
Y576800D02*
D03*
X191900Y538000D02*
D03*
Y553000D02*
D03*
X258700Y611300D02*
D03*
Y626300D02*
D03*
X274800Y611300D02*
D03*
Y626300D02*
D03*
X119222Y65285D02*
D03*
Y80285D02*
D03*
X114300Y203200D02*
D03*
Y188200D02*
D03*
X17500Y141200D02*
D03*
Y126200D02*
D03*
D38*
X145400Y85600D02*
D03*
X150400D02*
D03*
X155400D02*
D03*
Y60000D02*
D03*
X150400D02*
D03*
X145400D02*
D03*
D39*
X163600Y82800D02*
D03*
Y77800D02*
D03*
Y72800D02*
D03*
Y67800D02*
D03*
Y62800D02*
D03*
X137200D02*
D03*
Y67800D02*
D03*
Y72800D02*
D03*
Y77800D02*
D03*
D40*
Y82800D02*
D03*
D41*
X72600Y553200D02*
D03*
X72600Y537100D02*
D03*
D42*
X56600Y553200D02*
D03*
X56600Y537100D02*
D03*
D43*
X175600Y367500D02*
D03*
X143600D02*
D03*
D44*
X101100Y619500D02*
D03*
D45*
X143100D02*
D03*
D46*
X256600Y188200D02*
D03*
Y166200D02*
D03*
X240600Y188200D02*
D03*
Y166200D02*
D03*
D47*
X122800Y362900D02*
D03*
Y381900D02*
D03*
X195600Y315200D02*
D03*
Y334200D02*
D03*
X242500Y242000D02*
D03*
Y223000D02*
D03*
X141300Y315900D02*
D03*
Y334900D02*
D03*
X197300Y352100D02*
D03*
Y371100D02*
D03*
X216200Y333900D02*
D03*
Y314900D02*
D03*
D48*
X207500Y648400D02*
D03*
X197500D02*
D03*
X222500D02*
D03*
X217500D02*
D03*
X212500D02*
D03*
X202500D02*
D03*
X192500D02*
D03*
X187500D02*
D03*
D49*
X173000D02*
D03*
X181000D02*
D03*
X237000D02*
D03*
X229000D02*
D03*
D50*
X153800Y654200D02*
D03*
Y693500D02*
D03*
X256200D02*
D03*
Y654200D02*
D03*
D51*
X87700Y537100D02*
D03*
X102700D02*
D03*
X87700Y553200D02*
D03*
X102700D02*
D03*
X138000Y170000D02*
D03*
X153000D02*
D03*
X84957Y517282D02*
D03*
X99957D02*
D03*
X82757Y466982D02*
D03*
X97757D02*
D03*
X165200Y522400D02*
D03*
X180200D02*
D03*
X181700Y427700D02*
D03*
X166700D02*
D03*
X153000Y189300D02*
D03*
X138000D02*
D03*
X238700Y206900D02*
D03*
X253700D02*
D03*
X87700Y569300D02*
D03*
X102700D02*
D03*
X142222Y103685D02*
D03*
X157222D02*
D03*
X20600Y336800D02*
D03*
X35600D02*
D03*
X70300Y250700D02*
D03*
X55300D02*
D03*
X20600Y320700D02*
D03*
X35600D02*
D03*
D52*
X131700Y594600D02*
D03*
X150700D02*
D03*
X181200Y409600D02*
D03*
X162200D02*
D03*
D92*
X170100Y611800D02*
X185120Y626820D01*
X189488D02*
X205588D01*
X185120D02*
X189488D01*
X145057Y620200D02*
X153457Y611800D01*
X164800D01*
X145057Y620200D02*
Y620600D01*
X170609Y632109D02*
X175509D01*
X175700Y632300D01*
X164800Y626800D02*
X165300D01*
X170609Y632109D01*
X164800Y611800D02*
X170100D01*
X99957Y516782D02*
X100457D01*
X99957Y507568D02*
Y516782D01*
X124000Y397600D02*
X171200D01*
X180700Y407100D01*
Y409100D01*
X181200Y409600D01*
X151450Y334900D02*
X159700D01*
X143200D02*
X151450D01*
X181700Y427200D02*
Y427700D01*
X181200Y426700D02*
X181700Y427200D01*
X181200Y410900D02*
Y426700D01*
X181700Y427700D02*
Y435100D01*
X156100Y535200D02*
X157600Y536700D01*
X147100Y535200D02*
X156100D01*
X91057Y502882D02*
X95271D01*
X99957Y507568D01*
D93*
X232187Y608887D02*
X232600Y609300D01*
X232187Y598087D02*
Y608887D01*
X225001Y631780D02*
X231613Y625167D01*
Y622087D02*
X231900Y621800D01*
X225001Y631780D02*
Y632050D01*
X231613Y622087D02*
Y625167D01*
X142400Y620600D02*
Y623997D01*
X100600Y619000D02*
X101100Y619500D01*
X82600Y619000D02*
X100600D01*
X175700Y632300D02*
X181000Y637600D01*
Y648400D01*
X231900Y597800D02*
X232187Y598087D01*
X235702Y635491D02*
X245009D01*
X245200Y635300D01*
X229300Y641893D02*
X235702Y635491D01*
X256100Y642200D02*
Y654100D01*
X254800Y640900D02*
X256100Y642200D01*
X254800Y640600D02*
Y640900D01*
X221500Y492200D02*
X237100D01*
X245800Y483500D01*
X217100Y487800D02*
X221500Y492200D01*
X217100Y476900D02*
Y487800D01*
X200000Y450400D02*
X225400Y475800D01*
Y484500D01*
X197600Y457400D02*
X217100Y476900D01*
X192500Y450400D02*
X200000D01*
X195700Y457400D02*
X197600D01*
X141400Y314500D02*
X142800Y315900D01*
X122800Y352518D02*
X128600Y346717D01*
Y326600D02*
Y346717D01*
X122800Y352518D02*
Y362900D01*
X172900Y237500D02*
X189000D01*
X134700Y232794D02*
Y267800D01*
X172900Y237500D02*
X188600D01*
X102500Y280300D02*
Y340006D01*
X191937Y450963D02*
X192500Y450400D01*
X191937Y450963D02*
X191937D01*
X187100Y562429D02*
Y562700D01*
Y562429D02*
X189900Y559629D01*
Y554500D02*
X191400Y553000D01*
X189900Y554500D02*
Y559629D01*
X191400Y553000D02*
X191900D01*
X274100Y181200D02*
Y194200D01*
X89925Y454550D02*
X90480D01*
X95100Y347406D02*
Y450100D01*
X90480Y454550D02*
X94829Y450200D01*
X95100Y347406D02*
X102500Y340006D01*
X87875Y456600D02*
X89925Y454550D01*
X141629Y466829D02*
X142200Y467400D01*
X129929Y466829D02*
X141629D01*
X113500Y450400D02*
X129929Y466829D01*
X56600Y537100D02*
X65000Y528700D01*
Y464429D02*
Y528700D01*
X72829Y456600D02*
X87875D01*
X65000Y464429D02*
X72829Y456600D01*
X97757Y466482D02*
Y466982D01*
X87875Y456600D02*
X97757Y466482D01*
X100557Y470282D02*
Y481382D01*
X97757Y467482D02*
X100557Y470282D01*
X97757Y466982D02*
Y467482D01*
X74500Y489689D02*
X81057Y483132D01*
X74500Y508129D02*
X75500Y509129D01*
X74500Y489689D02*
Y508129D01*
X81057Y482382D02*
X82057Y481382D01*
X81057Y482382D02*
Y483132D01*
X75500Y509400D02*
X75500D01*
X75500Y509129D02*
Y509400D01*
X83457Y515282D02*
X84957Y516782D01*
X75500Y509400D02*
X81382Y515282D01*
X84957Y516782D02*
Y517282D01*
X81382Y515282D02*
X83457D01*
X180200Y522400D02*
X190829D01*
X193929Y525500D02*
X194200D01*
X190829Y522400D02*
X193929Y525500D01*
X206200Y601729D02*
Y602000D01*
X206009Y602191D02*
Y611741D01*
X202900Y598429D02*
X206200Y601729D01*
X184800Y591800D02*
X201400D01*
X202900Y593300D01*
X206009Y611741D02*
X206088Y611820D01*
X202900Y593300D02*
Y598429D01*
X206009Y602191D02*
X206200Y602000D01*
X131700Y594300D02*
Y594600D01*
X129700Y598109D02*
X131700Y596109D01*
X119291Y598109D02*
X129700D01*
X119100Y598300D02*
X119291Y598109D01*
X131700Y594600D02*
Y596109D01*
X189488Y611820D02*
X206088D01*
X166700Y416100D02*
Y427700D01*
X162200Y411600D02*
X166700Y416100D01*
X139100Y295000D02*
X179600D01*
X190700Y283900D01*
X245000Y285800D02*
X250500D01*
X260100Y276200D01*
Y238600D02*
Y276200D01*
X208550Y222750D02*
X240450D01*
X189900Y238800D02*
Y282829D01*
X188600Y237500D02*
X189900Y238800D01*
X134700Y267800D02*
Y290600D01*
X139100Y295000D01*
X134700Y232794D02*
X137200Y230294D01*
Y212600D02*
Y230294D01*
X141400Y307100D02*
X141500Y307000D01*
X141400Y307100D02*
Y314500D01*
X139300Y315900D02*
X141300D01*
X128600Y326600D02*
X139300Y315900D01*
X201300Y373100D02*
Y381300D01*
X204000Y384000D01*
X205591Y306291D02*
X214200Y314900D01*
X205400Y303300D02*
Y303300D01*
X205591Y303491D01*
Y306291D01*
X199600Y309100D02*
X205400Y303300D01*
X199600Y309100D02*
Y313200D01*
X180428Y322300D02*
X180528Y322200D01*
X214200Y314900D02*
X216200D01*
X197600Y315200D02*
X199600Y313200D01*
X193600Y315200D02*
X197600D01*
X186600Y322200D02*
X193600Y315200D01*
X180528Y322200D02*
X186600D01*
X199300Y371100D02*
X201300Y373100D01*
X197300Y371100D02*
X199300D01*
X168400Y330000D02*
Y341982D01*
Y330000D02*
X170500Y327900D01*
X244500Y223000D02*
X260100Y238600D01*
X117922Y90456D02*
X123522Y96056D01*
X117922Y90185D02*
Y90456D01*
X123522Y96056D02*
Y102385D01*
X144400Y140000D02*
X163500D01*
X126400Y158000D02*
X144400Y140000D01*
X17500Y126200D02*
X33600D01*
X27791Y115491D02*
X31600Y119300D01*
Y124700D01*
X33100Y126200D02*
X33600D01*
X31600Y124700D02*
X33100Y126200D01*
X19200Y115300D02*
X19391Y115491D01*
X27791D01*
X229300Y641893D02*
Y648100D01*
X229000Y648400D02*
X229300Y648100D01*
X250400Y648400D02*
X256100Y654100D01*
X256200Y654200D01*
X237000Y648400D02*
X250400D01*
X275300Y611300D02*
X287800Y598800D01*
X274800Y611300D02*
X275300D01*
X258700D02*
X274800D01*
X158800Y649200D02*
X161900D01*
X162700Y648400D01*
X173000D01*
X153800Y654200D02*
X158800Y649200D01*
X153800Y680000D02*
Y693500D01*
Y654200D02*
Y680000D01*
X133300Y677400D02*
X135900Y680000D01*
X133100Y677400D02*
X133300D01*
X135900Y680000D02*
X153800D01*
X77300Y224600D02*
Y226600D01*
X66200Y237700D02*
X77300Y226600D01*
X35300Y225600D02*
Y234771D01*
X38229Y237700D01*
X66200D01*
X35300Y184200D02*
Y225600D01*
X12891Y308191D02*
Y312491D01*
X12700Y308000D02*
X12891Y308191D01*
X20600Y320200D02*
Y320700D01*
X12891Y312491D02*
X20600Y320200D01*
Y320700D02*
Y336800D01*
X264200Y340800D02*
X265000Y340000D01*
Y350700D02*
X265300Y351000D01*
X265000Y340000D02*
Y350700D01*
X155722Y105185D02*
X157222Y103685D01*
X147391Y199126D02*
X151500Y195018D01*
Y190800D02*
Y195018D01*
X131800Y196000D02*
Y198450D01*
X131850Y198500D01*
X181600Y116600D02*
X182200Y116000D01*
X179300Y124700D02*
X179600Y125000D01*
X181600Y116600D02*
Y123500D01*
X179300Y124700D02*
X179450Y124550D01*
X155722Y105185D02*
Y108856D01*
X123522Y102385D02*
X133322Y112185D01*
X152393D02*
X155722Y108856D01*
X133322Y112185D02*
X152393D01*
X118113Y81394D02*
Y89994D01*
X117922Y90185D02*
X118113Y89994D01*
Y81394D02*
X119222Y80285D01*
X130792Y99485D02*
X135492Y94785D01*
X130522Y99485D02*
X130792D01*
X142222Y103685D02*
X143722Y102185D01*
X135492Y94785D02*
X143722D01*
Y102185D01*
X263971Y87450D02*
X270200D01*
X240500Y244000D02*
X242500Y242000D01*
X263509Y87912D02*
X263971Y87450D01*
X253700Y206900D02*
Y217900D01*
X257600Y221800D01*
X238700Y206900D02*
Y221000D01*
X257600Y221800D02*
X258000Y221400D01*
X238700Y221000D02*
X240450Y222750D01*
X242250D01*
X242500Y223000D01*
X258000Y221400D02*
X269300D01*
X242500Y223000D02*
X244500D01*
X138000Y170000D02*
Y170500D01*
X132221Y172000D02*
X136500D01*
X126746Y177475D02*
X132221Y172000D01*
X126475Y177475D02*
X126746D01*
X137200Y212600D02*
X147391Y202409D01*
X151500Y190800D02*
X153000Y189300D01*
X156800Y237500D02*
Y246699D01*
X224400Y237500D02*
X224900D01*
X131800Y196000D02*
X138000Y189800D01*
Y189300D02*
Y189800D01*
X208300Y222500D02*
X208550Y222750D01*
X156800Y246699D02*
X157565Y247464D01*
X232000Y245100D02*
Y245371D01*
X234800Y244000D02*
X240500D01*
X231809Y244909D02*
X232000Y245100D01*
X231809Y244409D02*
Y244909D01*
X234500Y244300D02*
X234800Y244000D01*
X231500Y245870D02*
X232000Y245371D01*
X231500Y245870D02*
Y246000D01*
X208300Y252600D02*
X209109Y253409D01*
X157565Y247464D02*
Y247735D01*
X224400Y253100D02*
X231500Y246000D01*
X224900Y237500D02*
X231809Y244409D01*
X224400Y253100D02*
Y253409D01*
X209109D02*
X224400D01*
X208300Y237500D02*
Y252600D01*
X263509Y87912D02*
Y96891D01*
X258800Y101600D02*
X263509Y96891D01*
X180100Y125000D02*
X181600Y123500D01*
X179600Y125000D02*
X180100D01*
X136500Y172000D02*
X138000Y170500D01*
X150500Y125000D02*
X163500D01*
X162200Y409600D02*
Y411600D01*
X155000Y427700D02*
X166700D01*
X165050Y522550D02*
X165200Y522400D01*
X147809Y549491D02*
X156609D01*
X157600Y536700D02*
X159400Y538500D01*
X147100Y550200D02*
X147809Y549491D01*
X165050Y522550D02*
Y531177D01*
X156800Y549300D02*
X169500D01*
X156609Y549491D02*
X156800Y549300D01*
X56600Y537100D02*
Y553200D01*
X57400Y561000D02*
X65700Y569300D01*
X56600Y553200D02*
X56600Y553200D01*
X57400Y554000D02*
Y561000D01*
X56600Y553200D02*
X57400Y554000D01*
X65700Y569300D02*
X87700D01*
X184800Y591800D02*
Y591800D01*
X168700D02*
X184800D01*
X82757Y466982D02*
Y481382D01*
D94*
X241400Y597800D02*
Y621800D01*
Y581900D02*
Y597800D01*
X197500Y640507D02*
Y648400D01*
X200107Y637900D02*
X206100D01*
X207500Y639300D02*
Y648400D01*
X197500Y640507D02*
X200107Y637900D01*
X222400Y621800D02*
Y623050D01*
X209657Y635793D02*
X222400Y623050D01*
X207879Y637900D02*
X209657Y636121D01*
Y635793D02*
Y636121D01*
X206100Y637900D02*
X207879D01*
X206100D02*
X207500Y639300D01*
X222400Y597800D02*
Y621800D01*
Y597800D02*
X222900Y597300D01*
Y581200D02*
Y597300D01*
X202500Y648400D02*
Y656600D01*
X203600Y657700D01*
X211170D02*
X212500Y656370D01*
X203600Y657700D02*
X211170D01*
X241400Y621800D02*
Y623076D01*
X212500Y639300D02*
Y648400D01*
Y656370D01*
X214500Y637300D02*
X227176D01*
X212500Y639300D02*
X214500Y637300D01*
X227176D02*
X241400Y623076D01*
X240500Y581000D02*
X241400Y581900D01*
X240500Y553825D02*
X282500Y511825D01*
Y240100D02*
Y511825D01*
X240500Y553825D02*
Y566000D01*
X226650Y562450D02*
X279500Y509600D01*
X226650Y562450D02*
Y562950D01*
X279500Y238857D02*
Y509600D01*
X223400Y566200D02*
X226650Y562950D01*
X222900Y566200D02*
X223400D01*
X271200Y629550D02*
Y667600D01*
Y629550D02*
X274450Y626300D01*
X274800D01*
X267321Y634921D02*
Y666979D01*
X259200Y626300D02*
X262450Y629550D01*
Y630050D02*
X267321Y634921D01*
X258700Y626300D02*
X259200D01*
X262450Y629550D02*
Y630050D01*
X225700Y513200D02*
X234357D01*
X225300Y512800D02*
X225700Y513200D01*
X234357D02*
X258600Y488957D01*
X230100Y521700D02*
X261600Y490200D01*
X198400Y516600D02*
X203500Y521700D01*
X230100D01*
X261600Y411957D02*
Y490200D01*
X258600Y413200D02*
Y488957D01*
X103350Y352465D02*
Y454317D01*
Y352465D02*
X116400Y339415D01*
Y265522D02*
Y339415D01*
X106350Y353707D02*
Y453075D01*
Y353707D02*
X119400Y340657D01*
Y266765D02*
Y340657D01*
X109900Y354400D02*
X122400Y341900D01*
X109900Y354400D02*
Y436600D01*
X100350Y351222D02*
Y455560D01*
X113400Y264279D02*
Y338172D01*
X122400Y316000D02*
Y341900D01*
X100350Y351222D02*
X113400Y338172D01*
X116400Y265522D02*
X124200Y257722D01*
Y191418D02*
Y257722D01*
X113400Y264279D02*
X121200Y256479D01*
X119400Y266765D02*
X127200Y258965D01*
Y212600D02*
Y258965D01*
X121200Y190175D02*
Y256479D01*
Y190175D02*
X131825Y179550D01*
X124200Y191418D02*
X133068Y182550D01*
X127200Y212600D02*
X145834Y193966D01*
X43850Y311950D02*
X55300Y300500D01*
X35600Y320200D02*
X43850Y311950D01*
X55300Y250700D02*
Y300500D01*
X35600Y320200D02*
Y320700D01*
Y336800D01*
X19500Y139200D02*
X94800D01*
X17500Y141200D02*
X19500Y139200D01*
X264500Y325000D02*
X264900Y324600D01*
Y313600D02*
Y324600D01*
Y312382D02*
X267900Y309382D01*
X264900Y312382D02*
Y313600D01*
X267900Y238725D02*
Y309382D01*
X252200Y302679D02*
Y402557D01*
X248750Y301450D02*
Y403350D01*
X238500Y291200D02*
X248750Y301450D01*
X252200Y302679D02*
X264900Y289979D01*
X252200Y402557D02*
X261600Y411957D01*
X248750Y403350D02*
X258600Y413200D01*
X264900Y237482D02*
Y289979D01*
X238500Y274600D02*
Y291200D01*
Y274600D02*
X240500Y272600D01*
X279500Y238857D02*
X286850Y231507D01*
X282500Y240100D02*
X289850Y232750D01*
X129256Y484466D02*
X144134D01*
X177500Y560300D02*
Y562646D01*
X177800Y562946D01*
X179921D02*
X186188Y569212D01*
X177800Y562946D02*
X179921D01*
X186188Y569212D02*
X192812D01*
X200400Y576800D01*
X267900Y238725D02*
X283850Y222775D01*
X264900Y237482D02*
X280850Y221532D01*
X273757Y140300D02*
X286850Y153393D01*
X275000Y137300D02*
X289850Y152150D01*
X230357Y137300D02*
X275000D01*
X289850Y152150D02*
Y232750D01*
X231600Y140300D02*
X273757D01*
X286850Y153393D02*
Y231507D01*
X270225Y146400D02*
X283850Y160025D01*
X273482Y153900D02*
X280850Y161268D01*
X234643Y153900D02*
X273482D01*
X244800Y146400D02*
X270225D01*
X283850Y160025D02*
Y222775D01*
X280850Y161268D02*
Y221532D01*
X219300Y148357D02*
X230357Y137300D01*
X223800Y148100D02*
X231600Y140300D01*
X109200Y56800D02*
Y101200D01*
X112472Y71535D02*
Y100229D01*
X109200Y101200D02*
X130422Y122422D01*
Y130222D01*
X135543Y123300D02*
X135800D01*
X112472Y100229D02*
X135543Y123300D01*
X94800Y139200D02*
X110615D01*
X114500Y134600D02*
Y135315D01*
X110615Y139200D02*
X114500Y135315D01*
X106350Y453075D02*
X115904Y462629D01*
X103350Y454317D02*
X125973Y476940D01*
X100350Y455560D02*
X129256Y484466D01*
X125973Y476940D02*
X144032D01*
X115904Y462629D02*
X115904D01*
X126925Y473650D01*
X160221Y573597D02*
X164218Y569600D01*
X156700Y578518D02*
Y578900D01*
Y578518D02*
X160221Y574997D01*
Y573597D02*
Y574997D01*
X98150Y530350D02*
X100900Y527600D01*
X125739D02*
X130000Y523339D01*
X100900Y527600D02*
X125739D01*
X126925Y473650D02*
X150050D01*
X109900Y436600D02*
X125700Y452400D01*
X141400D01*
X142200D01*
X186082Y516600D02*
X198400D01*
X174207Y515650D02*
X185132D01*
X186082Y516600D01*
X149855Y482763D02*
Y484879D01*
X155425Y490450D02*
X166450D01*
X150050Y473650D02*
X156175Y467525D01*
X144032Y476940D02*
X149855Y482763D01*
Y484879D02*
X155425Y490450D01*
X130000Y522600D02*
Y523339D01*
X96450Y531668D02*
Y546450D01*
Y531668D02*
X97768Y530350D01*
X98150D01*
X102700Y537600D02*
X105950Y540850D01*
X106450D01*
X102700Y537100D02*
Y537600D01*
X106450Y540850D02*
X128400Y562800D01*
X139500D01*
X102700Y553200D02*
Y569300D01*
Y552700D02*
Y553200D01*
X142200Y452100D02*
X159700D01*
X166439Y244739D02*
Y246839D01*
X167300Y247700D01*
X197250Y219068D02*
Y284775D01*
X154050Y299750D02*
X182275D01*
X154450Y311850D02*
X158300Y308000D01*
X158400D01*
X155893Y302750D02*
X172475D01*
X153100Y300700D02*
X154050Y299750D01*
X182275D02*
X197250Y284775D01*
X154450Y311850D02*
Y322650D01*
X172475Y302750D02*
X175800Y306075D01*
X151450Y307193D02*
X155893Y302750D01*
X151450Y307193D02*
Y334900D01*
X137700Y300700D02*
X153100D01*
X142250Y282832D02*
X145000Y285582D01*
X142250Y221125D02*
Y282832D01*
X145000Y285582D02*
Y286800D01*
X142250Y221125D02*
X152691Y210684D01*
X165400Y231779D02*
Y243700D01*
X166439Y244739D01*
X122400Y316000D02*
X137700Y300700D01*
X154450Y322650D02*
Y326350D01*
X155050Y322650D02*
X155400Y322300D01*
X154450Y326350D02*
X155400Y327300D01*
Y322300D02*
X161000D01*
X154450Y322650D02*
X155050D01*
X175800Y306075D02*
Y317300D01*
X155400Y327300D02*
X161000D01*
X106600Y161500D02*
X111720Y156381D01*
Y154881D02*
X117700Y148900D01*
X111720Y154881D02*
Y156381D01*
X114300Y160745D02*
Y188200D01*
Y160745D02*
X122643Y152402D01*
Y152298D02*
Y152402D01*
X132652Y142288D02*
X134337D01*
X122643Y152298D02*
X132652Y142288D01*
X109200Y56800D02*
X120150Y45850D01*
X138350D01*
X118722Y65285D02*
X119222D01*
X112472Y71535D02*
X118722Y65285D01*
X117172Y62035D02*
X122936Y67800D01*
X130422Y130222D02*
X134700Y134500D01*
X142200Y122300D02*
Y134425D01*
X134337Y142288D02*
X142200Y134425D01*
Y122300D02*
X146600Y117900D01*
X157600D01*
X177100Y98400D01*
X163600Y72800D02*
X172600D01*
X177100Y77300D01*
Y98400D01*
X145400Y52900D02*
Y60000D01*
X138350Y45850D02*
X145400Y52900D01*
X80000Y100800D02*
X94800Y115600D01*
Y139200D01*
X217500Y648400D02*
Y661921D01*
X264000Y674800D02*
X271200Y667600D01*
X199100Y674800D02*
X264000D01*
X225879Y670300D02*
X264000D01*
X267321Y666979D01*
X258200Y626300D02*
X258700D01*
X217500Y661921D02*
X225879Y670300D01*
X187500Y648400D02*
Y663200D01*
X199100Y674800D01*
X96450Y546450D02*
X102700Y552700D01*
X98700Y183200D02*
Y222300D01*
X137200Y158600D02*
X145130D01*
X147268Y156462D01*
X69800Y161500D02*
X106600D01*
X59200Y172100D02*
X69800Y161500D01*
X56700Y184200D02*
Y225600D01*
X59200Y172100D02*
Y181700D01*
X56700Y184200D02*
X59200Y181700D01*
X114300Y203200D02*
Y218125D01*
X155408Y200991D02*
X163600Y192800D01*
X155408Y200991D02*
Y201008D01*
X145834Y184784D02*
Y193966D01*
X163600Y192800D02*
X168800D01*
X118200Y222025D02*
Y233700D01*
X114300Y218125D02*
X118200Y222025D01*
X101200Y250700D02*
X118200Y233700D01*
X70300Y250700D02*
X101200D01*
X70300Y250700D02*
X70300Y250700D01*
X166450Y490450D02*
X176700Y480200D01*
X156175Y467525D02*
X159275D01*
X159700Y467100D01*
X159931Y161955D02*
X160755D01*
X166248Y167448D02*
X168449D01*
X147268Y156462D02*
X154438D01*
X159931Y161955D01*
X161193Y157293D02*
X166700Y162800D01*
X157700Y152300D02*
Y152739D01*
X168449Y167448D02*
X168800Y167800D01*
X161193Y156232D02*
Y157293D01*
X160755Y161955D02*
X166248Y167448D01*
X157700Y152739D02*
X161193Y156232D01*
X166700Y162800D02*
X168800D01*
X261250Y321750D02*
X264500Y325000D01*
X232600Y155942D02*
X234643Y153900D01*
X229300Y152600D02*
X235000Y146900D01*
X100900Y224500D02*
X112800D01*
X98700Y222300D02*
X100900Y224500D01*
X156250Y225750D02*
X159500Y222500D01*
X148100Y222900D02*
X148300D01*
X147500Y223500D02*
X148100Y222900D01*
X148300D02*
X148700Y222500D01*
X156800D01*
X196713Y113887D02*
X197000Y113600D01*
X196713Y113887D02*
Y121087D01*
X195800Y122000D02*
X196713Y121087D01*
X229300Y152600D02*
Y168400D01*
X223800Y148100D02*
Y164000D01*
X219300Y148357D02*
Y162338D01*
X190900Y93317D02*
Y144625D01*
X187900Y76125D02*
X194525Y69500D01*
X184900Y74234D02*
X197084Y62050D01*
X187900Y90317D02*
X190900Y93317D01*
X187900Y94560D02*
Y143382D01*
X190800Y144725D02*
X190900Y144625D01*
X184900Y91560D02*
X187900Y94560D01*
X185800Y145482D02*
X187900Y143382D01*
Y76125D02*
Y90317D01*
X184900Y74234D02*
Y91560D01*
X240500Y566000D02*
X241000D01*
X122936Y67800D02*
X137200D01*
X194525Y69500D02*
X260636D01*
X275482Y62050D02*
X277561Y64129D01*
X270200Y62050D02*
X275482D01*
X264918Y74750D02*
X270200D01*
X262839Y72671D02*
X264918Y74750D01*
X262839Y71703D02*
Y72671D01*
X248950Y64100D02*
X263700Y49350D01*
X277561Y64129D02*
Y65015D01*
X263700Y49350D02*
X270200D01*
X196042Y76829D02*
X198121Y74750D01*
X203200Y87450D02*
X203721D01*
X205800Y89529D01*
X197084Y62050D02*
X203200D01*
X198121Y74750D02*
X203200D01*
X240600Y189450D02*
X249850Y198700D01*
X217800Y187800D02*
X240200D01*
X218838Y162800D02*
X219300Y162338D01*
X217800Y167800D02*
X218152Y167448D01*
X220352D02*
X223800Y164000D01*
X217800Y162800D02*
X218838D01*
X218152Y167448D02*
X220352D01*
X225500Y182800D02*
X231800Y176500D01*
X226143Y175800D02*
X232600Y169342D01*
Y155942D02*
Y169342D01*
X224900Y172800D02*
X229300Y168400D01*
X261100Y198700D02*
X268800Y206400D01*
X269300D01*
X240200Y187800D02*
X240600Y188200D01*
Y189450D01*
X256600Y166200D02*
X274100D01*
X247550Y176500D02*
X256600Y167450D01*
X231800Y176500D02*
X247550D01*
X256600Y166200D02*
Y167450D01*
X249850Y198700D02*
X261100D01*
X210800Y116100D02*
Y155800D01*
X200800Y134868D02*
Y155800D01*
Y134868D02*
X202800Y132868D01*
X153000Y170000D02*
Y170500D01*
X145932Y173750D02*
X149750D01*
X153400Y172800D02*
X168800D01*
X140132Y179550D02*
X145932Y173750D01*
X131825Y179550D02*
X140132D01*
X141375Y182550D02*
X146125Y177800D01*
X133068Y182550D02*
X141375D01*
X148068D02*
X157932D01*
X158182Y182800D02*
X168800D01*
X157932Y182550D02*
X158182Y182800D01*
X146125Y177800D02*
X168800D01*
X145834Y184784D02*
X148068Y182550D01*
X156250Y225750D02*
Y226250D01*
X176100Y211700D02*
X179300Y208500D01*
X176100Y211700D02*
Y222500D01*
X179300Y208429D02*
Y208500D01*
X191700Y222500D02*
X192200D01*
X190800Y204800D02*
Y212618D01*
X179300Y208429D02*
X180800Y206929D01*
X185800Y204800D02*
Y216600D01*
X195800Y204800D02*
Y211600D01*
X153341Y210684D02*
X160225Y203800D01*
X159500Y222500D02*
X176100D01*
X152691Y210684D02*
X153341D01*
X160550Y203800D02*
X166550Y197800D01*
X164239Y207861D02*
X165300Y206800D01*
X161300Y211182D02*
X164239Y208243D01*
Y207861D02*
Y208243D01*
X160225Y203800D02*
X160550D01*
X161300Y211182D02*
Y212400D01*
X149750Y173750D02*
X153000Y170500D01*
Y173200D02*
X153400Y172800D01*
X217800Y182800D02*
X225500D01*
X220377Y177473D02*
X222050Y175800D01*
X217800Y172800D02*
X224900D01*
X222050Y175800D02*
X226143D01*
X217800Y177800D02*
X218127Y177473D01*
X220377D01*
X175800Y204800D02*
Y206338D01*
X175338Y206800D02*
X175800Y206338D01*
X180800Y204800D02*
Y206929D01*
X165300Y206800D02*
X175338D01*
X195800Y211600D02*
X200250Y216050D01*
X190800Y212618D02*
X197250Y219068D01*
X180291Y224459D02*
X182250Y222500D01*
X189000D01*
X185800Y216600D02*
X191700Y222500D01*
X240000Y257600D02*
X240500D01*
X230000Y267600D02*
X240000Y257600D01*
X200250Y216050D02*
Y260050D01*
X207800Y267600D02*
X208300D01*
X200250Y260050D02*
X207800Y267600D01*
X180291Y224459D02*
Y226791D01*
X176182Y230900D02*
X180291Y226791D01*
X166279Y230900D02*
X176182D01*
X165400Y231779D02*
X166279Y230900D01*
X224400Y267600D02*
X230000D01*
X208300D02*
X224400D01*
X205800Y89529D02*
Y155800D01*
X202800Y100975D02*
Y132868D01*
X260636Y69500D02*
X262839Y71703D01*
X239700Y64100D02*
X248950D01*
X264800Y107300D02*
X282800Y89300D01*
X219600Y107300D02*
X264800D01*
X282800Y70254D02*
Y89300D01*
X277561Y65015D02*
X282800Y70254D01*
X210800Y116100D02*
X219600Y107300D01*
X190900Y89075D02*
X202800Y100975D01*
X196042Y76829D02*
Y80000D01*
X190900Y85142D02*
Y89075D01*
Y85142D02*
X196042Y80000D01*
X185800Y145482D02*
Y155800D01*
X190800Y144725D02*
Y155800D01*
X195800Y122000D02*
Y155800D01*
X166275Y474525D02*
Y477625D01*
X158700Y485200D02*
X166275Y477625D01*
X157600Y485200D02*
X158700D01*
X176700Y474100D02*
Y480200D01*
X166275Y474525D02*
X166700Y474100D01*
X173616Y533184D02*
Y538184D01*
X169800Y532757D02*
Y538000D01*
X173616Y533184D02*
X175041Y531759D01*
X185159D01*
X169800Y532757D02*
X172875Y529683D01*
Y516982D02*
X174207Y515650D01*
X172875Y516982D02*
Y529683D01*
X200400Y576800D02*
X200900D01*
X169500Y549300D02*
X172800D01*
X173500Y538300D02*
X173616Y538184D01*
X169500Y538300D02*
X169800Y538000D01*
X172800Y549300D02*
X175150Y546950D01*
X191400Y538000D02*
X191900D01*
X168700Y576800D02*
X169500Y576000D01*
X173500Y560300D02*
X173800Y560600D01*
Y566300D01*
X165500Y560300D02*
Y568600D01*
X72600Y553200D02*
X87700D01*
X72600Y537100D02*
X87700D01*
X185159Y531759D02*
X191400Y538000D01*
X173800Y566300D02*
X184300Y576800D01*
X164218Y569600D02*
X164500D01*
X169500Y560300D02*
Y576000D01*
X164500Y569600D02*
X165500Y568600D01*
X184300Y576800D02*
X184800D01*
D95*
X142400Y620600D02*
X145057D01*
X151200Y609543D02*
X153457Y611800D01*
X151200Y595100D02*
Y609543D01*
X150700Y594600D02*
X151200Y595100D01*
X142400Y620600D02*
Y620600D01*
X165300Y512358D02*
X171158Y506500D01*
X219000D02*
X225300Y512800D01*
X165300Y512358D02*
Y522300D01*
X171158Y506500D02*
X219000D01*
X200800Y338400D02*
X212600D01*
X231274Y357074D01*
Y363943D01*
X146000Y573700D02*
Y586600D01*
X150200Y590800D02*
Y594100D01*
X150700Y594600D01*
X146000Y573700D02*
X157550Y562150D01*
X146000Y586600D02*
X150200Y590800D01*
X122800Y381900D02*
Y397600D01*
X128000D02*
Y438900D01*
X122090Y495610D02*
Y509700D01*
Y495610D02*
X125700Y492000D01*
X122090Y509700D02*
X136642D01*
X107539D02*
X122090D01*
X136642D02*
X142500Y515558D01*
Y530600D01*
X100457Y516782D02*
X107539Y509700D01*
X99957Y517282D02*
X100457Y516782D01*
X124900Y538700D02*
X143600D01*
X142500Y530600D02*
X147100Y535200D01*
X124900Y573700D02*
X146000D01*
X143200Y334900D02*
Y367100D01*
X130100Y381000D02*
X141600D01*
X143600Y379000D01*
Y367500D02*
Y379000D01*
X195950Y334200D02*
X196600D01*
X195600D02*
X195950D01*
X196600D02*
X200800Y338400D01*
X167818Y341982D02*
Y348218D01*
X175600Y356000D02*
Y367500D01*
X167818Y348218D02*
X175600Y356000D01*
X178000Y335900D02*
X189264D01*
X143200Y367100D02*
X143600Y367500D01*
X195950Y334200D02*
X196450Y334700D01*
X196450D02*
Y351600D01*
X196450Y334700D02*
Y351600D01*
X196450D02*
X196450D01*
X165200Y522400D02*
X165300Y522300D01*
X143600Y538700D02*
X147100Y535200D01*
D96*
X165500Y531628D02*
Y538300D01*
D97*
X80000Y50000D02*
D03*
Y100800D02*
D03*
Y126200D02*
D03*
Y151600D02*
D03*
D98*
X176100Y659200D02*
D03*
X233900D02*
D03*
D99*
X174200Y459600D02*
D03*
X232382Y609669D02*
D03*
X225001Y632050D02*
D03*
X82600Y619000D02*
D03*
X177610Y619581D02*
D03*
X175700Y632300D02*
D03*
X116082Y415769D02*
D03*
X235882Y303669D02*
D03*
X81282Y309268D02*
D03*
X120582Y122769D02*
D03*
X17182Y85069D02*
D03*
Y21469D02*
D03*
X151382Y19769D02*
D03*
X231382Y21669D02*
D03*
X281282Y119169D02*
D03*
X289282Y251169D02*
D03*
X87182Y678969D02*
D03*
X144282Y418169D02*
D03*
X281282Y684169D02*
D03*
X151511Y501762D02*
D03*
X201382Y693869D02*
D03*
X288182Y536768D02*
D03*
X14082Y379969D02*
D03*
X197400Y516600D02*
D03*
X156700Y578900D02*
D03*
X113500Y450400D02*
D03*
X95100Y450200D02*
D03*
X114500Y134600D02*
D03*
X144134Y484466D02*
D03*
X245800Y483500D02*
D03*
X264900Y313600D02*
D03*
X43850Y311950D02*
D03*
X102500Y280300D02*
D03*
X134700Y267800D02*
D03*
X225400Y484500D02*
D03*
X126475Y177475D02*
D03*
X147200Y202600D02*
D03*
X161300Y212400D02*
D03*
X239700Y64100D02*
D03*
X197000Y113600D02*
D03*
X147500Y223500D02*
D03*
X112800Y224500D02*
D03*
X235000Y146900D02*
D03*
X244800Y146400D02*
D03*
X157700Y152300D02*
D03*
X155408Y201008D02*
D03*
X114500Y214700D02*
D03*
X126400Y158000D02*
D03*
X137200Y158600D02*
D03*
X245200Y635300D02*
D03*
X134700Y134500D02*
D03*
X135800Y123300D02*
D03*
X117922Y90185D02*
D03*
X117700Y148900D02*
D03*
X145000Y286800D02*
D03*
X190700Y283900D02*
D03*
X158400Y308000D02*
D03*
X167300Y247700D02*
D03*
X245000Y285800D02*
D03*
X139500Y562800D02*
D03*
X130000Y522600D02*
D03*
X40182Y682969D02*
D03*
X38182Y611069D02*
D03*
X26582Y273468D02*
D03*
X157600Y485200D02*
D03*
X289300Y430100D02*
D03*
X274100Y194200D02*
D03*
X187100Y562700D02*
D03*
X150500Y125000D02*
D03*
X232000Y245100D02*
D03*
X258800Y101600D02*
D03*
X157565Y247735D02*
D03*
X257600Y221800D02*
D03*
X130522Y99485D02*
D03*
X173022Y54385D02*
D03*
X122400Y51100D02*
D03*
X182200Y116000D02*
D03*
X131850Y198500D02*
D03*
X265300Y351000D02*
D03*
X12700Y308000D02*
D03*
X66200Y237700D02*
D03*
X133100Y677400D02*
D03*
X254800Y640600D02*
D03*
X19200Y115300D02*
D03*
X171722Y94185D02*
D03*
X204000Y384000D02*
D03*
X205400Y303300D02*
D03*
X141500Y307000D02*
D03*
X168600Y308000D02*
D03*
X165200Y276900D02*
D03*
X126800Y299500D02*
D03*
X119100Y598300D02*
D03*
X206200Y602000D02*
D03*
X194200Y525500D02*
D03*
X75500Y509400D02*
D03*
X156800Y549300D02*
D03*
X155000Y427700D02*
D03*
X287800Y598800D02*
D03*
D100*
X205300Y192300D02*
D03*
Y180300D02*
D03*
Y168300D02*
D03*
X193300Y192300D02*
D03*
Y180300D02*
D03*
Y168300D02*
D03*
X181300Y192300D02*
D03*
Y180300D02*
D03*
Y168300D02*
D03*
D101*
X125700Y492000D02*
D03*
X128000Y438900D02*
D03*
X231274Y363943D02*
D03*
X225300Y512800D02*
D03*
M02*
