G04*
G04 #@! TF.GenerationSoftware,Altium Limited,Altium Designer,21.3.2 (30)*
G04*
G04 Layer_Color=32768*
%FSLAX44Y44*%
%MOMM*%
G71*
G04*
G04 #@! TF.SameCoordinates,93AE1877-D90B-42EB-A32C-D5F199EAFC0F*
G04*
G04*
G04 #@! TF.FilePolarity,Positive*
G04*
G01*
G75*
%ADD13C,0.1700*%
%ADD16C,0.1000*%
D13*
X171097Y468100D02*
X162766D01*
X161100Y466434D01*
Y463102D01*
X162766Y461436D01*
X171097D01*
X169431Y458103D02*
X171097Y456437D01*
Y453105D01*
X169431Y451439D01*
X167764D01*
X166098Y453105D01*
Y454771D01*
Y453105D01*
X164432Y451439D01*
X162766D01*
X161100Y453105D01*
Y456437D01*
X162766Y458103D01*
X62464Y300569D02*
X60798Y298903D01*
X57466D01*
X55800Y300569D01*
Y302236D01*
X57466Y303902D01*
X60798D01*
X62464Y305568D01*
Y307234D01*
X60798Y308900D01*
X57466D01*
X55800Y307234D01*
X70795Y308900D02*
Y298903D01*
X65797Y303902D01*
X72461D01*
X99335Y54731D02*
X101002Y56397D01*
X104334D01*
X106000Y54731D01*
Y53064D01*
X104334Y51398D01*
X101002D01*
X99335Y49732D01*
Y48066D01*
X101002Y46400D01*
X104334D01*
X106000Y48066D01*
X96003Y54731D02*
X94337Y56397D01*
X91005D01*
X89339Y54731D01*
Y53064D01*
X91005Y51398D01*
X92671D01*
X91005D01*
X89339Y49732D01*
Y48066D01*
X91005Y46400D01*
X94337D01*
X96003Y48066D01*
X92231Y221436D02*
X93897Y223102D01*
Y226434D01*
X92231Y228100D01*
X90564D01*
X88898Y226434D01*
Y223102D01*
X87232Y221436D01*
X85566D01*
X83900Y223102D01*
Y226434D01*
X85566Y228100D01*
X83900Y211439D02*
Y218103D01*
X90564Y211439D01*
X92231D01*
X93897Y213105D01*
Y216437D01*
X92231Y218103D01*
X243400Y605803D02*
Y615800D01*
X238402D01*
X236735Y614134D01*
Y607469D01*
X238402Y605803D01*
X243400D01*
X226739D02*
X233403D01*
Y610802D01*
X230071Y609136D01*
X228405D01*
X226739Y610802D01*
Y614134D01*
X228405Y615800D01*
X231737D01*
X233403Y614134D01*
X102157Y497532D02*
Y487535D01*
X97158D01*
X95492Y489201D01*
Y492533D01*
X97158Y494199D01*
X102157D01*
X98825D02*
X95492Y497532D01*
X85496Y487535D02*
X92160D01*
Y497532D01*
X85496D01*
X92160Y492533D02*
X88828D01*
X75499Y489201D02*
X77165Y487535D01*
X80497D01*
X82163Y489201D01*
Y495866D01*
X80497Y497532D01*
X77165D01*
X75499Y495866D01*
Y492533D01*
X78831D01*
X72167Y497532D02*
X68834D01*
X70500D01*
Y487535D01*
X72167Y489201D01*
X199097Y195300D02*
X190766D01*
X189100Y193634D01*
Y190302D01*
X190766Y188636D01*
X199097D01*
X189100Y180305D02*
X199097D01*
X194098Y185303D01*
Y178639D01*
X141300Y78697D02*
Y70366D01*
X142966Y68700D01*
X146298D01*
X147964Y70366D01*
Y78697D01*
X157961D02*
X151297D01*
Y73698D01*
X154629Y75364D01*
X156295D01*
X157961Y73698D01*
Y70366D01*
X156295Y68700D01*
X152963D01*
X151297Y70366D01*
X165897Y374700D02*
X155900D01*
Y368036D01*
Y364703D02*
Y361371D01*
Y363037D01*
X165897D01*
X164231Y364703D01*
X241800Y398300D02*
X231803D01*
Y393302D01*
X233469Y391636D01*
X236802D01*
X238468Y393302D01*
Y398300D01*
X233469Y388303D02*
X231803Y386637D01*
Y383305D01*
X233469Y381639D01*
X235135D01*
X236802Y383305D01*
Y384971D01*
Y383305D01*
X238468Y381639D01*
X240134D01*
X241800Y383305D01*
Y386637D01*
X240134Y388303D01*
X264200Y571700D02*
Y581697D01*
X259202D01*
X257535Y580031D01*
Y576698D01*
X259202Y575032D01*
X264200D01*
X254203Y571700D02*
X250871D01*
X252537D01*
Y581697D01*
X254203Y580031D01*
X112100Y625297D02*
Y615300D01*
X117098D01*
X118764Y616966D01*
Y623631D01*
X117098Y625297D01*
X112100D01*
X122097Y623631D02*
X123763Y625297D01*
X127095D01*
X128761Y623631D01*
Y621964D01*
X127095Y620298D01*
X125429D01*
X127095D01*
X128761Y618632D01*
Y616966D01*
X127095Y615300D01*
X123763D01*
X122097Y616966D01*
X253697Y187200D02*
X252031D01*
X248699Y183868D01*
X252031Y180536D01*
X253697D01*
X248699Y183868D02*
X243700D01*
Y177203D02*
Y173871D01*
Y175537D01*
X253697D01*
X252031Y177203D01*
X124531Y379935D02*
X126197Y381602D01*
Y384934D01*
X124531Y386600D01*
X117866D01*
X116200Y384934D01*
Y381602D01*
X117866Y379935D01*
X116200Y369939D02*
Y376603D01*
X122865Y369939D01*
X124531D01*
X126197Y371605D01*
Y374937D01*
X124531Y376603D01*
Y366606D02*
X126197Y364940D01*
Y361608D01*
X124531Y359942D01*
X122865D01*
X121198Y361608D01*
Y363274D01*
Y361608D01*
X119532Y359942D01*
X117866D01*
X116200Y361608D01*
Y364940D01*
X117866Y366606D01*
X210065Y688697D02*
X206732D01*
X208398D01*
Y680366D01*
X206732Y678700D01*
X205066D01*
X203400Y680366D01*
X213397Y678700D02*
X216729D01*
X215063D01*
Y688697D01*
X213397Y687031D01*
X50231Y222435D02*
X51897Y224102D01*
Y227434D01*
X50231Y229100D01*
X48565D01*
X46898Y227434D01*
Y224102D01*
X45232Y222435D01*
X43566D01*
X41900Y224102D01*
Y227434D01*
X43566Y229100D01*
X41900Y219103D02*
Y215771D01*
Y217437D01*
X51897D01*
X50231Y219103D01*
X199031Y331536D02*
X200697Y333202D01*
Y336534D01*
X199031Y338200D01*
X192366D01*
X190700Y336534D01*
Y333202D01*
X192366Y331536D01*
X190700Y321539D02*
Y328203D01*
X197365Y321539D01*
X199031D01*
X200697Y323205D01*
Y326537D01*
X199031Y328203D01*
Y318207D02*
X200697Y316540D01*
Y313208D01*
X199031Y311542D01*
X192366D01*
X190700Y313208D01*
Y316540D01*
X192366Y318207D01*
X199031D01*
X264200Y470500D02*
Y480497D01*
X259202D01*
X257535Y478831D01*
Y475498D01*
X259202Y473832D01*
X264200D01*
X247539Y470500D02*
X254203D01*
X247539Y477164D01*
Y478831D01*
X249205Y480497D01*
X252537D01*
X254203Y478831D01*
X138064Y596831D02*
X136398Y598497D01*
X133066D01*
X131400Y596831D01*
Y590166D01*
X133066Y588500D01*
X136398D01*
X138064Y590166D01*
X141397Y588500D02*
X144729D01*
X143063D01*
Y598497D01*
X141397Y596831D01*
X173535Y405269D02*
X175202Y403603D01*
X178534D01*
X180200Y405269D01*
Y411934D01*
X178534Y413600D01*
X175202D01*
X173535Y411934D01*
X170203Y403603D02*
X163539D01*
Y405269D01*
X170203Y411934D01*
Y413600D01*
X244231Y240035D02*
X245897Y241702D01*
Y245034D01*
X244231Y246700D01*
X237566D01*
X235900Y245034D01*
Y241702D01*
X237566Y240035D01*
X235900Y236703D02*
Y233371D01*
Y235037D01*
X245897D01*
X244231Y236703D01*
Y228372D02*
X245897Y226706D01*
Y223374D01*
X244231Y221708D01*
X237566D01*
X235900Y223374D01*
Y226706D01*
X237566Y228372D01*
X244231D01*
X143031Y332935D02*
X144697Y334602D01*
Y337934D01*
X143031Y339600D01*
X136366D01*
X134700Y337934D01*
Y334602D01*
X136366Y332935D01*
X134700Y322939D02*
Y329603D01*
X141364Y322939D01*
X143031D01*
X144697Y324605D01*
Y327937D01*
X143031Y329603D01*
X134700Y312942D02*
Y319606D01*
X141364Y312942D01*
X143031D01*
X144697Y314608D01*
Y317940D01*
X143031Y319606D01*
X199031Y369136D02*
X200697Y370802D01*
Y374134D01*
X199031Y375800D01*
X192366D01*
X190700Y374134D01*
Y370802D01*
X192366Y369136D01*
X190700Y359139D02*
Y365803D01*
X197365Y359139D01*
X199031D01*
X200697Y360805D01*
Y364137D01*
X199031Y365803D01*
X200697Y349142D02*
Y355807D01*
X195698D01*
X197365Y352474D01*
Y350808D01*
X195698Y349142D01*
X192366D01*
X190700Y350808D01*
Y354140D01*
X192366Y355807D01*
X214469Y316864D02*
X212803Y315198D01*
Y311866D01*
X214469Y310200D01*
X221134D01*
X222800Y311866D01*
Y315198D01*
X221134Y316864D01*
X222800Y326861D02*
Y320197D01*
X216136Y326861D01*
X214469D01*
X212803Y325195D01*
Y321863D01*
X214469Y320197D01*
X212803Y336858D02*
X214469Y333526D01*
X217802Y330193D01*
X221134D01*
X222800Y331860D01*
Y335192D01*
X221134Y336858D01*
X219468D01*
X217802Y335192D01*
Y330193D01*
D16*
X259950Y49900D02*
G03*
X259950Y49900I-5000J0D01*
G01*
X181500Y531300D02*
Y567300D01*
X157500Y531300D02*
X181500D01*
X166960Y549300D02*
X172040D01*
X169500Y546760D02*
Y551840D01*
X157500Y567300D02*
X181500D01*
X157500Y531300D02*
Y567300D01*
X153200Y438600D02*
Y480600D01*
X195200Y438600D02*
Y480600D01*
X153200D02*
X195200D01*
X153200Y438600D02*
X195200D01*
X169200Y459600D02*
X179200D01*
X174200Y454600D02*
Y464600D01*
X47700Y363600D02*
X112300D01*
X47700Y246000D02*
X112300D01*
Y363600D01*
X47700Y246000D02*
Y363600D01*
X48500Y-36700D02*
Y162000D01*
X111500D01*
X48500Y-36700D02*
X111500D01*
Y162000D01*
X71400Y175300D02*
Y232500D01*
X104600Y175300D02*
Y232500D01*
X71400Y175300D02*
X104600D01*
X71400Y232500D02*
X104600D01*
X114500Y528000D02*
Y583800D01*
X135300D01*
X114500Y528000D02*
X135300D01*
Y583800D01*
X155000Y313300D02*
Y336300D01*
Y313300D02*
X181800D01*
Y336300D01*
X155000D02*
X181800D01*
X215400Y592300D02*
X248400D01*
X215400Y627300D02*
X248400D01*
X215400Y592300D02*
Y627300D01*
X248400Y592300D02*
Y627300D01*
X75057Y476132D02*
X107057D01*
X75057Y508132D02*
X107057D01*
X75057Y476132D02*
Y508132D01*
X107057Y476132D02*
Y508132D01*
X280700Y39900D02*
Y96900D01*
X192700Y39900D02*
Y96900D01*
Y39900D02*
X280700D01*
X192700Y96900D02*
X280700D01*
X188300Y180300D02*
X198300D01*
X193300Y175300D02*
Y185300D01*
X164300Y151300D02*
Y209300D01*
X222300Y151300D02*
Y209300D01*
X164300Y151300D02*
X222300D01*
X164300Y209300D02*
X222300D01*
X40800Y119500D02*
Y147900D01*
X26400Y119500D02*
Y147900D01*
X40800D01*
X26400Y119500D02*
X40800D01*
X130400Y92400D02*
X170400D01*
X130400Y53200D02*
Y92400D01*
X170400Y53200D02*
Y92400D01*
X130400Y53200D02*
X170400D01*
X49900Y559900D02*
X79300D01*
Y546500D02*
Y559900D01*
X49900Y546500D02*
Y559900D01*
Y546500D02*
X79300D01*
X133700Y346000D02*
X185500D01*
X133700Y389000D02*
X185500D01*
Y346000D02*
Y389000D01*
X133700Y346000D02*
Y389000D01*
X270300Y323800D02*
Y403800D01*
X206300Y323800D02*
X270300D01*
X206300D02*
Y403800D01*
X270300D01*
X190800Y518100D02*
Y596100D01*
X189100Y518700D02*
X280500D01*
Y596700D01*
X189100D02*
X280500D01*
X88300Y605500D02*
Y633500D01*
X119560Y619500D02*
X124640D01*
X122100Y616960D02*
Y622040D01*
X88300Y633500D02*
X155900D01*
Y605500D02*
Y633500D01*
X88300Y605500D02*
X155900D01*
X232000Y156400D02*
Y198000D01*
X265200D01*
X232000Y156400D02*
X265200D01*
Y198000D01*
X113600Y355700D02*
Y389100D01*
X132000Y355700D02*
Y389100D01*
X113600Y355700D02*
X132000D01*
X113600Y389100D02*
X132000D01*
X172000Y605100D02*
Y633500D01*
X157600Y605100D02*
Y633500D01*
X172000D01*
X157600Y605100D02*
X172000D01*
X29400Y176300D02*
Y233500D01*
X62600Y176300D02*
Y233500D01*
X29400Y176300D02*
X62600D01*
X29400Y233500D02*
X62600D01*
X217200Y245900D02*
X231600D01*
X217200Y274300D02*
X231600D01*
X217200Y245900D02*
Y274300D01*
X231600Y245900D02*
Y274300D01*
X186400Y308000D02*
X204800D01*
X186400Y341400D02*
X204800D01*
X186400Y308000D02*
Y341400D01*
X204800Y308000D02*
Y341400D01*
X49900Y543800D02*
X79300D01*
Y530400D02*
Y543800D01*
X49900Y530400D02*
Y543800D01*
Y530400D02*
X79300D01*
X190800Y416900D02*
Y494900D01*
X189100Y417500D02*
X280500D01*
Y495500D01*
X189100D02*
X280500D01*
X81000Y544300D02*
X109400D01*
X81000Y529900D02*
X109400D01*
X81000D02*
Y544300D01*
X109400Y529900D02*
Y544300D01*
X81000Y560400D02*
X109400D01*
X81000Y546000D02*
X109400D01*
X81000D02*
Y560400D01*
X109400Y546000D02*
Y560400D01*
X131300Y177200D02*
X159700D01*
X131300Y162800D02*
X159700D01*
X131300D02*
Y177200D01*
X159700Y162800D02*
Y177200D01*
X196200Y215800D02*
Y244200D01*
X181800Y215800D02*
Y244200D01*
X196200D01*
X181800Y215800D02*
X196200D01*
X180100Y215800D02*
Y244200D01*
X165700Y215800D02*
Y244200D01*
X180100D01*
X165700Y215800D02*
X180100D01*
X193700Y570100D02*
Y598500D01*
X208100Y570100D02*
Y598500D01*
X193700Y570100D02*
X208100D01*
X193700Y598500D02*
X208100D01*
X257800Y346700D02*
X272200D01*
X257800Y318300D02*
X272200D01*
Y346700D01*
X257800Y318300D02*
Y346700D01*
X135000Y445700D02*
X149400D01*
X135000Y474100D02*
X149400D01*
X135000Y445700D02*
Y474100D01*
X149400Y445700D02*
Y474100D01*
X124500Y585400D02*
Y603800D01*
X157900Y585400D02*
Y603800D01*
X124500D02*
X157900D01*
X124500Y585400D02*
X157900D01*
X78257Y510082D02*
Y524482D01*
X106657Y510082D02*
Y524482D01*
X78257D02*
X106657D01*
X78257Y510082D02*
X106657D01*
X76057Y459782D02*
Y474182D01*
X104457Y459782D02*
Y474182D01*
X76057D02*
X104457D01*
X76057Y459782D02*
X104457D01*
X154300Y528500D02*
Y556900D01*
X139900Y528500D02*
Y556900D01*
X154300D01*
X139900Y528500D02*
X154300D01*
X158500Y529600D02*
X186900D01*
X158500Y515200D02*
X186900D01*
X158500D02*
Y529600D01*
X186900Y515200D02*
Y529600D01*
X155000Y400400D02*
X188400D01*
X155000Y418800D02*
X188400D01*
Y400400D02*
Y418800D01*
X155000Y400400D02*
Y418800D01*
X160000Y420500D02*
X188400D01*
X160000Y434900D02*
X188400D01*
Y420500D02*
Y434900D01*
X160000Y420500D02*
Y434900D01*
X281300Y159500D02*
Y187900D01*
X266900Y159500D02*
Y187900D01*
X281300D01*
X266900Y159500D02*
X281300D01*
X233300Y249200D02*
X251700D01*
X233300Y215800D02*
X251700D01*
Y249200D01*
X233300Y215800D02*
Y249200D01*
X201100Y215800D02*
Y244200D01*
X215500Y215800D02*
Y244200D01*
X201100Y215800D02*
X215500D01*
X201100Y244200D02*
X215500D01*
X276500Y199700D02*
Y228100D01*
X262100Y199700D02*
Y228100D01*
X276500D01*
X262100Y199700D02*
X276500D01*
X131300Y182100D02*
X159700D01*
X131300Y196500D02*
X159700D01*
Y182100D02*
Y196500D01*
X131300Y182100D02*
Y196500D01*
X186800Y118300D02*
Y146700D01*
X172400Y118300D02*
Y146700D01*
X186800D01*
X172400Y118300D02*
X186800D01*
X182288Y633520D02*
X196688D01*
X182288Y605120D02*
X196688D01*
Y633520D01*
X182288Y605120D02*
Y633520D01*
X170700Y118300D02*
Y146700D01*
X156300Y118300D02*
Y146700D01*
X170700D01*
X156300Y118300D02*
X170700D01*
X149600Y215800D02*
Y244200D01*
X164000Y215800D02*
Y244200D01*
X149600Y215800D02*
X164000D01*
X149600Y244200D02*
X164000D01*
X232000Y214100D02*
X260400D01*
X232000Y199700D02*
X260400D01*
X232000D02*
Y214100D01*
X260400Y199700D02*
Y214100D01*
X217200Y215800D02*
Y244200D01*
X231600Y215800D02*
Y244200D01*
X217200Y215800D02*
X231600D01*
X217200Y244200D02*
X231600D01*
X233300Y587700D02*
X247700D01*
X233300Y559300D02*
X247700D01*
Y587700D01*
X233300Y559300D02*
Y587700D01*
X215700Y559500D02*
Y587900D01*
X230100Y559500D02*
Y587900D01*
X215700Y559500D02*
X230100D01*
X215700Y587900D02*
X230100D01*
X233300Y250900D02*
Y279300D01*
X247700Y250900D02*
Y279300D01*
X233300Y250900D02*
X247700D01*
X233300Y279300D02*
X247700D01*
X198388Y633520D02*
X212788D01*
X198388Y605120D02*
X212788D01*
Y633520D01*
X198388Y605120D02*
Y633520D01*
X175900Y570100D02*
Y598500D01*
X161500Y570100D02*
Y598500D01*
X175900D01*
X161500Y570100D02*
X175900D01*
X201100Y245900D02*
Y274300D01*
X215500Y245900D02*
Y274300D01*
X201100Y245900D02*
X215500D01*
X201100Y274300D02*
X215500D01*
X192000Y570100D02*
Y598500D01*
X177600Y570100D02*
Y598500D01*
X192000D01*
X177600Y570100D02*
X192000D01*
X184700Y531300D02*
Y559700D01*
X199100Y531300D02*
Y559700D01*
X184700Y531300D02*
X199100D01*
X184700Y559700D02*
X199100D01*
X81000Y576500D02*
X109400D01*
X81000Y562100D02*
X109400D01*
X81000D02*
Y576500D01*
X109400Y562100D02*
Y576500D01*
X132100Y308700D02*
Y342100D01*
X150500Y308700D02*
Y342100D01*
X132100Y308700D02*
X150500D01*
X132100Y342100D02*
X150500D01*
X251500Y604600D02*
X265900D01*
X251500Y633000D02*
X265900D01*
X251500Y604600D02*
Y633000D01*
X265900Y604600D02*
Y633000D01*
X267600Y604600D02*
X282000D01*
X267600Y633000D02*
X282000D01*
X267600Y604600D02*
Y633000D01*
X282000Y604600D02*
Y633000D01*
X112022Y58585D02*
X126422D01*
X112022Y86985D02*
X126422D01*
X112022Y58585D02*
Y86985D01*
X126422Y58585D02*
Y86985D01*
X135522Y96485D02*
Y110885D01*
X163922Y96485D02*
Y110885D01*
X135522D02*
X163922D01*
X135522Y96485D02*
X163922D01*
X188100Y344900D02*
Y378300D01*
X206500Y344900D02*
Y378300D01*
X188100Y344900D02*
X206500D01*
X188100Y378300D02*
X206500D01*
X225400Y307700D02*
Y341100D01*
X207000Y307700D02*
Y341100D01*
X225400D01*
X207000Y307700D02*
X225400D01*
X13900Y329600D02*
Y344000D01*
X42300Y329600D02*
Y344000D01*
X13900D02*
X42300D01*
X13900Y329600D02*
X42300D01*
X107100Y209900D02*
X121500D01*
X107100Y181500D02*
X121500D01*
Y209900D01*
X107100Y181500D02*
Y209900D01*
X77000Y243500D02*
Y257900D01*
X48600Y243500D02*
Y257900D01*
Y243500D02*
X77000D01*
X48600Y257900D02*
X77000D01*
X13900Y313500D02*
Y327900D01*
X42300Y313500D02*
Y327900D01*
X13900D02*
X42300D01*
X13900Y313500D02*
X42300D01*
X24700Y119500D02*
Y147900D01*
X10300Y119500D02*
Y147900D01*
X24700D01*
X10300Y119500D02*
X24700D01*
X164903Y543800D02*
X171567D01*
X172900Y545133D01*
Y547799D01*
X171567Y549132D01*
X164903D01*
X172900Y551797D02*
Y554463D01*
Y553130D01*
X164903D01*
X166236Y551797D01*
X120503Y548300D02*
X128500D01*
Y552299D01*
X127167Y553632D01*
X121835D01*
X120503Y552299D01*
Y548300D01*
X128500Y560296D02*
X120503D01*
X124501Y556297D01*
Y561629D01*
X171000Y315600D02*
X163002D01*
Y319599D01*
X164335Y320932D01*
X167001D01*
X168334Y319599D01*
Y315600D01*
Y318266D02*
X171000Y320932D01*
X163002Y328929D02*
Y323597D01*
X171000D01*
Y328929D01*
X167001Y323597D02*
Y326263D01*
X164335Y336926D02*
X163002Y335593D01*
Y332928D01*
X164335Y331595D01*
X169667D01*
X171000Y332928D01*
Y335593D01*
X169667Y336926D01*
X167001D01*
Y334261D01*
X171000Y344924D02*
Y339592D01*
X165668Y344924D01*
X164335D01*
X163002Y343591D01*
Y340925D01*
X164335Y339592D01*
X38400Y121600D02*
X30403D01*
Y125599D01*
X31735Y126931D01*
X34401D01*
X35734Y125599D01*
Y121600D01*
Y124266D02*
X38400Y126931D01*
Y129597D02*
Y132263D01*
Y130930D01*
X30403D01*
X31735Y129597D01*
X30403Y141594D02*
Y136262D01*
X34401D01*
X33068Y138928D01*
Y140261D01*
X34401Y141594D01*
X37067D01*
X38400Y140261D01*
Y137595D01*
X37067Y136262D01*
X70100Y548602D02*
Y556600D01*
X66101D01*
X64768Y555267D01*
Y549935D01*
X66101Y548602D01*
X70100D01*
X56771Y556600D02*
X62103D01*
X56771Y551268D01*
Y549935D01*
X58104Y548602D01*
X60770D01*
X62103Y549935D01*
X161603Y612532D02*
Y607200D01*
X165601D01*
Y609866D01*
Y607200D01*
X169600D01*
X161603Y615197D02*
X169600D01*
Y619196D01*
X168267Y620529D01*
X166934D01*
X165601Y619196D01*
Y615197D01*
Y619196D01*
X164268Y620529D01*
X162936D01*
X161603Y619196D01*
Y615197D01*
X169600Y623195D02*
Y625861D01*
Y624528D01*
X161603D01*
X162936Y623195D01*
X226565Y261068D02*
X227897Y262401D01*
Y265067D01*
X226565Y266400D01*
X221233D01*
X219900Y265067D01*
Y262401D01*
X221233Y261068D01*
X227897Y253071D02*
Y258403D01*
X223899D01*
X225232Y255737D01*
Y254404D01*
X223899Y253071D01*
X221233D01*
X219900Y254404D01*
Y257070D01*
X221233Y258403D01*
X70100Y532503D02*
Y540500D01*
X66101D01*
X64768Y539167D01*
Y533835D01*
X66101Y532503D01*
X70100D01*
X62103Y540500D02*
X59437D01*
X60770D01*
Y532503D01*
X62103Y533835D01*
X107300Y541900D02*
Y533903D01*
X103301D01*
X101968Y535235D01*
Y537901D01*
X103301Y539234D01*
X107300D01*
X104634D02*
X101968Y541900D01*
X99303Y540567D02*
X97970Y541900D01*
X95304D01*
X93971Y540567D01*
Y535235D01*
X95304Y533903D01*
X97970D01*
X99303Y535235D01*
Y536568D01*
X97970Y537901D01*
X93971D01*
X107300Y558000D02*
Y550003D01*
X103301D01*
X101968Y551335D01*
Y554001D01*
X103301Y555334D01*
X107300D01*
X104634D02*
X101968Y558000D01*
X99303D02*
X96637D01*
X97970D01*
Y550003D01*
X99303Y551335D01*
X92638D02*
X91305Y550003D01*
X88639D01*
X87306Y551335D01*
Y556667D01*
X88639Y558000D01*
X91305D01*
X92638Y556667D01*
Y551335D01*
X157600Y174800D02*
Y166803D01*
X153601D01*
X152268Y168135D01*
Y170801D01*
X153601Y172134D01*
X157600D01*
X154934D02*
X152268Y174800D01*
X149603D02*
X146937D01*
X148270D01*
Y166803D01*
X149603Y168135D01*
X142938Y174800D02*
X140272D01*
X141605D01*
Y166803D01*
X142938Y168135D01*
X185600Y239900D02*
X193598D01*
Y235901D01*
X192265Y234568D01*
X189599D01*
X188266Y235901D01*
Y239900D01*
Y237234D02*
X185600Y234568D01*
Y231903D02*
Y229237D01*
Y230570D01*
X193598D01*
X192265Y231903D01*
X185600Y219906D02*
Y225238D01*
X190932Y219906D01*
X192265D01*
X193598Y221239D01*
Y223905D01*
X192265Y225238D01*
X169500Y239800D02*
X177498D01*
Y235801D01*
X176165Y234468D01*
X173499D01*
X172166Y235801D01*
Y239800D01*
Y237134D02*
X169500Y234468D01*
Y231803D02*
Y229137D01*
Y230470D01*
X177498D01*
X176165Y231803D01*
Y225138D02*
X177498Y223805D01*
Y221139D01*
X176165Y219806D01*
X174832D01*
X173499Y221139D01*
Y222472D01*
Y221139D01*
X172166Y219806D01*
X170833D01*
X169500Y221139D01*
Y223805D01*
X170833Y225138D01*
X205100Y573900D02*
X197103D01*
Y577899D01*
X198435Y579232D01*
X201101D01*
X202434Y577899D01*
Y573900D01*
Y576566D02*
X205100Y579232D01*
Y581897D02*
Y584563D01*
Y583230D01*
X197103D01*
X198435Y581897D01*
X197103Y593894D02*
X198435Y591228D01*
X201101Y588562D01*
X203767D01*
X205100Y589895D01*
Y592561D01*
X203767Y593894D01*
X202434D01*
X201101Y592561D01*
Y588562D01*
X269800Y322900D02*
X261803D01*
Y326899D01*
X263136Y328232D01*
X265801D01*
X267134Y326899D01*
Y322900D01*
Y325566D02*
X269800Y328232D01*
Y330897D02*
Y333563D01*
Y332230D01*
X261803D01*
X263136Y330897D01*
X261803Y337562D02*
Y342894D01*
X263136D01*
X268467Y337562D01*
X269800D01*
X138400Y469900D02*
X146397D01*
Y465901D01*
X145064Y464568D01*
X142399D01*
X141066Y465901D01*
Y469900D01*
Y467234D02*
X138400Y464568D01*
Y461903D02*
Y459237D01*
Y460570D01*
X146397D01*
X145064Y461903D01*
X139733Y455238D02*
X138400Y453905D01*
Y451239D01*
X139733Y449907D01*
X145064D01*
X146397Y451239D01*
Y453905D01*
X145064Y455238D01*
X143732D01*
X142399Y453905D01*
Y449907D01*
X93625Y514517D02*
X94958Y513184D01*
X97624D01*
X98957Y514517D01*
Y519849D01*
X97624Y521182D01*
X94958D01*
X93625Y519849D01*
X85628Y521182D02*
X90959D01*
X85628Y515850D01*
Y514517D01*
X86961Y513184D01*
X89627D01*
X90959Y514517D01*
X91125Y464417D02*
X92458Y463084D01*
X95124D01*
X96457Y464417D01*
Y469749D01*
X95124Y471082D01*
X92458D01*
X91125Y469749D01*
X88459Y464417D02*
X87127Y463084D01*
X84461D01*
X83128Y464417D01*
Y465750D01*
X84461Y467083D01*
X85794D01*
X84461D01*
X83128Y468416D01*
Y469749D01*
X84461Y471082D01*
X87127D01*
X88459Y469749D01*
X145236Y535932D02*
X143903Y534599D01*
Y531933D01*
X145236Y530600D01*
X150567D01*
X151900Y531933D01*
Y534599D01*
X150567Y535932D01*
X151900Y542596D02*
X143903D01*
X147901Y538597D01*
Y543929D01*
X179468Y520536D02*
X180801Y519203D01*
X183467D01*
X184800Y520536D01*
Y525867D01*
X183467Y527200D01*
X180801D01*
X179468Y525867D01*
X171471Y519203D02*
X174137Y520536D01*
X176803Y523201D01*
Y525867D01*
X175470Y527200D01*
X172804D01*
X171471Y525867D01*
Y524534D01*
X172804Y523201D01*
X176803D01*
X176668Y424436D02*
X178001Y423103D01*
X180667D01*
X182000Y424436D01*
Y429767D01*
X180667Y431100D01*
X178001D01*
X176668Y429767D01*
X174003Y424436D02*
X172670Y423103D01*
X170004D01*
X168671Y424436D01*
Y425768D01*
X170004Y427101D01*
X168671Y428434D01*
Y429767D01*
X170004Y431100D01*
X172670D01*
X174003Y429767D01*
Y428434D01*
X172670Y427101D01*
X174003Y425768D01*
Y424436D01*
X172670Y427101D02*
X170004D01*
X277665Y176668D02*
X278997Y178001D01*
Y180667D01*
X277665Y182000D01*
X272333D01*
X271000Y180667D01*
Y178001D01*
X272333Y176668D01*
Y174002D02*
X271000Y172670D01*
Y170004D01*
X272333Y168671D01*
X277665D01*
X278997Y170004D01*
Y172670D01*
X277665Y174002D01*
X276332D01*
X274999Y172670D01*
Y168671D01*
X210165Y236768D02*
X211497Y238101D01*
Y240767D01*
X210165Y242100D01*
X204833D01*
X203500Y240767D01*
Y238101D01*
X204833Y236768D01*
X203500Y234103D02*
Y231437D01*
Y232770D01*
X211497D01*
X210165Y234103D01*
X203500Y227438D02*
Y224772D01*
Y226105D01*
X211497D01*
X210165Y227438D01*
X271765Y218368D02*
X273097Y219701D01*
Y222367D01*
X271765Y223700D01*
X266433D01*
X265100Y222367D01*
Y219701D01*
X266433Y218368D01*
X265100Y215703D02*
Y213037D01*
Y214370D01*
X273097D01*
X271765Y215703D01*
X265100Y203706D02*
Y209038D01*
X270432Y203706D01*
X271765D01*
X273097Y205039D01*
Y207705D01*
X271765Y209038D01*
X150568Y186135D02*
X151901Y184803D01*
X154567D01*
X155900Y186135D01*
Y191467D01*
X154567Y192800D01*
X151901D01*
X150568Y191467D01*
X147903Y192800D02*
X145237D01*
X146570D01*
Y184803D01*
X147903Y186135D01*
X141238D02*
X139905Y184803D01*
X137239D01*
X135906Y186135D01*
Y187468D01*
X137239Y188801D01*
X138572D01*
X137239D01*
X135906Y190134D01*
Y191467D01*
X137239Y192800D01*
X139905D01*
X141238Y191467D01*
X183365Y138368D02*
X184697Y139701D01*
Y142367D01*
X183365Y143700D01*
X178033D01*
X176700Y142367D01*
Y139701D01*
X178033Y138368D01*
X176700Y135702D02*
Y133037D01*
Y134370D01*
X184697D01*
X183365Y135702D01*
X176700Y125039D02*
X184697D01*
X180699Y129038D01*
Y123706D01*
X191352Y626088D02*
X192685Y627421D01*
Y630087D01*
X191352Y631420D01*
X186021D01*
X184688Y630087D01*
Y627421D01*
X186021Y626088D01*
X184688Y623423D02*
Y620757D01*
Y622090D01*
X192685D01*
X191352Y623423D01*
X192685Y611426D02*
Y616758D01*
X188686D01*
X190019Y614092D01*
Y612759D01*
X188686Y611426D01*
X186021D01*
X184688Y612759D01*
Y615425D01*
X186021Y616758D01*
X166265Y137368D02*
X167598Y138701D01*
Y141367D01*
X166265Y142700D01*
X160933D01*
X159600Y141367D01*
Y138701D01*
X160933Y137368D01*
X159600Y134703D02*
Y132037D01*
Y133370D01*
X167598D01*
X166265Y134703D01*
X167598Y122706D02*
X166265Y125372D01*
X163599Y128038D01*
X160933D01*
X159600Y126705D01*
Y124039D01*
X160933Y122706D01*
X162266D01*
X163599Y124039D01*
Y128038D01*
X158665Y236768D02*
X159998Y238101D01*
Y240767D01*
X158665Y242100D01*
X153333D01*
X152000Y240767D01*
Y238101D01*
X153333Y236768D01*
X152000Y234102D02*
Y231437D01*
Y232770D01*
X159998D01*
X158665Y234102D01*
X159998Y227438D02*
Y222106D01*
X158665D01*
X153333Y227438D01*
X152000D01*
X252969Y205035D02*
X254301Y203703D01*
X256967D01*
X258300Y205035D01*
Y210367D01*
X256967Y211700D01*
X254301D01*
X252969Y210367D01*
X250303Y211700D02*
X247637D01*
X248970D01*
Y203703D01*
X250303Y205035D01*
X243638D02*
X242305Y203703D01*
X239639D01*
X238307Y205035D01*
Y206368D01*
X239639Y207701D01*
X238307Y209034D01*
Y210367D01*
X239639Y211700D01*
X242305D01*
X243638Y210367D01*
Y209034D01*
X242305Y207701D01*
X243638Y206368D01*
Y205035D01*
X242305Y207701D02*
X239639D01*
X226265Y236768D02*
X227598Y238101D01*
Y240767D01*
X226265Y242100D01*
X220933D01*
X219600Y240767D01*
Y238101D01*
X220933Y236768D01*
X219600Y234103D02*
Y231437D01*
Y232770D01*
X227598D01*
X226265Y234103D01*
X220933Y227438D02*
X219600Y226105D01*
Y223439D01*
X220933Y222106D01*
X226265D01*
X227598Y223439D01*
Y226105D01*
X226265Y227438D01*
X224932D01*
X223599Y226105D01*
Y222106D01*
X235700Y585600D02*
X243697D01*
Y581601D01*
X242365Y580268D01*
X239699D01*
X238366Y581601D01*
Y585600D01*
Y582934D02*
X235700Y580268D01*
Y577603D02*
Y574937D01*
Y576270D01*
X243697D01*
X242365Y577603D01*
X218100Y585800D02*
X226097D01*
Y581801D01*
X224764Y580468D01*
X222099D01*
X220766Y581801D01*
Y585800D01*
Y583134D02*
X218100Y580468D01*
Y572471D02*
Y577803D01*
X223432Y572471D01*
X224764D01*
X226097Y573804D01*
Y576470D01*
X224764Y577803D01*
X235700Y277200D02*
X243697D01*
Y273201D01*
X242365Y271868D01*
X239699D01*
X238366Y273201D01*
Y277200D01*
Y274534D02*
X235700Y271868D01*
X242365Y269202D02*
X243697Y267870D01*
Y265204D01*
X242365Y263871D01*
X241032D01*
X239699Y265204D01*
Y266537D01*
Y265204D01*
X238366Y263871D01*
X237033D01*
X235700Y265204D01*
Y267870D01*
X237033Y269202D01*
X200788Y631420D02*
X208785D01*
Y627421D01*
X207452Y626088D01*
X204786D01*
X203454Y627421D01*
Y631420D01*
Y628754D02*
X200788Y626088D01*
Y619424D02*
X208785D01*
X204786Y623423D01*
Y618091D01*
X173500Y572200D02*
X165503D01*
Y576199D01*
X166835Y577532D01*
X169501D01*
X170834Y576199D01*
Y572200D01*
Y574866D02*
X173500Y577532D01*
X165503Y585529D02*
Y580197D01*
X169501D01*
X168168Y582863D01*
Y584196D01*
X169501Y585529D01*
X172167D01*
X173500Y584196D01*
Y581530D01*
X172167Y580197D01*
X203500Y272200D02*
X211497D01*
Y268201D01*
X210165Y266868D01*
X207499D01*
X206166Y268201D01*
Y272200D01*
Y269534D02*
X203500Y266868D01*
X211497Y258871D02*
X210165Y261537D01*
X207499Y264203D01*
X204833D01*
X203500Y262870D01*
Y260204D01*
X204833Y258871D01*
X206166D01*
X207499Y260204D01*
Y264203D01*
X189600Y572200D02*
X181603D01*
Y576199D01*
X182936Y577532D01*
X185601D01*
X186934Y576199D01*
Y572200D01*
Y574866D02*
X189600Y577532D01*
X181603Y580197D02*
Y585529D01*
X182936D01*
X188267Y580197D01*
X189600D01*
X195900Y538800D02*
X187903D01*
Y542799D01*
X189235Y544132D01*
X191901D01*
X193234Y542799D01*
Y538800D01*
Y541466D02*
X195900Y544132D01*
X189235Y546797D02*
X187903Y548130D01*
Y550796D01*
X189235Y552129D01*
X190568D01*
X191901Y550796D01*
X193234Y552129D01*
X194567D01*
X195900Y550796D01*
Y548130D01*
X194567Y546797D01*
X193234D01*
X191901Y548130D01*
X190568Y546797D01*
X189235D01*
X191901Y548130D02*
Y550796D01*
X107300Y574100D02*
Y566102D01*
X103301D01*
X101968Y567435D01*
Y570101D01*
X103301Y571434D01*
X107300D01*
X104634D02*
X101968Y574100D01*
X93971D02*
X99303D01*
X93971Y568768D01*
Y567435D01*
X95304Y566102D01*
X97970D01*
X99303Y567435D01*
X91305D02*
X89972Y566102D01*
X87306D01*
X85974Y567435D01*
Y572767D01*
X87306Y574100D01*
X89972D01*
X91305Y572767D01*
Y567435D01*
X263500Y606700D02*
X255503D01*
Y610699D01*
X256835Y612032D01*
X259501D01*
X260834Y610699D01*
Y606700D01*
Y609366D02*
X263500Y612032D01*
Y620029D02*
Y614697D01*
X258168Y620029D01*
X256835D01*
X255503Y618696D01*
Y616030D01*
X256835Y614697D01*
X255503Y628026D02*
Y622695D01*
X259501D01*
X258168Y625361D01*
Y626693D01*
X259501Y628026D01*
X262167D01*
X263500Y626693D01*
Y624028D01*
X262167Y622695D01*
X279600Y606700D02*
X271603D01*
Y610699D01*
X272936Y612032D01*
X275601D01*
X276934Y610699D01*
Y606700D01*
Y609366D02*
X279600Y612032D01*
Y620029D02*
Y614697D01*
X274268Y620029D01*
X272936D01*
X271603Y618696D01*
Y616030D01*
X272936Y614697D01*
X271603Y628026D02*
X272936Y625361D01*
X275601Y622695D01*
X278267D01*
X279600Y624028D01*
Y626693D01*
X278267Y628026D01*
X276934D01*
X275601Y626693D01*
Y622695D01*
X124022Y60685D02*
X116024D01*
Y64684D01*
X117357Y66017D01*
X120023D01*
X121356Y64684D01*
Y60685D01*
Y63351D02*
X124022Y66017D01*
Y74014D02*
Y68683D01*
X118690Y74014D01*
X117357D01*
X116024Y72681D01*
Y70016D01*
X117357Y68683D01*
X116024Y76680D02*
Y82012D01*
X117357D01*
X122689Y76680D01*
X124022D01*
X142953Y105550D02*
X141620Y106883D01*
X138955D01*
X137622Y105550D01*
Y100218D01*
X138955Y98885D01*
X141620D01*
X142953Y100218D01*
X150951Y98885D02*
X145619D01*
X150951Y104217D01*
Y105550D01*
X149618Y106883D01*
X146952D01*
X145619Y105550D01*
X157615Y98885D02*
Y106883D01*
X153617Y102884D01*
X158948D01*
X21332Y338665D02*
X19999Y339997D01*
X17333D01*
X16000Y338665D01*
Y333333D01*
X17333Y332000D01*
X19999D01*
X21332Y333333D01*
X29329Y332000D02*
X23997D01*
X29329Y337332D01*
Y338665D01*
X27996Y339997D01*
X25330D01*
X23997Y338665D01*
X31995Y339997D02*
X37326D01*
Y338665D01*
X31995Y333333D01*
Y332000D01*
X109500Y207800D02*
X117497D01*
Y203801D01*
X116165Y202468D01*
X113499D01*
X112166Y203801D01*
Y207800D01*
Y205134D02*
X109500Y202468D01*
Y194471D02*
Y199803D01*
X114832Y194471D01*
X116165D01*
X117497Y195804D01*
Y198470D01*
X116165Y199803D01*
X109500Y191805D02*
Y189139D01*
Y190472D01*
X117497D01*
X116165Y191805D01*
X74900Y255500D02*
Y247503D01*
X70901D01*
X69568Y248836D01*
Y251501D01*
X70901Y252834D01*
X74900D01*
X72234D02*
X69568Y255500D01*
X66903D02*
X64237D01*
X65570D01*
Y247503D01*
X66903Y248836D01*
X60238D02*
X58905Y247503D01*
X56239D01*
X54906Y248836D01*
Y250168D01*
X56239Y251501D01*
X54906Y252834D01*
Y254167D01*
X56239Y255500D01*
X58905D01*
X60238Y254167D01*
Y252834D01*
X58905Y251501D01*
X60238Y250168D01*
Y248836D01*
X58905Y251501D02*
X56239D01*
X16000Y315900D02*
Y323897D01*
X19999D01*
X21332Y322565D01*
Y319899D01*
X19999Y318566D01*
X16000D01*
X18666D02*
X21332Y315900D01*
X23997D02*
X26663D01*
X25330D01*
Y323897D01*
X23997Y322565D01*
X34661Y315900D02*
Y323897D01*
X30662Y319899D01*
X35994D01*
X15635Y126931D02*
X14303Y125599D01*
Y122933D01*
X15635Y121600D01*
X20967D01*
X22300Y122933D01*
Y125599D01*
X20967Y126931D01*
X22300Y134929D02*
Y129597D01*
X16968Y134929D01*
X15635D01*
X14303Y133596D01*
Y130930D01*
X15635Y129597D01*
X22300Y137595D02*
Y140261D01*
Y138928D01*
X14303D01*
X15635Y137595D01*
M02*
