G04*
G04 #@! TF.GenerationSoftware,Altium Limited,Altium Designer,21.3.2 (30)*
G04*
G04 Layer_Color=16711935*
%FSLAX44Y44*%
%MOMM*%
G71*
G04*
G04 #@! TF.SameCoordinates,93AE1877-D90B-42EB-A32C-D5F199EAFC0F*
G04*
G04*
G04 #@! TF.FilePolarity,Negative*
G04*
G01*
G75*
%ADD87C,1.6600*%
%ADD88C,0.8100*%
%ADD89C,0.8032*%
%ADD90C,0.8632*%
%ADD91C,1.2032*%
%ADD106R,1.5600X2.2600*%
%ADD107R,2.6600X1.1600*%
%ADD108R,1.2032X5.7032*%
%ADD109R,1.8032X3.2032*%
D87*
X80000Y50000D02*
D03*
Y100800D02*
D03*
Y126200D02*
D03*
Y151600D02*
D03*
D88*
X176100Y659200D02*
D03*
X233900D02*
D03*
D89*
X174200Y459600D02*
D03*
X232382Y609669D02*
D03*
X225001Y632050D02*
D03*
X82600Y619000D02*
D03*
X177610Y619581D02*
D03*
X175700Y632300D02*
D03*
X116082Y415769D02*
D03*
X235882Y303669D02*
D03*
X81282Y309268D02*
D03*
X120582Y122769D02*
D03*
X17182Y85069D02*
D03*
Y21469D02*
D03*
X151382Y19769D02*
D03*
X231382Y21669D02*
D03*
X281282Y119169D02*
D03*
X289282Y251169D02*
D03*
X87182Y678969D02*
D03*
X144282Y418169D02*
D03*
X281282Y684169D02*
D03*
X151511Y501762D02*
D03*
X201382Y693869D02*
D03*
X288182Y536768D02*
D03*
X14082Y379969D02*
D03*
X197400Y516600D02*
D03*
X156700Y578900D02*
D03*
X113500Y450400D02*
D03*
X95100Y450200D02*
D03*
X114500Y134600D02*
D03*
X144134Y484466D02*
D03*
X245800Y483500D02*
D03*
X264900Y313600D02*
D03*
X43850Y311950D02*
D03*
X102500Y280300D02*
D03*
X134700Y267800D02*
D03*
X225400Y484500D02*
D03*
X126475Y177475D02*
D03*
X147200Y202600D02*
D03*
X161300Y212400D02*
D03*
X239700Y64100D02*
D03*
X197000Y113600D02*
D03*
X147500Y223500D02*
D03*
X112800Y224500D02*
D03*
X235000Y146900D02*
D03*
X244800Y146400D02*
D03*
X157700Y152300D02*
D03*
X155408Y201008D02*
D03*
X114500Y214700D02*
D03*
X126400Y158000D02*
D03*
X137200Y158600D02*
D03*
X245200Y635300D02*
D03*
X134700Y134500D02*
D03*
X135800Y123300D02*
D03*
X117922Y90185D02*
D03*
X117700Y148900D02*
D03*
X145000Y286800D02*
D03*
X190700Y283900D02*
D03*
X158400Y308000D02*
D03*
X167300Y247700D02*
D03*
X245000Y285800D02*
D03*
X139500Y562800D02*
D03*
X130000Y522600D02*
D03*
X40182Y682969D02*
D03*
X38182Y611069D02*
D03*
X26582Y273468D02*
D03*
X157600Y485200D02*
D03*
X289300Y430100D02*
D03*
X274100Y194200D02*
D03*
X187100Y562700D02*
D03*
X150500Y125000D02*
D03*
X232000Y245100D02*
D03*
X258800Y101600D02*
D03*
X157565Y247735D02*
D03*
X257600Y221800D02*
D03*
X130522Y99485D02*
D03*
X173022Y54385D02*
D03*
X122400Y51100D02*
D03*
X182200Y116000D02*
D03*
X131850Y198500D02*
D03*
X265300Y351000D02*
D03*
X12700Y308000D02*
D03*
X66200Y237700D02*
D03*
X133100Y677400D02*
D03*
X254800Y640600D02*
D03*
X19200Y115300D02*
D03*
X171722Y94185D02*
D03*
X204000Y384000D02*
D03*
X205400Y303300D02*
D03*
X141500Y307000D02*
D03*
X168600Y308000D02*
D03*
X165200Y276900D02*
D03*
X126800Y299500D02*
D03*
X119100Y598300D02*
D03*
X206200Y602000D02*
D03*
X194200Y525500D02*
D03*
X75500Y509400D02*
D03*
X156800Y549300D02*
D03*
X155000Y427700D02*
D03*
X287800Y598800D02*
D03*
D90*
X205300Y192300D02*
D03*
Y180300D02*
D03*
Y168300D02*
D03*
X193300Y192300D02*
D03*
Y180300D02*
D03*
Y168300D02*
D03*
X181300Y192300D02*
D03*
Y180300D02*
D03*
Y168300D02*
D03*
D91*
X125700Y492000D02*
D03*
X128000Y438900D02*
D03*
X231274Y363943D02*
D03*
X225300Y512800D02*
D03*
D106*
X57500Y259300D02*
D03*
Y350300D02*
D03*
X102500Y259300D02*
D03*
Y350300D02*
D03*
D107*
X221700Y389200D02*
D03*
X254900Y363800D02*
D03*
X221700Y338400D02*
D03*
D108*
X225500Y549200D02*
D03*
X245500D02*
D03*
X225500Y448000D02*
D03*
X245500D02*
D03*
D109*
X201500Y571700D02*
D03*
X269500D02*
D03*
X201500Y470500D02*
D03*
X269500D02*
D03*
M02*
