G04*
G04 #@! TF.GenerationSoftware,Altium Limited,Altium Designer,21.3.2 (30)*
G04*
G04 Layer_Color=2752767*
%FSLAX44Y44*%
%MOMM*%
G71*
G04*
G04 #@! TF.SameCoordinates,93AE1877-D90B-42EB-A32C-D5F199EAFC0F*
G04*
G04*
G04 #@! TF.FilePolarity,Positive*
G04*
G01*
G75*
%ADD110C,0.1270*%
%ADD111C,0.1693*%
D110*
X74920Y44920D02*
Y55080D01*
X85080D01*
Y44920D01*
X74920D01*
Y95720D02*
Y105880D01*
X85080D01*
Y95720D01*
X74920D01*
Y121120D02*
Y131280D01*
X85080D01*
Y121120D01*
X74920D01*
Y146520D02*
Y156680D01*
X85080D01*
Y146520D01*
X74920D01*
X174200Y454520D02*
X169120Y464680D01*
X179280D01*
X174200Y454520D01*
X205300Y187220D02*
X207840Y189760D01*
X210380D01*
X207840Y192300D01*
X210380Y194840D01*
X207840D01*
X205300Y197380D01*
X202760Y194840D01*
X200220D01*
X202760Y192300D01*
X200220Y189760D01*
X202760D01*
X205300Y187220D01*
Y175220D02*
X207840Y177760D01*
X210380D01*
X207840Y180300D01*
X210380Y182840D01*
X207840D01*
X205300Y185380D01*
X202760Y182840D01*
X200220D01*
X202760Y180300D01*
X200220Y177760D01*
X202760D01*
X205300Y175220D01*
Y163220D02*
X207840Y165760D01*
X210380D01*
X207840Y168300D01*
X210380Y170840D01*
X207840D01*
X205300Y173380D01*
X202760Y170840D01*
X200220D01*
X202760Y168300D01*
X200220Y165760D01*
X202760D01*
X205300Y163220D01*
X193300Y187220D02*
X195840Y189760D01*
X198380D01*
X195840Y192300D01*
X198380Y194840D01*
X195840D01*
X193300Y197380D01*
X190760Y194840D01*
X188220D01*
X190760Y192300D01*
X188220Y189760D01*
X190760D01*
X193300Y187220D01*
Y175220D02*
X195840Y177760D01*
X198380D01*
X195840Y180300D01*
X198380Y182840D01*
X195840D01*
X193300Y185380D01*
X190760Y182840D01*
X188220D01*
X190760Y180300D01*
X188220Y177760D01*
X190760D01*
X193300Y175220D01*
Y163220D02*
X195840Y165760D01*
X198380D01*
X195840Y168300D01*
X198380Y170840D01*
X195840D01*
X193300Y173380D01*
X190760Y170840D01*
X188220D01*
X190760Y168300D01*
X188220Y165760D01*
X190760D01*
X193300Y163220D01*
X181300Y187220D02*
X183840Y189760D01*
X186380D01*
X183840Y192300D01*
X186380Y194840D01*
X183840D01*
X181300Y197380D01*
X178760Y194840D01*
X176220D01*
X178760Y192300D01*
X176220Y189760D01*
X178760D01*
X181300Y187220D01*
Y175220D02*
X183840Y177760D01*
X186380D01*
X183840Y180300D01*
X186380Y182840D01*
X183840D01*
X181300Y185380D01*
X178760Y182840D01*
X176220D01*
X178760Y180300D01*
X176220Y177760D01*
X178760D01*
X181300Y175220D01*
Y163220D02*
X183840Y165760D01*
X186380D01*
X183840Y168300D01*
X186380Y170840D01*
X183840D01*
X181300Y173380D01*
X178760Y170840D01*
X176220D01*
X178760Y168300D01*
X176220Y165760D01*
X178760D01*
X181300Y163220D01*
X232382Y604589D02*
X227302Y614749D01*
X237462D01*
X232382Y604589D01*
X225001Y626970D02*
X219921Y637130D01*
X230081D01*
X225001Y626970D01*
X82600Y613920D02*
X77520Y624080D01*
X87680D01*
X82600Y613920D01*
X177610Y614501D02*
X172530Y624661D01*
X182690D01*
X177610Y614501D01*
X175700Y627220D02*
X170620Y637380D01*
X180780D01*
X175700Y627220D01*
X116082Y410689D02*
X111002Y420849D01*
X121162D01*
X116082Y410689D01*
X235882Y298589D02*
X230802Y308749D01*
X240962D01*
X235882Y298589D01*
X81282Y304188D02*
X76202Y314349D01*
X86362D01*
X81282Y304188D01*
X120582Y117689D02*
X115502Y127849D01*
X125662D01*
X120582Y117689D01*
X17182Y79989D02*
X12102Y90149D01*
X22262D01*
X17182Y79989D01*
Y16389D02*
X12102Y26549D01*
X22262D01*
X17182Y16389D01*
X151382Y14689D02*
X146302Y24848D01*
X156462D01*
X151382Y14689D01*
X231382Y16589D02*
X226302Y26749D01*
X236462D01*
X231382Y16589D01*
X281282Y114088D02*
X276202Y124249D01*
X286362D01*
X281282Y114088D01*
X289282Y246089D02*
X284202Y256249D01*
X294362D01*
X289282Y246089D01*
X87182Y673888D02*
X82102Y684048D01*
X92262D01*
X87182Y673888D01*
X144282Y413089D02*
X139202Y423249D01*
X149362D01*
X144282Y413089D01*
X281282Y679089D02*
X276202Y689249D01*
X286362D01*
X281282Y679089D01*
X151511Y496682D02*
X146431Y506842D01*
X156591D01*
X151511Y496682D01*
X201382Y688789D02*
X196302Y698949D01*
X206462D01*
X201382Y688789D01*
X288182Y531688D02*
X283102Y541848D01*
X293262D01*
X288182Y531688D01*
X14082Y374889D02*
X9002Y385049D01*
X19162D01*
X14082Y374889D01*
X197400Y511520D02*
X192320Y521680D01*
X202480D01*
X197400Y511520D01*
X120620Y486920D02*
X123160Y492000D01*
X120620Y497080D01*
X125700Y494540D01*
X130780Y497080D01*
X128240Y492000D01*
X130780Y486920D01*
X125700Y489460D01*
X120620Y486920D01*
X122920Y433820D02*
X125460Y438900D01*
X122920Y443980D01*
X128000Y441440D01*
X133080Y443980D01*
X130540Y438900D01*
X133080Y433820D01*
X128000Y436360D01*
X122920Y433820D01*
X156700Y573820D02*
X151620Y583980D01*
X161780D01*
X156700Y573820D01*
X113500Y445320D02*
X108420Y455480D01*
X118580D01*
X113500Y445320D01*
X95100Y445120D02*
X90020Y455280D01*
X100180D01*
X95100Y445120D01*
X114500Y129520D02*
X109420Y139680D01*
X119580D01*
X114500Y129520D01*
X144134Y479386D02*
X139054Y489546D01*
X149214D01*
X144134Y479386D01*
X245800Y478420D02*
X240720Y488580D01*
X250880D01*
X245800Y478420D01*
X226194Y358863D02*
X228734Y363943D01*
X226194Y369023D01*
X231274Y366483D01*
X236354Y369023D01*
X233814Y363943D01*
X236354Y358863D01*
X231274Y361403D01*
X226194Y358863D01*
X264900Y308520D02*
X259820Y318680D01*
X269980D01*
X264900Y308520D01*
X43850Y306870D02*
X38770Y317030D01*
X48930D01*
X43850Y306870D01*
X102500Y275220D02*
X97420Y285380D01*
X107580D01*
X102500Y275220D01*
X134700Y262720D02*
X129620Y272880D01*
X139780D01*
X134700Y262720D01*
X225400Y479420D02*
X220320Y489580D01*
X230480D01*
X225400Y479420D01*
X220220Y507720D02*
X222760Y512800D01*
X220220Y517880D01*
X225300Y515340D01*
X230380Y517880D01*
X227840Y512800D01*
X230380Y507720D01*
X225300Y510260D01*
X220220Y507720D01*
X126475Y172395D02*
X121395Y182555D01*
X131555D01*
X126475Y172395D01*
X147200Y197520D02*
X142120Y207680D01*
X152280D01*
X147200Y197520D01*
X161300Y207320D02*
X156220Y217480D01*
X166380D01*
X161300Y207320D01*
X239700Y59020D02*
X234620Y69180D01*
X244780D01*
X239700Y59020D01*
X197000Y108520D02*
X191920Y118680D01*
X202080D01*
X197000Y108520D01*
X147500Y218420D02*
X142420Y228580D01*
X152580D01*
X147500Y218420D01*
X112800Y219420D02*
X107720Y229580D01*
X117880D01*
X112800Y219420D01*
X235000Y141820D02*
X229920Y151980D01*
X240080D01*
X235000Y141820D01*
X244800Y141320D02*
X239720Y151480D01*
X249880D01*
X244800Y141320D01*
X157700Y147220D02*
X152620Y157380D01*
X162780D01*
X157700Y147220D01*
X155408Y195928D02*
X150329Y206089D01*
X160488D01*
X155408Y195928D01*
X114500Y209620D02*
X109420Y219780D01*
X119580D01*
X114500Y209620D01*
X126400Y152920D02*
X121320Y163080D01*
X131480D01*
X126400Y152920D01*
X137200Y153520D02*
X132120Y163680D01*
X142280D01*
X137200Y153520D01*
X245200Y630220D02*
X240120Y640380D01*
X250280D01*
X245200Y630220D01*
X134700Y129420D02*
X129620Y139580D01*
X139780D01*
X134700Y129420D01*
X135800Y118220D02*
X130720Y128380D01*
X140880D01*
X135800Y118220D01*
X117922Y85105D02*
X112842Y95265D01*
X123002D01*
X117922Y85105D01*
X117700Y143820D02*
X112620Y153980D01*
X122780D01*
X117700Y143820D01*
X145000Y281720D02*
X139920Y291880D01*
X150080D01*
X145000Y281720D01*
X190700Y278820D02*
X185620Y288980D01*
X195780D01*
X190700Y278820D01*
X158400Y302920D02*
X153320Y313080D01*
X163480D01*
X158400Y302920D01*
X167300Y242620D02*
X162220Y252780D01*
X172380D01*
X167300Y242620D01*
X245000Y280720D02*
X239920Y290880D01*
X250080D01*
X245000Y280720D01*
X139500Y557720D02*
X134420Y567880D01*
X144580D01*
X139500Y557720D01*
X130000Y517520D02*
X124920Y527680D01*
X135080D01*
X130000Y517520D01*
X40182Y677889D02*
X35102Y688049D01*
X45262D01*
X40182Y677889D01*
X38182Y605989D02*
X33102Y616149D01*
X43262D01*
X38182Y605989D01*
X26582Y268389D02*
X21502Y278549D01*
X31662D01*
X26582Y268389D01*
X157600Y480120D02*
X152520Y490280D01*
X162680D01*
X157600Y480120D01*
X289300Y425020D02*
X284220Y435180D01*
X294380D01*
X289300Y425020D01*
X274100Y189120D02*
X269020Y199280D01*
X279180D01*
X274100Y189120D01*
X187100Y557620D02*
X182020Y567780D01*
X192180D01*
X187100Y557620D01*
X150500Y119920D02*
X145420Y130080D01*
X155580D01*
X150500Y119920D01*
X232000Y240020D02*
X226920Y250180D01*
X237080D01*
X232000Y240020D01*
X258800Y96520D02*
X253720Y106680D01*
X263880D01*
X258800Y96520D01*
X157565Y242655D02*
X152485Y252815D01*
X162645D01*
X157565Y242655D01*
X257600Y216720D02*
X252520Y226880D01*
X262680D01*
X257600Y216720D01*
X130522Y94405D02*
X125442Y104565D01*
X135602D01*
X130522Y94405D01*
X173022Y49305D02*
X167942Y59465D01*
X178102D01*
X173022Y49305D01*
X122400Y46020D02*
X117320Y56180D01*
X127480D01*
X122400Y46020D01*
X182200Y110920D02*
X177120Y121080D01*
X187280D01*
X182200Y110920D01*
X131850Y193420D02*
X126770Y203580D01*
X136930D01*
X131850Y193420D01*
X265300Y345920D02*
X260220Y356080D01*
X270380D01*
X265300Y345920D01*
X12700Y302920D02*
X7620Y313080D01*
X17780D01*
X12700Y302920D01*
X66200Y232620D02*
X61120Y242780D01*
X71280D01*
X66200Y232620D01*
X133100Y672320D02*
X128020Y682480D01*
X138180D01*
X133100Y672320D01*
X254800Y635520D02*
X249720Y645680D01*
X259880D01*
X254800Y635520D01*
X19200Y110220D02*
X14120Y120380D01*
X24280D01*
X19200Y110220D01*
X171722Y89105D02*
X166642Y99265D01*
X176802D01*
X171722Y89105D01*
X204000Y378920D02*
X198920Y389080D01*
X209080D01*
X204000Y378920D01*
X205400Y298220D02*
X200320Y308380D01*
X210480D01*
X205400Y298220D01*
X141500Y301920D02*
X136420Y312080D01*
X146580D01*
X141500Y301920D01*
X168600Y302920D02*
X163520Y313080D01*
X173680D01*
X168600Y302920D01*
X165200Y271820D02*
X160120Y281980D01*
X170280D01*
X165200Y271820D01*
X126800Y294420D02*
X121720Y304580D01*
X131880D01*
X126800Y294420D01*
X119100Y593220D02*
X114020Y603380D01*
X124180D01*
X119100Y593220D01*
X206200Y596920D02*
X201120Y607080D01*
X211280D01*
X206200Y596920D01*
X194200Y520420D02*
X189120Y530580D01*
X199280D01*
X194200Y520420D01*
X75500Y504320D02*
X70420Y514480D01*
X80580D01*
X75500Y504320D01*
X156800Y544220D02*
X151720Y554380D01*
X161880D01*
X156800Y544220D01*
X155000Y422620D02*
X149920Y432780D01*
X160080D01*
X155000Y422620D01*
X287800Y593720D02*
X282720Y603880D01*
X292880D01*
X287800Y593720D01*
D111*
X181180Y659200D02*
G03*
X181180Y659200I-5080J0D01*
G01*
X238980D02*
G03*
X238980Y659200I-5080J0D01*
G01*
M02*
