G04*
G04 #@! TF.GenerationSoftware,Altium Limited,Altium Designer,21.3.2 (30)*
G04*
G04 Layer_Color=16711935*
%FSLAX44Y44*%
%MOMM*%
G71*
G04*
G04 #@! TF.SameCoordinates,93AE1877-D90B-42EB-A32C-D5F199EAFC0F*
G04*
G04*
G04 #@! TF.FilePolarity,Positive*
G04*
G01*
G75*
%ADD16C,0.1000*%
D16*
X164450Y471350D02*
G03*
X164450Y471350I-2000J0D01*
G01*
X259950Y49800D02*
G03*
X259950Y49800I-5000J0D01*
G01*
X215050Y197050D02*
G03*
X215050Y197050I-5000J0D01*
G01*
X180000Y537800D02*
Y560800D01*
X159000Y537800D02*
X180000D01*
X159000Y560800D02*
X180000D01*
X159000Y537800D02*
Y560800D01*
X158700Y444100D02*
Y475100D01*
X189700Y444100D02*
Y475100D01*
X158700D02*
X189700D01*
X158700Y444100D02*
X189700D01*
X50000Y354800D02*
X110000D01*
X50000Y254800D02*
X110000D01*
Y354800D01*
X50000Y254800D02*
Y354800D01*
X111500Y-36700D02*
Y162000D01*
X48500Y-36700D02*
Y162000D01*
X111500D01*
X48500Y-36700D02*
X111500D01*
X72000Y179900D02*
Y227900D01*
X104000Y179900D02*
Y227900D01*
X72000Y179900D02*
X104000D01*
X72000Y227900D02*
X104000D01*
X115900Y535400D02*
Y576400D01*
X133900D01*
X115900Y535400D02*
X133900D01*
Y576400D01*
X159900Y313800D02*
Y335800D01*
Y313800D02*
X176900D01*
Y335800D01*
X159900D02*
X176900D01*
X216400Y600800D02*
X247400D01*
X216400Y618800D02*
X247400D01*
X216400Y600800D02*
Y618800D01*
X247400Y600800D02*
Y618800D01*
X76057Y485132D02*
X106057D01*
X76057Y499132D02*
X106057D01*
X76057Y485132D02*
Y499132D01*
X106057Y485132D02*
Y499132D01*
X263950Y40900D02*
Y95900D01*
X209450Y40900D02*
Y95900D01*
Y40900D02*
X263950D01*
X209450Y95900D02*
X263950D01*
X167550Y154550D02*
Y206050D01*
X219050Y154550D02*
Y206050D01*
X167550Y154550D02*
X219050D01*
X167550Y206050D02*
X219050D01*
X37600Y125700D02*
Y141700D01*
X29600Y125700D02*
Y141700D01*
X37600D01*
X29600Y125700D02*
X37600D01*
X134100Y87800D02*
X166700D01*
Y57800D02*
Y87800D01*
X134100Y57800D02*
X166700D01*
X134100D02*
Y87800D01*
X56600Y557200D02*
X72600D01*
Y549200D02*
Y557200D01*
X56600Y549200D02*
Y557200D01*
Y549200D02*
X72600D01*
X138600Y387500D02*
X180600D01*
X138600Y347500D02*
X180600D01*
Y387500D01*
X138600Y347500D02*
Y387500D01*
X263700Y323800D02*
Y403800D01*
X212900D02*
X263700D01*
X212900Y323800D02*
X263700D01*
X212900D02*
Y403800D01*
X195800Y596700D02*
X275200D01*
Y526700D02*
Y596700D01*
X195800Y526700D02*
X275200D01*
X195800D02*
Y596700D01*
X95700Y605500D02*
X148500D01*
X95700D02*
Y633500D01*
X148500Y605500D02*
Y633500D01*
X95700D02*
X148500D01*
X236100Y161200D02*
Y193200D01*
X261100D01*
X236100Y161200D02*
X261100D01*
Y193200D01*
X116500Y362400D02*
Y382400D01*
X129100Y362400D02*
Y382400D01*
X116500Y362400D02*
X129100D01*
X116500Y382400D02*
X129100D01*
X168800Y611300D02*
Y627300D01*
X160800Y611300D02*
Y627300D01*
X168800D01*
X160800Y611300D02*
X168800D01*
X148300Y722000D02*
X261700D01*
Y648500D02*
Y722000D01*
X148300Y648500D02*
Y722000D01*
Y648500D02*
X261700D01*
X30000Y180900D02*
Y228900D01*
X62000Y180900D02*
Y228900D01*
X30000Y180900D02*
X62000D01*
X30000Y228900D02*
X62000D01*
X220400Y252100D02*
X228400D01*
X220400Y268100D02*
X228400D01*
X220400Y252100D02*
Y268100D01*
X228400Y252100D02*
Y268100D01*
X189300Y314700D02*
X201900D01*
X189300Y334700D02*
X201900D01*
X189300Y314700D02*
Y334700D01*
X201900Y314700D02*
Y334700D01*
X56600Y541100D02*
X72600D01*
Y533100D02*
Y541100D01*
X56600Y533100D02*
Y541100D01*
Y533100D02*
X72600D01*
X195800Y495500D02*
X275200D01*
Y425500D02*
Y495500D01*
X195800Y425500D02*
X275200D01*
X195800D02*
Y495500D01*
X87200Y541100D02*
X103200D01*
X87200Y533100D02*
X103200D01*
X87200D02*
Y541100D01*
X103200Y533100D02*
Y541100D01*
X87200Y557200D02*
X103200D01*
X87200Y549200D02*
X103200D01*
X87200D02*
Y557200D01*
X103200Y549200D02*
Y557200D01*
X137500Y174000D02*
X153500D01*
X137500Y166000D02*
X153500D01*
X137500D02*
Y174000D01*
X153500Y166000D02*
Y174000D01*
X193000Y222000D02*
Y238000D01*
X185000Y222000D02*
Y238000D01*
X193000D01*
X185000Y222000D02*
X193000D01*
X176900Y222000D02*
Y238000D01*
X168900Y222000D02*
Y238000D01*
X176900D01*
X168900Y222000D02*
X176900D01*
X196900Y576300D02*
Y592300D01*
X204900Y576300D02*
Y592300D01*
X196900Y576300D02*
X204900D01*
X196900Y592300D02*
X204900D01*
X261000Y340500D02*
X269000D01*
X261000Y324500D02*
X269000D01*
Y340500D01*
X261000Y324500D02*
Y340500D01*
X138200Y451900D02*
X146200D01*
X138200Y467900D02*
X146200D01*
X138200Y451900D02*
Y467900D01*
X146200Y451900D02*
Y467900D01*
X131200Y588300D02*
Y600900D01*
X151200Y588300D02*
Y600900D01*
X131200D02*
X151200D01*
X131200Y588300D02*
X151200D01*
X84457Y513282D02*
Y521282D01*
X100457Y513282D02*
Y521282D01*
X84457D02*
X100457D01*
X84457Y513282D02*
X100457D01*
X82257Y462982D02*
Y470982D01*
X98257Y462982D02*
Y470982D01*
X82257D02*
X98257D01*
X82257Y462982D02*
X98257D01*
X151100Y534700D02*
Y550700D01*
X143100Y534700D02*
Y550700D01*
X151100D01*
X143100Y534700D02*
X151100D01*
X164700Y526400D02*
X180700D01*
X164700Y518400D02*
X180700D01*
X164700D02*
Y526400D01*
X180700Y518400D02*
Y526400D01*
X161700Y403300D02*
X181700D01*
X161700Y415900D02*
X181700D01*
Y403300D02*
Y415900D01*
X161700Y403300D02*
Y415900D01*
X166200Y423700D02*
X182200D01*
X166200Y431700D02*
X182200D01*
Y423700D02*
Y431700D01*
X166200Y423700D02*
Y431700D01*
X278100Y165700D02*
Y181700D01*
X270100Y165700D02*
Y181700D01*
X278100D01*
X270100Y165700D02*
X278100D01*
X236200Y242500D02*
X248800D01*
X236200Y222500D02*
X248800D01*
Y242500D01*
X236200Y222500D02*
Y242500D01*
X204300Y222000D02*
Y238000D01*
X212300Y222000D02*
Y238000D01*
X204300Y222000D02*
X212300D01*
X204300Y238000D02*
X212300D01*
X273300Y205900D02*
Y221900D01*
X265300Y205900D02*
Y221900D01*
X273300D01*
X265300Y205900D02*
X273300D01*
X137500Y185300D02*
X153500D01*
X137500Y193300D02*
X153500D01*
Y185300D02*
Y193300D01*
X137500Y185300D02*
Y193300D01*
X183600Y124500D02*
Y140500D01*
X175600Y124500D02*
Y140500D01*
X183600D01*
X175600Y124500D02*
X183600D01*
X185488Y627320D02*
X193488D01*
X185488Y611320D02*
X193488D01*
Y627320D01*
X185488Y611320D02*
Y627320D01*
X167500Y124500D02*
Y140500D01*
X159500Y124500D02*
Y140500D01*
X167500D01*
X159500Y124500D02*
X167500D01*
X152800Y222000D02*
Y238000D01*
X160800Y222000D02*
Y238000D01*
X152800Y222000D02*
X160800D01*
X152800Y238000D02*
X160800D01*
X238200Y210900D02*
X254200D01*
X238200Y202900D02*
X254200D01*
X238200D02*
Y210900D01*
X254200Y202900D02*
Y210900D01*
X220400Y222000D02*
Y238000D01*
X228400Y222000D02*
Y238000D01*
X220400Y222000D02*
X228400D01*
X220400Y238000D02*
X228400D01*
X236500Y581500D02*
X244500D01*
X236500Y565500D02*
X244500D01*
Y581500D01*
X236500Y565500D02*
Y581500D01*
X218900Y565700D02*
Y581700D01*
X226900Y565700D02*
Y581700D01*
X218900Y565700D02*
X226900D01*
X218900Y581700D02*
X226900D01*
X236500Y257100D02*
Y273100D01*
X244500Y257100D02*
Y273100D01*
X236500Y257100D02*
X244500D01*
X236500Y273100D02*
X244500D01*
X201588Y627320D02*
X209588D01*
X201588Y611320D02*
X209588D01*
Y627320D01*
X201588Y611320D02*
Y627320D01*
X172700Y576300D02*
Y592300D01*
X164700Y576300D02*
Y592300D01*
X172700D01*
X164700Y576300D02*
X172700D01*
X204300Y252100D02*
Y268100D01*
X212300Y252100D02*
Y268100D01*
X204300Y252100D02*
X212300D01*
X204300Y268100D02*
X212300D01*
X188800Y576300D02*
Y592300D01*
X180800Y576300D02*
Y592300D01*
X188800D01*
X180800Y576300D02*
X188800D01*
X187900Y537500D02*
Y553500D01*
X195900Y537500D02*
Y553500D01*
X187900Y537500D02*
X195900D01*
X187900Y553500D02*
X195900D01*
X87200Y573300D02*
X103200D01*
X87200Y565300D02*
X103200D01*
X87200D02*
Y573300D01*
X103200Y565300D02*
Y573300D01*
X135000Y315400D02*
Y335400D01*
X147600Y315400D02*
Y335400D01*
X135000Y315400D02*
X147600D01*
X135000Y335400D02*
X147600D01*
X254700Y610800D02*
X262700D01*
X254700Y626800D02*
X262700D01*
X254700Y610800D02*
Y626800D01*
X262700Y610800D02*
Y626800D01*
X270800Y610800D02*
X278800D01*
X270800Y626800D02*
X278800D01*
X270800Y610800D02*
Y626800D01*
X278800Y610800D02*
Y626800D01*
X115222Y64785D02*
X123222D01*
X115222Y80785D02*
X123222D01*
X115222Y64785D02*
Y80785D01*
X123222Y64785D02*
Y80785D01*
X141722Y99685D02*
Y107685D01*
X157722Y99685D02*
Y107685D01*
X141722D02*
X157722D01*
X141722Y99685D02*
X157722D01*
X191000Y351600D02*
Y371600D01*
X203600Y351600D02*
Y371600D01*
X191000Y351600D02*
X203600D01*
X191000Y371600D02*
X203600D01*
X222500Y314400D02*
Y334400D01*
X209900Y314400D02*
Y334400D01*
X222500D01*
X209900Y314400D02*
X222500D01*
X20100Y332800D02*
Y340800D01*
X36100Y332800D02*
Y340800D01*
X20100D02*
X36100D01*
X20100Y332800D02*
X36100D01*
X110300Y203700D02*
X118300D01*
X110300Y187700D02*
X118300D01*
Y203700D01*
X110300Y187700D02*
Y203700D01*
X70800Y246700D02*
Y254700D01*
X54800Y246700D02*
Y254700D01*
Y246700D02*
X70800D01*
X54800Y254700D02*
X70800D01*
X20100Y316700D02*
Y324700D01*
X36100Y316700D02*
Y324700D01*
X20100D02*
X36100D01*
X20100Y316700D02*
X36100D01*
X21500Y125700D02*
Y141700D01*
X13500Y125700D02*
Y141700D01*
X21500D01*
X13500Y125700D02*
X21500D01*
M02*
