G04*
G04 #@! TF.GenerationSoftware,Altium Limited,Altium Designer,21.3.2 (30)*
G04*
G04 Layer_Color=8421504*
%FSLAX44Y44*%
%MOMM*%
G71*
G04*
G04 #@! TF.SameCoordinates,93AE1877-D90B-42EB-A32C-D5F199EAFC0F*
G04*
G04*
G04 #@! TF.FilePolarity,Positive*
G04*
G01*
G75*
%ADD19R,0.2100X0.8000*%
%ADD20R,1.5000X0.8400*%
%ADD21O,0.9000X0.2800*%
%ADD22O,0.2800X0.9000*%
%ADD23R,1.2500X1.2500*%
%ADD24R,0.6500X1.0500*%
%ADD25R,1.5000X1.5000*%
%ADD26P,1.6236X8X112.5*%
%ADD27O,0.6700X0.3000*%
%ADD28R,0.6700X0.3000*%
%ADD29R,0.6500X0.9000*%
%ADD30O,0.6500X0.9000*%
%ADD31R,0.6000X0.8500*%
%ADD32R,1.9000X0.6000*%
%ADD33O,1.9000X0.6000*%
%ADD34R,3.6000X3.6000*%
%ADD35O,0.7000X0.2500*%
%ADD36O,0.2500X0.7000*%
%ADD37R,0.9000X0.8000*%
%ADD38O,0.2800X0.8000*%
%ADD39O,0.8000X0.2800*%
%ADD40R,0.8000X0.2800*%
%ADD41P,0.8659X8X202.5*%
%ADD42R,0.8000X0.8000*%
%ADD43R,1.4000X3.7000*%
%ADD44R,2.0000X2.0000*%
%ADD45P,2.1648X8X202.5*%
%ADD46R,1.1500X1.4000*%
%ADD47R,1.3000X0.9000*%
%ADD48R,0.2800X1.1500*%
%ADD49R,0.5600X1.1500*%
%ADD50R,1.5000X1.5000*%
%ADD51R,0.8000X0.9000*%
%ADD52R,0.9000X1.3000*%
D19*
X177500Y560300D02*
D03*
X161500D02*
D03*
X165500D02*
D03*
X169500D02*
D03*
X173500D02*
D03*
X177500Y538300D02*
D03*
X173500D02*
D03*
X169500D02*
D03*
X165500D02*
D03*
X161500D02*
D03*
D20*
X169500Y549300D02*
D03*
D21*
X159700Y467100D02*
D03*
Y462100D02*
D03*
Y457100D02*
D03*
Y452100D02*
D03*
X188700D02*
D03*
Y457100D02*
D03*
Y462100D02*
D03*
Y467100D02*
D03*
D22*
X166700Y445100D02*
D03*
X171700D02*
D03*
X176700D02*
D03*
X181700D02*
D03*
Y474100D02*
D03*
X176700D02*
D03*
X171700D02*
D03*
X166700D02*
D03*
D23*
X174200Y459600D02*
D03*
D24*
X98700Y224600D02*
D03*
X77300D02*
D03*
X98700Y183200D02*
D03*
X77300D02*
D03*
X56700Y225600D02*
D03*
X35300D02*
D03*
X56700Y184200D02*
D03*
X35300D02*
D03*
D25*
X124900Y573400D02*
D03*
D26*
Y538400D02*
D03*
D27*
X161000Y317300D02*
D03*
X175800D02*
D03*
X161000Y327300D02*
D03*
Y322300D02*
D03*
X175800D02*
D03*
Y327300D02*
D03*
Y332300D02*
D03*
D28*
X161000D02*
D03*
D29*
X222400Y597800D02*
D03*
D30*
X231900D02*
D03*
X241400D02*
D03*
Y621800D02*
D03*
X231900D02*
D03*
X222400D02*
D03*
D31*
X81557Y481382D02*
D03*
X100557D02*
D03*
X91057Y502882D02*
D03*
D32*
X270200Y49350D02*
D03*
D33*
Y62050D02*
D03*
Y74750D02*
D03*
Y87450D02*
D03*
X203200Y49350D02*
D03*
Y62050D02*
D03*
Y74750D02*
D03*
Y87450D02*
D03*
D34*
X193300Y180300D02*
D03*
D35*
X217800Y197800D02*
D03*
Y192800D02*
D03*
Y187800D02*
D03*
Y182800D02*
D03*
Y177800D02*
D03*
Y172800D02*
D03*
Y167800D02*
D03*
Y162800D02*
D03*
X168800D02*
D03*
Y167800D02*
D03*
Y172800D02*
D03*
Y177800D02*
D03*
Y182800D02*
D03*
Y187800D02*
D03*
Y192800D02*
D03*
Y197800D02*
D03*
D36*
X210800Y155800D02*
D03*
X205800D02*
D03*
X200800D02*
D03*
X195800D02*
D03*
X190800D02*
D03*
X185800D02*
D03*
X180800D02*
D03*
X175800D02*
D03*
Y204800D02*
D03*
X180800D02*
D03*
X185800D02*
D03*
X190800D02*
D03*
X195800D02*
D03*
X200800D02*
D03*
X205800D02*
D03*
X210800D02*
D03*
D37*
X33600Y141200D02*
D03*
Y126200D02*
D03*
X164800Y626800D02*
D03*
Y611800D02*
D03*
X224400Y252600D02*
D03*
Y267600D02*
D03*
X189000Y237500D02*
D03*
Y222500D02*
D03*
X172900Y237500D02*
D03*
Y222500D02*
D03*
X200900Y576800D02*
D03*
Y591800D02*
D03*
X265000Y340000D02*
D03*
Y325000D02*
D03*
X142200Y452400D02*
D03*
Y467400D02*
D03*
X147100Y550200D02*
D03*
Y535200D02*
D03*
X274100Y181200D02*
D03*
Y166200D02*
D03*
X208300Y222500D02*
D03*
Y237500D02*
D03*
X269300Y221400D02*
D03*
Y206400D02*
D03*
X179600Y140000D02*
D03*
Y125000D02*
D03*
X189488Y626820D02*
D03*
Y611820D02*
D03*
X163500Y140000D02*
D03*
Y125000D02*
D03*
X156800Y222500D02*
D03*
Y237500D02*
D03*
X224400Y222500D02*
D03*
Y237500D02*
D03*
X240500Y581000D02*
D03*
Y566000D02*
D03*
X222900Y566200D02*
D03*
Y581200D02*
D03*
X240500Y257600D02*
D03*
Y272600D02*
D03*
X205588Y626820D02*
D03*
Y611820D02*
D03*
X168700Y591800D02*
D03*
Y576800D02*
D03*
X208300Y252600D02*
D03*
Y267600D02*
D03*
X184800Y591800D02*
D03*
Y576800D02*
D03*
X191900Y538000D02*
D03*
Y553000D02*
D03*
X258700Y611300D02*
D03*
Y626300D02*
D03*
X274800Y611300D02*
D03*
Y626300D02*
D03*
X119222Y65285D02*
D03*
Y80285D02*
D03*
X114300Y203200D02*
D03*
Y188200D02*
D03*
X17500Y141200D02*
D03*
Y126200D02*
D03*
D38*
X145400Y85600D02*
D03*
X150400D02*
D03*
X155400D02*
D03*
Y60000D02*
D03*
X150400D02*
D03*
X145400D02*
D03*
D39*
X163600Y82800D02*
D03*
Y77800D02*
D03*
Y72800D02*
D03*
Y67800D02*
D03*
Y62800D02*
D03*
X137200D02*
D03*
Y67800D02*
D03*
Y72800D02*
D03*
Y77800D02*
D03*
D40*
Y82800D02*
D03*
D41*
X72600Y553200D02*
D03*
X72600Y537100D02*
D03*
D42*
X56600Y553200D02*
D03*
X56600Y537100D02*
D03*
D43*
X175600Y367500D02*
D03*
X143600D02*
D03*
D44*
X101100Y619500D02*
D03*
D45*
X143100D02*
D03*
D46*
X256600Y188200D02*
D03*
Y166200D02*
D03*
X240600Y188200D02*
D03*
Y166200D02*
D03*
D47*
X122800Y362900D02*
D03*
Y381900D02*
D03*
X195600Y315200D02*
D03*
Y334200D02*
D03*
X242500Y242000D02*
D03*
Y223000D02*
D03*
X141300Y315900D02*
D03*
Y334900D02*
D03*
X197300Y352100D02*
D03*
Y371100D02*
D03*
X216200Y333900D02*
D03*
Y314900D02*
D03*
D48*
X207500Y648400D02*
D03*
X197500D02*
D03*
X222500D02*
D03*
X217500D02*
D03*
X212500D02*
D03*
X202500D02*
D03*
X192500D02*
D03*
X187500D02*
D03*
D49*
X173000D02*
D03*
X181000D02*
D03*
X237000D02*
D03*
X229000D02*
D03*
D50*
X153800Y654200D02*
D03*
Y693500D02*
D03*
X256200D02*
D03*
Y654200D02*
D03*
D51*
X87700Y537100D02*
D03*
X102700D02*
D03*
X87700Y553200D02*
D03*
X102700D02*
D03*
X138000Y170000D02*
D03*
X153000D02*
D03*
X84957Y517282D02*
D03*
X99957D02*
D03*
X82757Y466982D02*
D03*
X97757D02*
D03*
X165200Y522400D02*
D03*
X180200D02*
D03*
X181700Y427700D02*
D03*
X166700D02*
D03*
X153000Y189300D02*
D03*
X138000D02*
D03*
X238700Y206900D02*
D03*
X253700D02*
D03*
X87700Y569300D02*
D03*
X102700D02*
D03*
X142222Y103685D02*
D03*
X157222D02*
D03*
X20600Y336800D02*
D03*
X35600D02*
D03*
X70300Y250700D02*
D03*
X55300D02*
D03*
X20600Y320700D02*
D03*
X35600D02*
D03*
D52*
X131700Y594600D02*
D03*
X150700D02*
D03*
X181200Y409600D02*
D03*
X162200D02*
D03*
M02*
